<?xml version="1.0" standalone="no"?>
<!DOCTYPE svg PUBLIC "-//W3C//DTD SVG 1.1//EN" "http://www.w3.org/Graphics/SVG/1.1/DTD/svg11.dtd" >
<svg>
<metadata>
Created by FontForge 20120731 at Mon Aug 15 23:58:41 2016
 By www
Copyright (c) 2012 by Kimberly Geswein. All rights reserved.
</metadata>
<defs>
<font id="ShadowsIntoLight" horiz-adv-x="417" >
  <font-face 
    font-family="Shadows Into Light"
    font-weight="400"
    font-stretch="normal"
    units-per-em="1024"
    panose-1="2 0 5 6 0 0 0 2 0 4"
    ascent="819"
    descent="-205"
    x-height="598"
    cap-height="848"
    bbox="-216.5 -337.806 1421 1144.56"
    underline-thickness="0"
    underline-position="0"
    unicode-range="U+0020-FB02"
  />
<missing-glyph horiz-adv-x="512" 
 />
    <glyph glyph-name=".notdef" horiz-adv-x="512" 
 />
    <glyph glyph-name=".null" horiz-adv-x="0" 
 />
    <glyph glyph-name="nonmarkingreturn" horiz-adv-x="512" 
 />
    <glyph glyph-name="space" unicode=" " horiz-adv-x="512" 
 />
    <glyph glyph-name="space" unicode="&#xa0;" horiz-adv-x="512" 
 />
    <glyph glyph-name="percent" unicode="%" horiz-adv-x="512" 
d="M148 2q-10 -5 -19 -4.5t-16.5 5t-14 11.5t-10.5 14q23 93 57.5 196.5t75 209t84.5 211t86 203.5q8 5 19 6.5t20 -1t14 -10t2 -20.5q-45 -101 -87 -205t-80.5 -208.5t-71.5 -207.5t-59 -200zM374 78q-35 11 -52 35.5t-20.5 54.5t5 62.5t24.5 59t38.5 44.5t47.5 19
q34 -4 54 -27t27 -55t1 -68t-22 -65t-42.5 -46.5t-60.5 -13.5zM411 288q-11 2 -21 -7.5t-17.5 -24.5t-12 -33.5t-4 -35.5t6.5 -30.5t20 -18.5q13 -4 26 4.5t23.5 23t17 33.5t5 37t-11.5 32t-32 20zM48 557q-24 27 -22.5 63.5t18 71t45 60.5t58 31.5t57 -15.5t42.5 -81
q6 -14 -0.5 -35.5t-21 -44t-35.5 -41.5t-45 -29t-49 -6.5t-47 26.5zM200 679q-13 36 -29.5 46.5t-32.5 4.5t-29.5 -25t-21 -41t-7 -43t13.5 -32q19 -4 37 3t33 20t24.5 31t11.5 36z" />
    <glyph glyph-name="quotesingle" unicode="'" horiz-adv-x="155" 
d="M66 713q9 10 20 13t20.5 1t15.5 -8t6 -14l-1 -202q-1 -7 -9.5 -12t-19 -6t-20 4t-12.5 17v207z" />
    <glyph glyph-name="parenleft" unicode="(" horiz-adv-x="332" 
d="M18 336q-5 91 12.5 172t51.5 153.5t81 138.5t101 126q20 0 25 -11t4 -32q-50 -60 -93.5 -121.5t-74 -128t-46.5 -140.5t-10 -159q-2 -53 15 -107.5t50 -102t81 -83.5t107 -52q3 -7 5.5 -16t-0.5 -16.5t-12.5 -12t-29.5 -2.5q-59 16 -108.5 58t-85 97t-55.5 118t-18 121z
" />
    <glyph glyph-name="parenright" unicode=")" horiz-adv-x="270" 
d="M193 434q-2 60 -12 121t-31.5 118.5t-56 109t-84.5 92.5q-3 5 -2 14t5.5 17t10.5 12t14 -1q55 -46 94 -104t64.5 -123.5t37.5 -136t12 -141.5q0 -34 -8 -77.5t-21.5 -90.5t-31.5 -94t-37.5 -89t-39.5 -75t-38 -52q-7 -6 -15.5 -5t-15 6.5t-9 13t2.5 14.5q8 6 23 32.5
t33 65.5t37 87t34.5 98.5t25 99t8.5 88.5z" />
    <glyph glyph-name="plus" unicode="+" horiz-adv-x="531" 
d="M86 288q-26 0 -28.5 20t15.5 38l149 34v177q-2 12 6 21.5t19 14t22 3t16 -11.5v-186l167 50q6 -1 11 -8.5t6.5 -17.5t-2 -20t-15.5 -16l-167 -55v-164q0 -14 -8.5 -21.5t-20 -10t-21.5 0t-13 10.5l-6 168z" />
    <glyph glyph-name="comma" unicode="," horiz-adv-x="124" 
d="M80 -121q-23 -11 -35.5 -6.5t-21.5 21.5q4 17 9.5 41t8.5 49.5t1.5 50t-10.5 43.5q0 16 1.5 25.5t6 14.5t14 7t24.5 2q10 -15 17.5 -34.5t9.5 -48t-3.5 -68.5t-21.5 -97z" />
    <glyph glyph-name="hyphen" unicode="-" horiz-adv-x="452" 
d="M66 265q-8 -5 -16.5 3.5t-11.5 22t2.5 27.5t25.5 19l345 11q10 0 15 -7.5t6 -19t-1.5 -23.5t-7.5 -19l-357 -14v0z" />
    <glyph glyph-name="period" unicode="." horiz-adv-x="147" 
d="M72 0q-23 0 -32.5 14.5t-7.5 31.5t15 30.5t36 12.5q19 -1 25.5 -16.5t3.5 -33t-13.5 -30.5t-26.5 -9z" />
    <glyph glyph-name="slash" unicode="/" horiz-adv-x="349" 
d="M285 830q18 14 35.5 13t18.5 -26l-258 -835q-10 -5 -20.5 -6.5t-19.5 1.5t-15 9t-6 16l265 828v0z" />
    <glyph glyph-name="zero" unicode="0" horiz-adv-x="397" 
d="M227 848q40 5 70 -28t49.5 -90.5t29 -133t8.5 -156t-12.5 -158t-34 -139t-56 -100t-77.5 -40.5q-32 -12 -63 17.5t-55.5 86.5t-42 134t-23.5 159t1 162t31 143.5t67 102.5t108 40zM227 794q-48 -1 -80 -33.5t-50.5 -85t-25 -119t-3 -135.5t16 -134.5t32 -117t43.5 -82
t52 -29.5q29 12 52 50.5t39 92.5t25.5 119.5t11.5 131.5t-3.5 128t-19.5 110t-36.5 76.5t-53.5 27.5z" />
    <glyph glyph-name="one" unicode="1" horiz-adv-x="138" 
d="M43 823q0 9 7 11.5t16 1.5t17.5 -4.5t11.5 -5.5q5 -197 4.5 -392t4.5 -394q6 -10 1 -19.5t-14.5 -15t-20.5 -4t-18 12.5z" />
    <glyph glyph-name="two" unicode="2" horiz-adv-x="449" 
d="M13 39q22 37 51 89t60 112.5t60.5 125.5t53.5 127t39 117.5t16 98.5q-6 39 -17 58.5t-34.5 13t-64.5 -43t-107 -109.5q-10 7 -19.5 15t-9.5 20q0 1 0.5 3.5t0.5 3.5q22 24 49 54t59 56.5t67.5 44t74.5 17.5q29 -14 40.5 -48t9 -81.5t-16.5 -105.5t-35 -119t-47 -122.5
t-52 -116t-50 -99.5t-42 -73l296 56q12 0 22 -13.5t12 -33.5l-381 -78q-15 0 -25 4t-10 27z" />
    <glyph glyph-name="three" unicode="3" horiz-adv-x="472" 
d="M60 43q6 3 31.5 15t60 32.5t74.5 47.5t74.5 60t59 70.5t29.5 79.5q4 28 -3 54.5t-21.5 47t-34.5 33.5t-42 15q-23 4 -46.5 -4t-46.5 -21t-45 -26t-41.5 -19t-36 -2t-28.5 27l218 217q37 42 40.5 68t-14.5 37.5t-51.5 11t-70 -11t-70.5 -29t-52 -42.5l-0.5 -3.5t-0.5 -7
t-0.5 -6.5l-0.5 -3q-14 1 -23.5 13t-7.5 26q6 24 28.5 44t53 35.5t66 26t69 15.5t60 4t39.5 -9q27 -16 33 -39.5t-2.5 -51t-27.5 -58t-42 -59t-46.5 -55t-40.5 -45.5q48 21 95.5 15.5t83.5 -31.5t55 -68.5t10 -96.5q-6 -44 -27.5 -83t-52.5 -72.5t-68 -62.5t-75 -52.5
t-74 -42t-64 -31.5q-14 -2 -23 6t-1 31z" />
    <glyph glyph-name="four" unicode="4" horiz-adv-x="573" 
d="M8 299q46 71 90 135.5t87 128.5t83.5 130.5t79.5 141.5q3 7 12 12t18.5 5.5t17.5 -3.5t9 -14l-2 -394q38 0 73.5 9t73.5 9q10 -32 -2 -43.5t-36 -14.5t-54 -4.5t-55 -12.5l2 -381q0 -10 -8 -14t-18 -4t-19.5 4t-13.5 9v376zM121 368l224 55l17 316z" />
    <glyph glyph-name="five" unicode="5" horiz-adv-x="469" 
d="M46 37q5 5 27.5 14t53 24.5t64.5 39.5t64 60.5t51 87t24 118.5q-11 51 -32.5 65.5t-55.5 -3.5t-80.5 -67.5t-106.5 -125.5q-7 1 -13.5 41t-10 112t-3.5 173t6 225l371 50q34 0 42.5 -12.5t-13.5 -44.5q-28 4 -75.5 0.5t-99.5 -10.5t-99 -16.5t-74 -16.5q-3 -101 -3 -171
t0.5 -116t1.5 -69t1 -29q24 27 46 52.5t47 46t53.5 32.5t66.5 12q23 0 39 -12.5t26 -32t14.5 -42t4.5 -41.5q-1 -79 -30 -142.5t-75 -112t-104 -82.5t-116 -53q-6 2 -10 8t-5.5 13.5t-0.5 14.5t4 10z" />
    <glyph glyph-name="six" unicode="6" horiz-adv-x="457" 
d="M171 -1q-125 23 -139.5 231t91.5 598q1 6 11 11.5t20.5 4.5t18.5 -10.5t7 -33.5q-32 -86 -52.5 -175.5t-30 -175.5t-8.5 -163.5t12 -138.5q4 34 26 79t53 89t68.5 80.5t73.5 53.5t66.5 8t49.5 -56q7 -29 -2 -69.5t-29.5 -85.5t-49 -89t-60.5 -79t-65 -57t-61 -22zM155 60
q16 -13 41.5 2t53 45.5t54.5 71.5t47 81.5t29.5 74.5t2.5 50q-8 27 -31.5 18t-54 -39.5t-61.5 -75.5t-54 -90t-32 -83.5t5 -54.5z" />
    <glyph glyph-name="seven" unicode="7" horiz-adv-x="521" 
d="M380 6q-7 22 -8.5 79.5t1 133.5t7 161.5t10.5 164t12 141t10 92.5q-45 4 -93 -3t-95.5 -20t-92 -28t-82.5 -28q-22 4 -32 17.5t-4 29.5q0 7 28.5 17t73 20.5t97.5 20.5t102.5 18t88 13t53.5 5q17 0 24.5 -13.5t2.5 -29.5q-8 -12 -15 -50.5t-12.5 -93.5t-10 -121.5
t-7 -134t-4 -132t-1 -115.5t3 -83.5t6.5 -37.5q10 -11 3 -21t-19.5 -15.5t-27 -3t-19.5 16.5z" />
    <glyph glyph-name="eight" unicode="8" horiz-adv-x="371" 
d="M179 -1q-53 5 -82.5 32.5t-40.5 67t-6.5 86t19 89t36.5 76.5t47 49q-48 23 -77.5 64.5t-42.5 90.5t-9 99.5t24 92.5t55 70t85 32t82.5 -15t49.5 -52.5t19 -78.5t-8.5 -94.5t-33 -99.5t-54.5 -94q27 -26 52.5 -66t42 -85.5t21 -91.5t-11.5 -84t-56 -62t-111 -26zM201 368
q-22 -10 -42.5 -38t-34.5 -64t-19 -75.5t4.5 -71.5t36 -51.5t75.5 -15.5q13 1 27.5 9t26 20t18.5 26t7 28q-2 41 -11 78.5t-23 68t-31 53t-34 33.5zM195 805q-36 -4 -62 -27.5t-40 -58t-16 -75.5t9.5 -79.5t37 -70t66.5 -46.5q27 22 48.5 55.5t34.5 71t16 75.5t-5.5 70.5
t-30 55t-58.5 29.5z" />
    <glyph glyph-name="nine" unicode="9" horiz-adv-x="498" 
d="M414 693q-22 -28 -48 -63t-55.5 -70t-60.5 -67.5t-63.5 -55t-65 -32.5t-64.5 -1q-8 0 -15.5 5.5t-13.5 14.5t-9.5 20t-3.5 21q0 35 14 76.5t38.5 83.5t57.5 81.5t70 69.5t77 48.5t78 18.5q55 2 79.5 -16t32.5 -52t7 -81.5t2 -104.5l-14 -578q5 -5 -3.5 -13t-20.5 -11.5
t-23 0t-12 21.5q1 28 3 81t4 118.5t4.5 137.5t4 139t1.5 122t-1 87zM73 522q-9 -37 -1.5 -49.5t26.5 -6.5t46.5 26.5t58 50t60.5 64t54.5 68t40 62.5t17.5 47q-31 17 -70.5 -0.5t-80.5 -57t-80.5 -93.5t-70.5 -111z" />
    <glyph glyph-name="colon" unicode=":" horiz-adv-x="196" 
d="M79 522q0 17 11 26.5t24 10.5t24 -7t12 -25q0 -21 -11 -31t-24 -10t-24 9t-12 27zM79 329q0 17 11 26.5t24 10.5t24 -7t12 -25q0 -21 -11 -31t-24 -10t-24 9t-12 27z" />
    <glyph glyph-name="semicolon" unicode=";" horiz-adv-x="173" 
d="M34 -92q28 39 34 77t2.5 70t-11 55.5t-7.5 34.5q0 21 8.5 29.5t19.5 8.5t21.5 -6.5t13.5 -15.5q10 -15 16 -46.5t6 -68.5t-6.5 -75t-21.5 -66q-4 -12 -14 -19.5t-21.5 -8t-22.5 6.5t-17 24zM25 334q3 23 16 34.5t27.5 12t26.5 -10.5t14 -34q1 -20 -13 -30t-30.5 -10
t-29.5 10t-11 28z" />
    <glyph glyph-name="less" unicode="&#x3c;" horiz-adv-x="509" 
d="M80 364q-18 22 -17 39.5t26 33.5l279 242q8 10 19.5 9t19 -8.5t8 -19.5t-12.5 -24l-275 -236l290 -199q11 -7 13 -19t-3 -21.5t-15.5 -13.5t-23.5 5z" />
    <glyph glyph-name="equal" unicode="=" horiz-adv-x="581" 
d="M157 222q-8 -5 -16.5 3.5t-11.5 22t2.5 27.5t25.5 19l345 11q10 0 15 -7.5t6 -19t-1.5 -23.5t-7.5 -19zM152 397q-8 -5 -16.5 3.5t-11.5 22t2.5 27.5t25.5 19l345 11q10 0 15 -7.5t6 -19t-1.5 -23.5t-7.5 -19z" />
    <glyph glyph-name="greater" unicode="&#x3e;" horiz-adv-x="429" 
d="M81 175q-14 -9 -24 -5t-15 13.5t-3 21.5t13 19l290 199l-275 236q-13 12 -12.5 24t8 19.5t19 8.5t19.5 -9l279 -242q25 -16 26 -33.5t-17 -39.5z" />
    <glyph glyph-name="question" unicode="?" horiz-adv-x="507" 
d="M200 43q0 19 7 24.5t20 5.5q19 0 32 -13.5t13 -31.5q0 -16 -11.5 -22t-26.5 -6q-6 0 -12 5t-11 12t-8 14t-3 12zM141 492q0 45 21.5 81.5t53 69.5t69 64t69 64.5t53 70.5t21.5 82q0 26 -13.5 38.5t-33.5 17t-43.5 4t-42.5 -0.5q-36 0 -68 -14t-61.5 -30.5t-58.5 -30
t-59 -13.5q-14 0 -24 3.5t-10 26.5q0 13 19 26.5t48.5 26t65.5 24t70.5 19.5t62 13t41.5 5q25 0 54 -4t53 -14.5t40 -30t16 -50.5q0 -57 -28.5 -112.5t-69 -105t-84.5 -92t-75 -75.5q-14 -7 -17.5 -21t0.5 -29t16 -29t30 -21t41.5 -4.5t51.5 19.5l21 -43q-23 -18 -54.5 -24
t-59.5 -6q-21 0 -41.5 6.5t-37 19t-26.5 30t-10 39.5z" />
    <glyph glyph-name="at" unicode="@" horiz-adv-x="1076" 
d="M29 327q0 72 24.5 152t68.5 157.5t103 147.5t129 123.5t146.5 85t154.5 31.5q65 0 120 -30.5t94.5 -79t61.5 -109.5t22 -121q0 -54 -9 -108t-33.5 -97.5t-66.5 -70.5t-108 -27q-55 0 -85.5 12t-45.5 30.5t-19 41t-7.5 43.5t-10.5 37.5t-27 23.5q-19 -32 -47 -74
t-62 -79.5t-73.5 -63.5t-82.5 -26q-26 0 -38 15.5t-12 41.5q0 31 16 72.5t42.5 85.5t61.5 87.5t73 77.5t77 55t73 21q45 0 59 -17.5t14 -55.5v-14t-2.5 -15t-9 -11t-19.5 0v-14.5t-0.5 -21.5t-0.5 -21.5v-14.5q0 -33 5 -64t19 -55t38 -38.5t63 -14.5q55 0 87.5 22t49.5 57.5
t21.5 79t4.5 85.5q0 49 -13.5 102t-42 96.5t-71.5 72t-102 28.5q-73 0 -143.5 -26t-134 -71.5t-117.5 -105.5t-93 -128.5t-61 -141t-22 -142.5q0 -84 22.5 -141t66 -91.5t107 -49.5t144.5 -15q134 0 253.5 43.5t233.5 113.5q14 9 22 21.5t15 24.5t17 20t29 8q36 0 43 -13
t-13 -47q-69 -49 -143 -90.5t-152.5 -72t-161.5 -47.5t-168 -17q-79 0 -148.5 18t-122 57t-83 101t-30.5 151zM569 725q-31 0 -64 -17.5t-65 -46.5t-60 -66t-49.5 -75.5t-34 -75.5t-12.5 -66q20 0 41 11.5t40.5 28t35.5 34.5t26 31q8 11 27 39t39 60t38 60.5t24 40.5h51
q0 17 -9 29.5t-28 12.5z" />
    <glyph glyph-name="A" unicode="A" horiz-adv-x="601" 
d="M-1 0q7 23 22.5 76t40.5 151.5t61.5 250.5t85.5 374q6 10 17 13.5t22 2t18.5 -7t6.5 -12.5l197 -479l102 31q13 0 22 -7t10 -17t-7 -21.5t-28 -18.5q-8 -3 -21 -6.5t-26 -6.5t-22 -6t-9 -6l111 -296q-2 -5 -4 -12.5t-8 -12t-18 -3t-34 14.5l-115 294q-21 -6 -52 -11.5
t-65 -11t-68.5 -13t-63.5 -18.5t-49 -26.5t-24 -37.5q-2 -14 -7.5 -46t-10.5 -64q-6 -38 -14 -82q-18 -18 -32.5 -12t-37.5 26zM250 742l-106 -445q17 6 47 13t65 15t70.5 16t64.5 17z" />
    <glyph glyph-name="B" unicode="B" horiz-adv-x="567" 
d="M37 744q-5 17 -7.5 30.5t-0.5 29.5q1 5 2.5 11t5 9.5t9.5 5t16 -2.5q6 -3 12 -10.5t10.5 -17.5t7.5 -19t4 -15q27 16 60 32.5t68.5 28t71.5 17t69 1.5q11 -1 25.5 -5.5t27 -12t21 -18t6.5 -24.5q0 -27 -11.5 -56t-29.5 -58t-40.5 -57t-44 -52.5t-40.5 -44.5t-29 -33
q34 13 80 22.5t90.5 6.5t80 -22t47.5 -62q3 -26 -10 -58.5t-37 -67.5t-56.5 -70.5t-68 -68.5t-71.5 -61t-66.5 -48.5t-53.5 -31t-33 -8.5l-24 40q5 -1 32 16.5t64.5 46t80.5 65t80.5 73.5t63.5 71.5t30 60.5q5 35 -18.5 50.5t-63.5 15.5t-89 -13.5t-93 -35t-77 -49.5
t-41 -58q-4 -31 -5 -64t-1.5 -66.5t-1 -66.5t-4.5 -63q-3 -22 -8.5 -36t-29.5 -10q-2 0 -7 1t-5 2zM98 666q-3 -20 -4.5 -51t-1.5 -64t2.5 -64t7.5 -52q18 15 49.5 42t67 60.5t69.5 70.5t56.5 71.5t28.5 63t-14 45.5q-18 2 -43.5 0.5t-53.5 -7t-56 -15.5t-51 -24.5
t-38.5 -33.5t-18.5 -42z" />
    <glyph glyph-name="C" unicode="C" horiz-adv-x="541" 
d="M28 199q0 36 7.5 98t22 134t37.5 145.5t54 133t70.5 97.5t87.5 38q27 0 46.5 -10t32.5 -27t19 -39t6 -47q-27 -13 -41 -6t-22.5 21.5t-16.5 30.5t-23 20q-36 0 -66 -34.5t-54 -87.5t-42 -118t-30 -126.5t-18 -111.5t-6 -74q0 -32 2.5 -61.5t13 -52.5t31.5 -36.5t59 -13.5
q45 0 88.5 26t80 65t64 83.5t39.5 80.5q2 1 10 1.5t10 0.5q13 0 25 -3t12 -20q-7 -36 -31.5 -75.5t-58 -77t-73 -70t-77.5 -54.5t-70.5 -30.5t-52.5 1.5q-36 0 -62 20.5t-42.5 50.5t-24 64.5t-7.5 63.5z" />
    <glyph glyph-name="D" unicode="D" horiz-adv-x="631" 
d="M179 37q-1 10 25 37t66 66t87.5 89.5t89.5 109t71.5 123t33.5 131.5q0 31 -17 55.5t-43.5 44t-60.5 33.5t-67.5 23.5t-64.5 14t-52 4.5q-5 0 -14.5 -0.5t-21.5 -3t-24.5 -6t-22.5 -9.5l46 -608q5 -11 -0.5 -24t-16 -22t-22.5 -9.5t-19 13.5l-49 623q-3 -2 -11.5 -6
t-17.5 -8.5t-17 -9t-11 -5.5q-1 0 -3.5 -0.5t-3.5 -0.5q-6 0 -13.5 3t-7.5 13q0 17 7.5 27.5t19 19.5t25 17.5t25 22.5t19 35t7.5 54q22 0 27.5 -8t6.5 -18.5t3 -21t16 -15.5q31 3 76 2t94 -10t97 -25.5t86 -44.5t60 -67.5t19 -92.5q-8 -82 -42 -158.5t-86.5 -148.5
t-121.5 -140.5t-147 -135.5q-1 0 -3.5 -0.5t-3.5 -0.5q-10 0 -16.5 14t-6.5 24z" />
    <glyph glyph-name="E" unicode="E" horiz-adv-x="544" 
d="M48 22q0 96 3.5 196t3 201.5t-8.5 201.5t-30 196q0 5 4 12.5t10 13.5t13.5 9.5t15.5 0.5q13 -5 21.5 -19.5t13 -31.5t6 -32.5t1.5 -22.5l385 96q9 -2 14.5 -10.5t5 -19t-7 -20.5t-19.5 -14l-379 -103q0 -65 3.5 -129t8.5 -130l278 97l6 6t14.5 10t18 3t18.5 -15
q0 -20 -24 -36.5t-59.5 -30.5t-77 -26.5t-77 -25.5t-59.5 -26.5t-24 -28.5l-7 -263q15 -9 43.5 -5.5t63.5 13.5t74 24.5t75 27.5t66.5 23t49.5 11q9 -1 16 -6.5t10 -12.5t0.5 -14.5t-13.5 -12.5q-39 -17 -94 -38t-113.5 -40.5t-113.5 -34t-93 -17.5q-14 2 -22.5 6.5
t-19.5 16.5z" />
    <glyph glyph-name="F" unicode="F" horiz-adv-x="486" 
d="M30 824q0 12 7 17t17 7t21 2t19 1v-106q73 22 121 39.5t87 31t76 25t88 22.5q8 0 11 -8t3 -14q0 -13 -14 -21l-368 -135l17 -324q82 46 138.5 78t93.5 53t57.5 32t30.5 16l12 6t3 1q9 3 12 -0.5t3 -10.5t-2.5 -16t-5.5 -17q-5 -7 -32.5 -24t-65.5 -39t-80.5 -46.5
t-79 -45.5t-60.5 -37t-24 -21l3 -261q0 -14 -5 -22t-16 -8q-12 0 -21.5 31.5t-16.5 84t-12 121t-8 141.5t-5 145.5t-3 133.5t-1 106v62z" />
    <glyph glyph-name="G" unicode="G" horiz-adv-x="667" 
d="M509 221q-29 -35 -70 -73t-88 -69t-96 -50t-93 -17.5t-80.5 28t-57.5 88.5q-13 44 -9.5 103t20 124.5t45 133t67 128.5t86 112.5t101 84t112.5 43t121 -10.5q8 0 10 -3.5t1 -9.5t-3.5 -15t-2.5 -21q-73 10 -139 -13.5t-122.5 -70.5t-101.5 -112t-75.5 -138t-44.5 -148.5
t-9 -143.5q4 -58 34 -78.5t73.5 -14t94.5 35t98.5 70t85 90.5t53.5 96h-180q-15 21 -3 32t41.5 15.5t70.5 4.5t84 -2q13 3 36 12.5t44 15.5t33.5 3t3.5 -24q-1 -2 -7 -6.5t-13.5 -9t-14 -8.5t-8.5 -5q-24 -47 -34 -110t-11 -131t4.5 -135t13.5 -121l-38 -13q-10 15 -16.5 58
t-10.5 95t-5 101.5t0 78.5z" />
    <glyph glyph-name="H" unicode="H" horiz-adv-x="466" 
d="M391 466q-8 -5 -29 -13.5t-48.5 -18.5t-58 -21t-58 -21.5t-49 -19t-29.5 -14.5q-18 -13 -27 -36.5t-13 -53t-4 -63t2 -65.5t4.5 -61t3.5 -49q-1 -16 -11.5 -28.5t-26.5 -12.5q-6 0 -14 3t-7 11l-3 817q0 14 6 20.5t15 7t19 -3.5t18 -10q1 -44 1 -101t0.5 -115t3 -112
t9.5 -92q49 21 100 35.5t92.5 34t68.5 50t30 82.5q2 27 2 48t-1.5 42t-6 44.5t-11.5 55.5q0 20 8.5 25.5t21.5 5.5q14 0 21.5 -7t11 -17.5t4.5 -23.5t1 -24q1 -17 2 -53t2 -80.5t2.5 -94.5t2.5 -94.5t2 -80.5t1 -53q1 -21 1 -56v-73t-1 -73.5t-2 -56.5q-1 -9 -1.5 -18
t-3 -17t-9 -14t-19.5 -9q-20 13 -21.5 31t-2.5 39q0 12 0.5 43.5t0.5 72.5t0.5 86.5t0.5 86v72t-1 43.5z" />
    <glyph glyph-name="I" unicode="I" horiz-adv-x="144" 
d="M31 838q4 6 12.5 8.5t17.5 1.5t17.5 -5t11.5 -9l15 -820q0 -12 -6 -17t-14.5 -5.5t-17.5 2.5t-15 9z" />
    <glyph glyph-name="J" unicode="J" horiz-adv-x="466" 
d="M12 193q4 20 11 29t14 9.5t12 -5.5t4 -15q-2 -27 12.5 -59t40 -62t59.5 -54t70 -34.5t71.5 -4t64.5 37.5q12 20 16 61t1.5 95.5t-10 118t-17 128t-19.5 126t-18.5 111.5t-14 84.5t-4.5 45.5q-5 10 0 21.5t14.5 18.5t21 6t20.5 -16q14 -81 29 -170t28 -180t21 -180.5
t8 -171.5q0 -44 -7.5 -81.5t-26.5 -65.5t-51.5 -44t-81.5 -16q-28 0 -60.5 13.5t-64.5 35.5t-61 50.5t-49.5 58t-30 58t-2.5 51.5z" />
    <glyph glyph-name="K" unicode="K" horiz-adv-x="523" 
d="M19 807q1 12 6 22t12.5 15.5t15.5 5t16 -9.5q4 0 6.5 -7.5t3.5 -27t1.5 -53.5t0.5 -87t0.5 -127.5t1.5 -174.5q4 7 21.5 35.5t44.5 70t60.5 90t69 96.5t71 90t65.5 68.5t53.5 34t34.5 -13.5q-87 -112 -154 -195t-115.5 -149.5t-81 -122.5t-51.5 -114l419 -202
q-2 -17 -11.5 -32t-31.5 -13l-389 181q3 -16 2.5 -38.5t-2 -46.5t-4.5 -46t-4 -36q2 -21 -14.5 -28t-32.5 7z" />
    <glyph glyph-name="L" unicode="L" horiz-adv-x="611" 
d="M54 43q-3 214 -7 356.5t-7 231t-5 131t-2 55.5q0 15 8.5 24t18.5 8.5t19 -11t10 -33.5l32 -733l434 92q67 0 29 -57l-502 -107q-28 0 -28 43z" />
    <glyph glyph-name="M" unicode="M" horiz-adv-x="742" 
d="M589 739q-4 2 -12.5 -25t-21.5 -70t-28.5 -97t-33 -107t-35.5 -99t-35.5 -73t-33 -29.5t-28.5 31.5q-16 24 -36 66t-42.5 91t-47 101.5t-49.5 97.5t-49 78.5t-46 46.5q0 -78 9 -171t19.5 -188.5t19.5 -188.5t9 -172q5 -10 0.5 -20t-13.5 -15t-21 -2t-22 18
q-14 100 -20 204t-12 209t-14.5 209t-25.5 205q-1 20 7 25t20 5q45 -13 81 -47.5t65.5 -81t54 -101.5t48.5 -109.5t48 -104t53 -85.5q4 0 7.5 3.5t9.5 19t17 47.5t29.5 89t46.5 143.5t68 210.5q2 6 10 10.5t17.5 4.5t17.5 -6.5t11 -22.5q10 -92 18.5 -194.5t18.5 -209.5
t23 -216.5t32 -215.5q-2 -14 -9 -19.5t-17 -4.5t-21.5 6.5t-21.5 13.5z" />
    <glyph glyph-name="N" unicode="N" horiz-adv-x="584" 
d="M27 841q11 16 26.5 9.5t29 -20t21.5 -27t4 -12.5l367 -627q3 15 5.5 48.5t3.5 79t0.5 99.5t-2 108t-4.5 106t-7 93.5t-9 69t-12 33.5q0 16 6 30.5t24 14.5q17 0 28 -20t17 -45t8.5 -49t2.5 -31q1 -20 1.5 -63.5t1 -99.5t1 -117.5t1 -117.5t0.5 -100t1 -64q1 -28 7.5 -49
t6.5 -48q0 -22 -16.5 -33t-36.5 -11q-11 0 -19.5 3t-13.5 10t-5.5 18.5t4.5 28.5q-18 21 -46 70.5t-61.5 112t-70 131.5t-70 130.5t-62.5 107.5t-47 63q-5 -65 -3 -150.5t7 -175t10.5 -174.5t5.5 -150q0 -21 -12 -26.5t-25 -2.5t-22 10.5t-3 11.5z" />
    <glyph glyph-name="O" unicode="O" horiz-adv-x="567" 
d="M22 253q-1 126 26 229.5t71 180.5t98.5 124.5t108.5 60.5t102 -10t78 -87q27 -57 37 -132.5t3.5 -156t-29.5 -158.5t-62.5 -141.5t-94.5 -105t-126 -48.5q-56 -3 -96 22.5t-65.5 64t-38 82t-12.5 75.5zM234 737q-17 -14 -38 -49t-41 -83.5t-36.5 -105.5t-26 -115t-9 -113
t15.5 -99.5t46 -74t83 -36.5q40 -5 80.5 26t74.5 84t59.5 120.5t37.5 134.5q10 60 10 117.5t-11 105.5t-32 83t-52 50t-71.5 5.5t-89.5 -50.5z" />
    <glyph glyph-name="P" unicode="P" horiz-adv-x="558" 
d="M79 13q0 103 3.5 196t6.5 178t4 163.5t-5 152.5q-5 -3 -11.5 -10l-13 -14t-13.5 -12.5t-12 -5.5q-8 0 -14.5 6.5t-6.5 16.5v3q0 1 1 3q9 11 21.5 35t27 48t28 42.5t23.5 18.5t15 -5t8.5 -12t7 -15t11.5 -13q34 20 74 34.5t80.5 20t78.5 2t69.5 -18.5t53.5 -43t29 -70
q-1 -55 -32 -103t-76 -87.5t-97 -70t-96 -53t-72 -35.5t-26 -16l-13 -334q0 -8 -7 -11.5t-16 -3t-18 4t-13 8.5zM146 419q51 19 106 44t103 57.5t84.5 74t49.5 95.5q-8 57 -44.5 82.5t-87 26t-107 -21t-104.5 -59.5v-299z" />
    <glyph glyph-name="Q" unicode="Q" horiz-adv-x="564" 
d="M210 855q5 0 13 -1t14.5 -4.5t9.5 -9.5t-1 -15q18 9 32 14.5t26.5 9t25 4.5t29.5 1q39 0 67 -23.5t47.5 -62.5t31 -90t15.5 -107t2.5 -113t-8 -108t-17.5 -92.5t-24 -66.5q0 -1 1.5 -4l8 -16t21 -39.5t41.5 -74.5q5 -11 3 -20t-9 -15.5t-17 -8.5t-20 1q-14 24 -31 49.5
t-40 50.5q-15 -19 -33 -39.5t-39.5 -37t-45.5 -27.5t-51 -11q-44 -1 -82.5 26t-69 74t-51.5 110t-29.5 133t-3.5 143.5t26.5 141.5t60 127t97.5 101zM297 402q-4 -4 -5 6.5t3 21.5t14.5 15.5t30.5 -11.5l6.5 -13.5t16.5 -33t22 -42.5t22 -43t17 -33l7 -13q15 40 24.5 96
t12 116t-3 118.5t-20 105.5t-38.5 76.5t-60 30.5q-70 7 -120 -18t-82 -71t-48 -108t-17.5 -129.5t9.5 -134t32.5 -122t52 -95t67 -51.5t78.5 8t87 84z" />
    <glyph glyph-name="R" unicode="R" horiz-adv-x="573" 
d="M28 837q3 7 12.5 11t20 4t18.5 -5.5t10 -17.5l6 -55q19 4 45 16.5t60.5 24.5t77.5 20t96 2q82 -16 119 -38t39.5 -48.5t-22 -57t-65.5 -61.5t-92 -63t-99.5 -61.5t-90 -56t-62.5 -48.5l469 -282q0 -16 -13 -30.5t-30 -12.5l-441 254v-332q-12 -10 -20.5 -13t-13.5 -2
t-9 5.5t-7 9.5zM95 699q-2 -20 -3 -48t-1 -59.5v-62v-54.5q5 5 31.5 18.5t64.5 33.5t81.5 44.5t82.5 50.5t68.5 51.5t38 47.5t-9 39.5t-71.5 27.5q-30 2 -70.5 -2t-81 -14.5t-75.5 -28.5t-55 -44z" />
    <glyph glyph-name="S" unicode="S" horiz-adv-x="607" 
d="M104 30q1 6 28.5 15t68.5 21.5t91 29t96.5 37.5t83.5 46.5t54 56.5q0 16 -22 25t-58 15t-82 10t-94.5 11t-94.5 18t-82 30.5t-58 49t-22 73.5q0 43 19.5 87.5t51.5 86.5t73.5 79t86.5 65t89 44t82 16q10 0 21 0.5t19.5 -1.5t14 -8.5t5.5 -19.5q0 -32 -21 -46t-51 -14
l-43 14q-25 0 -56.5 -14.5t-63.5 -39t-62.5 -56t-54 -65t-38 -67t-14.5 -60.5q0 -34 22 -55.5t58 -34.5t82.5 -19.5t94.5 -11.5t94.5 -11t82.5 -16.5t58 -29t22 -49.5q0 -30 -24 -60t-63 -57.5t-89.5 -51t-101.5 -40t-99.5 -25.5t-83.5 -8q-10 0 -17 7t-3 23z" />
    <glyph glyph-name="T" unicode="T" horiz-adv-x="678" 
d="M344 769q-39 5 -78 1.5t-77.5 -8.5t-77.5 -9.5t-78 -1.5q-11 1 -22.5 5t-9.5 21q1 11 11 22t21 10l301 18q1 5 4 14.5t8 18.5t12 15.5t16 5.5q13 -1 20.5 -8.5t12.5 -16t9 -15.5t10 -8q161 0 331 6q3 0 16 -0.5t18 -1.5q6 -17 -12.5 -26.5t-53 -14.5t-78.5 -7t-87.5 -3
t-82 -3t-60.5 -6q-8 -52 -9 -112t0.5 -124t5.5 -130t7.5 -130t4.5 -124t-3 -112q6 -32 -5.5 -36.5t-43.5 0.5q-8 41 -12 99.5t-6 127t-2 142t-1 144.5t-2.5 134.5t-6.5 112.5z" />
    <glyph glyph-name="U" unicode="U" horiz-adv-x="581" 
d="M475 296q-11 -41 -27 -92t-41 -96t-60.5 -76t-85.5 -31q-52 13 -89.5 51t-63.5 92t-42 119.5t-24.5 134t-11 135t-2 122.5t3 96.5t4.5 57.5q-3 16 7 24t23 9t24.5 -4t12.5 -13q-20 -147 -20.5 -259t11.5 -195.5t34.5 -140.5t48 -93.5t52.5 -55t48 -24.5q34 3 60.5 35.5
t46.5 84t34.5 116.5t24.5 134t16 136.5t9 122.5t3.5 93.5t-0.5 49.5q7 12 16.5 16t18 3t15.5 -6.5t10 -12.5q1 -26 -4.5 -96.5t-7 -177t6.5 -245t37 -298.5q0 -10 -6.5 -15t-15.5 -6.5t-19 -1t-17 1.5l-30 305v0z" />
    <glyph glyph-name="V" unicode="V" horiz-adv-x="597" 
d="M7 823q-3 13 3.5 20.5t16.5 8t21 -6.5t18 -22l247 -734l214 753q3 10 12.5 12.5t19.5 0t18 -10t7 -16.5l-232 -815q-29 -15 -46 -12.5t-29 12.5l-270 810v0z" />
    <glyph glyph-name="W" unicode="W" horiz-adv-x="929" 
d="M13 822q0 15 5.5 21.5t14 8t18 -0.5t17.5 -5l175 -770q4 4 16.5 38t29 85.5t36.5 114.5t39.5 126.5t36.5 120.5t29 97q7 15 17.5 22.5t22.5 7.5t23 -6t18 -18l198 -578l150 750q5 9 13.5 14.5t16.5 5.5t15.5 -7.5t11.5 -26.5l-169 -800q-2 -4 -9.5 -10.5t-18 -8.5
t-22.5 4t-21 27l-206 568l-186 -588q-9 -12 -23 -14.5t-27 0.5t-23 8.5t-11 8.5z" />
    <glyph glyph-name="X" unicode="X" horiz-adv-x="509" 
d="M65 1l-8.5 -2.5t-18.5 0t-16.5 14t-1.5 39.5l192 344l-213 407q-3 23 10 32.5t34 4.5l210 -377q6 9 21 36.5t35 65t42 81t43 84t38.5 73.5t27.5 50q6 1 14 -1t15 -6t10.5 -10.5t0.5 -15.5l-215 -420l215 -360q7 -15 2 -26.5t-15 -16.5t-21.5 -3t-17.5 14l-195 336
l-184 -332z" />
    <glyph glyph-name="Y" unicode="Y" horiz-adv-x="526" 
d="M305 337l-309 406q0 13 14 20.5t25 7.5l293 -358q4 8 14.5 36t24.5 67t30 85.5t30.5 92.5t25.5 86.5t16 68.5q7 7 15.5 5t16 -8t12.5 -14.5t5 -14.5q-35 -105 -59 -178t-40 -123.5t-25.5 -81.5t-15 -52t-9.5 -35.5t-8.5 -30.5t-11 -38t-18.5 -58t-31 -90.5t-47 -135.5
h-30.5t-15.5 15z" />
    <glyph glyph-name="Z" unicode="Z" horiz-adv-x="541" 
d="M442 794l-413 -6q-10 3 -15.5 9t-7 13.5t1.5 14.5t10 10q0 1 20.5 2.5t55 3t78 2.5t89 2.5t90 2t79.5 1t57.5 1t24.5 0.5l4 -47l-430 -740h432q9 -4 13.5 -13t3 -18.5t-8 -16.5t-18.5 -7l-462 1q-11 0 -16.5 7t-8 17t-3 21.5t-0.5 20.5z" />
    <glyph glyph-name="bracketleft" unicode="[" horiz-adv-x="449" 
d="M36 -71q-9 170 -14 299.5t-7 226t-2 163.5t1 111t3 68.5t4 36.5t3.5 15.5t1.5 4.5q-5 24 14 38t52 21.5t75.5 9.5t84 2.5t78 0t58.5 2.5q13 -2 18.5 -12t4 -20.5t-7.5 -17t-15 -1.5q-10 -1 -34 -1.5t-55 -1t-66 -1.5t-66 -3.5t-55 -7t-34 -11.5q0 -1 -1.5 -10.5t-2.5 -40
t-1.5 -89.5t2 -158.5t8 -247.5t15.5 -357l293 20q5 0 11.5 -7t10 -16.5t2 -19t-12.5 -12.5l-323 -27q-8 -2 -15.5 2.5t-13.5 12t-10 15.5t-4 13z" />
    <glyph glyph-name="backslash" unicode="\" horiz-adv-x="457" 
d="M11 817q-5 8 0.5 18t14.5 15t19.5 2.5t17.5 -18.5l377 -794q7 -15 4.5 -26.5t-10 -17.5t-18 -4.5t-19.5 13.5l-386 812v0z" />
    <glyph glyph-name="bracketright" unicode="]" horiz-adv-x="440" 
d="M386 -71q0 -5 -4 -13t-10 -15.5t-14 -12t-15 -2.5l-323 27q-11 3 -12.5 12.5t2 19t10 16.5t11.5 7l293 -20q10 209 15.5 357t8 247.5t2 158.5t-1.5 89.5t-2.5 40t-1.5 10.5q-10 7 -34 11.5t-55 7t-66 3.5t-66 1.5t-55 1t-34 1.5q-9 -5 -15 1.5t-7.5 17t3.5 20.5t19 12
q21 -3 58 -2.5t78.5 0t84 -2.5t75.5 -9.5t52 -21.5t14 -38q0 -1 1.5 -4.5t3.5 -15.5t4 -36.5t3 -68.5t1 -111t-2 -163.5t-7 -226t-14 -299.5z" />
    <glyph glyph-name="asciicircum" unicode="^" 
d="M127 489q-7 -6 -17 -6.5t-19.5 3t-16 11t-4.5 17.5l98 183q1 3 8 8t15 7.5t15.5 1t11.5 -10.5l122 -173q9 -11 4.5 -20t-14.5 -14.5t-22 -7t-18 3.5l-89 135z" />
    <glyph glyph-name="underscore" unicode="_" horiz-adv-x="697" 
d="M658 69q15 -2 21.5 -10.5t6.5 -18.5t-5 -20t-14 -14q-149 -1 -251.5 -2.5t-169.5 -2t-103.5 -1t-53.5 -0.5h-20.5h-3.5q-7 0 -12.5 7t-9 17t-4.5 21.5t1 20.5z" />
    <glyph glyph-name="a" unicode="a" horiz-adv-x="440" 
d="M366 10q-14 21 -17.5 55t-4 71.5t0 74t-5.5 62.5q-47 -103 -88.5 -160.5t-76 -82t-62.5 -22t-47.5 20t-30.5 43t-12 48.5q-7 38 -0.5 91.5t23 110.5t42 111.5t58 94.5t69.5 59.5t77 6.5q20 2 33.5 -1.5t22.5 -14.5t13 -30.5t6 -49.5q-2 -97 5.5 -165t17.5 -120t19.5 -94
t11.5 -87q0 -16 -8 -24.5t-18 -11t-18.5 1.5t-9.5 12zM308 515q-24 32 -52 27t-55.5 -34.5t-52.5 -77t-43 -101.5t-26.5 -107.5t-3.5 -94.5q14 -45 34 -54t43 6.5t47 49.5t46 73.5t39.5 79t28.5 66.5z" />
    <glyph glyph-name="b" unicode="b" horiz-adv-x="472" 
d="M45 2q-6 88 -8.5 170t-3.5 177t-2 213t-4 277q13 0 24.5 1.5t20 0.5t13.5 -6.5t5 -20.5q0 -41 0.5 -79.5t0.5 -84.5t0.5 -105t0.5 -140q39 51 71.5 81.5t61.5 46t56.5 19t55.5 0.5q32 0 53 -13.5t33.5 -36t17.5 -51.5t5 -60q-1 -22 -3 -47.5t-11.5 -55t-29.5 -61.5
t-56.5 -67.5t-92 -73.5t-135.5 -78q-26 -7 -40.5 -9t-22 -1.5t-9 2t-1.5 2.5zM95 66q5 4 28 15t55 29t68 44t67.5 60.5t53.5 78.5t26 98q0 15 -4.5 33t-14 33.5t-24 26t-34.5 10.5q-41 0 -74.5 -20.5t-60.5 -51.5t-47.5 -67.5t-34.5 -68.5z" />
    <glyph glyph-name="c" unicode="c" horiz-adv-x="420" 
d="M29 256q3 41 7 83t12 81.5t21 74.5t33.5 61t50 41t70.5 14q28 0 43 -23.5t21.5 -56.5t7 -68t0.5 -57q-15 -6 -25.5 0t-17 19.5t-11.5 31.5t-8.5 36t-8 34t-10.5 26q-18 8 -35 -5t-31 -37.5t-25.5 -58.5t-19.5 -68.5t-13 -66.5t-5 -54q1 -30 6 -64.5t16 -64.5t29 -51.5
t46 -27.5q38 0 64.5 12.5t44 32t27.5 43.5t16 48.5t9.5 46t7.5 35.5q26 7 40.5 -1t14.5 -19q0 -46 -16 -91.5t-45.5 -81.5t-71.5 -58t-95 -22q-45 0 -74 28.5t-45.5 68.5t-23 84t-6.5 75z" />
    <glyph glyph-name="d" unicode="d" horiz-adv-x="397" 
d="M315 192q-11 -25 -33 -58t-51 -62t-63.5 -49.5t-71.5 -20.5q-16 0 -25.5 4t-17 11.5t-13.5 18.5t-15 25q-9 50 -9.5 111t10 123t32 118.5t56 96.5t83 57.5t112.5 2.5q6 63 1 126.5t-8 132.5q0 10 9 14.5t20.5 6t22 0.5t13.5 -4q-1 -90 -1.5 -165t-0.5 -141.5v-128.5
t0.5 -127t1 -137t0.5 -158q5 -16 -2.5 -27t-18.5 -14t-22.5 3t-14.5 23zM267 515q-38 6 -71.5 -20.5t-59.5 -72t-43 -102t-21.5 -109t4.5 -94.5t35 -58q25 0 49 17.5t45.5 44.5t40 60.5t32.5 65.5t21.5 58.5t7.5 40.5v39t-3.5 57t-12 51t-24.5 22z" />
    <glyph glyph-name="e" unicode="e" horiz-adv-x="472" 
d="M60 267q-7 -6 -24.5 -4.5t-32 7.5t-19.5 16.5t12 24.5q7 6 15.5 8.5l17 5t14 7.5t6.5 16q1 45 7.5 92t24.5 84t51.5 59t88.5 17q20 0 45 -9.5t48 -25t40 -37t21 -46.5q7 -10 -8 -25t-42 -33.5t-61 -37.5t-65.5 -36t-55.5 -30t-31 -18q6 -39 13 -82t20 -79t32.5 -59.5
t49.5 -23.5q44 -3 75.5 13t52.5 42t33.5 57t19 59t9 47.5t4.5 21.5q11 6 25 0.5t16 -29.5q1 -39 -17 -89t-49.5 -92t-75 -67.5t-92.5 -17.5q-51 1 -81 29.5t-47.5 69t-25.5 85.5t-14 80zM322 482q-32 44 -65 56t-68 7q-21 -3 -37 -19.5t-26 -42t-14 -57t-1 -64.5z" />
    <glyph glyph-name="f" unicode="f" horiz-adv-x="374" 
d="M17 388q-20 -1 -28 4t-9 12.5t3 16t9 15.5l121 54q-6 69 -6.5 138t11.5 123.5t39.5 86t77.5 25.5q24 0 45 -15.5t36.5 -38.5t25 -50t9.5 -49q-1 -10 -7 -15.5t-13 -7t-14.5 0t-11.5 5.5q-4 36 -12.5 59t-19 36.5t-21.5 18.5t-19 5q-32 -1 -47.5 -23t-21.5 -61.5t-4.5 -95
t4.5 -123.5l216 78q11 -7 15 -17.5t-10 -31.5l-217 -89l30 -435q-2 -8 -10 -13.5t-18 -7t-18.5 3t-10.5 17.5l-23 417z" />
    <glyph glyph-name="g" unicode="g" horiz-adv-x="460" 
d="M85 -259q74 4 126 31.5t86 72.5t51 105t22 130q3 45 3.5 79.5t-1 63t-3.5 54.5t-4 54t-3.5 60.5t-1.5 74.5q-48 -141 -90 -227t-78.5 -130t-66 -53t-51.5 3.5t-36 41t-19 58.5q2 50 19 110.5t45 119t65 109t80 80.5t88.5 34t91.5 -31q1 1 2.5 -22t4 -62t5 -90.5
t5.5 -107.5t5.5 -112t5.5 -104q1 -93 -28 -171t-77.5 -132t-111 -79t-128.5 -12q-3 0 -9.5 4t-10 11t-1.5 16.5t15 20.5zM72 158q11 -36 29 -35.5t40.5 26t47.5 69.5t50.5 96.5t49.5 107t45 100.5q0 12 -5.5 22.5t-24.5 6.5q-31 -6 -60.5 -30.5t-55.5 -59t-47.5 -76
t-36.5 -83t-23.5 -79.5t-8.5 -65z" />
    <glyph glyph-name="h" unicode="h" horiz-adv-x="506" 
d="M423 12q3 34 5 86t1.5 111t-3.5 118.5t-9.5 107.5t-17 79.5t-25.5 34.5q-32 10 -61.5 -5.5t-55.5 -49t-48 -80t-40.5 -98t-33 -103t-23.5 -94.5t-13.5 -73.5t-3.5 -39.5q-7 0 -17.5 -2.5t-20.5 -4t-17.5 1t-7.5 12.5l-17 823q0 9 8 11.5t18 1.5t19 -5t12 -8l5 -632
q6 17 15.5 55t24.5 85t37 96.5t53.5 89t75 62.5t100.5 18q18 -10 32.5 -25.5t26 -43t20 -69.5t14.5 -105t9.5 -151t4.5 -206q-3 -7 -12 -13.5t-19.5 -8.5t-20.5 3t-15 21z" />
    <glyph glyph-name="i" unicode="i" horiz-adv-x="127" 
d="M34 614q6 3 14 5t15.5 2t14.5 -3t11 -11q0 -65 1.5 -140.5t4 -153t4.5 -152.5t4 -139q1 -15 -8 -23t-19.5 -8t-19.5 7.5t-9 23.5zM22 818q0 13 9 17.5t20 4.5q22 0 27.5 -14.5t5.5 -33.5q-6 -12 -16 -17t-20.5 -2t-18 14t-7.5 31z" />
    <glyph glyph-name="j" unicode="j" horiz-adv-x="109" 
d="M-212 -229q-6 7 -4 19.5t8 22t15.5 12t19.5 -11.5q28 -38 60 -55.5t60.5 -9.5t50.5 45t30 109q6 70 6 152.5t-2 169.5t-3.5 175.5t1.5 169.5q3 7 11 11.5t17 4.5t17.5 -3.5t11.5 -12.5q-2 -91 -1 -172.5t2.5 -161.5t1 -162.5t-6.5 -176.5q1 -33 -10 -68t-31 -64
t-47.5 -48.5t-60.5 -22.5t-70 14.5t-76 63.5zM49 690q-18 3 -23 12.5t-0.5 20t15 18.5t23.5 7q11 0 13 -11t2 -17q0 -30 -30 -30z" />
    <glyph glyph-name="k" unicode="k" horiz-adv-x="429" 
d="M24 833q23 23 36.5 19t20.5 -27l2 -557l259 350q17 0 28.5 -5.5t11.5 -25.5l-264 -364l294 -146q3 -4 7.5 -13.5t4.5 -19t-7 -18t-26 -9.5l-302 158v-163q-7 -17 -15 -22t-16 -3.5t-15.5 7.5t-13.5 11z" />
    <glyph glyph-name="l" unicode="l" horiz-adv-x="127" 
d="M36 834q6 4 12.5 8.5t13.5 6t12.5 -1.5t9.5 -13l6 -825q-5 -10 -13 -13.5t-16 -2t-14.5 6.5t-8.5 12z" />
    <glyph glyph-name="m" unicode="m" horiz-adv-x="638" 
d="M36 9q-2 20 -3.5 64.5t-3 102t-2.5 122.5t-3.5 125.5t-7 112.5t-10.5 83q0 25 15.5 28.5t35.5 -0.5q9 -75 12.5 -136t5 -108.5t3 -82t6.5 -55.5q12 93 25 158t27.5 106.5t31.5 61t37 22.5q18 2 34 -28.5t29.5 -77.5t24 -101.5t16.5 -100.5q34 101 56.5 160t39.5 89.5
t31.5 38.5t32.5 7q24 -1 38.5 -20.5t22.5 -52t11.5 -75t6 -89.5t7 -95.5t13.5 -92.5t25 -81.5t43 -61.5q-9 -18 -21 -30.5t-25 -4.5q-29 19 -46.5 64.5t-28.5 103.5t-16 120.5t-9 114.5t-8.5 86t-12.5 35q-29 4 -59.5 -91t-79.5 -282q-5 -13 -12 -18.5t-14 -5.5t-14 4.5
t-12 11.5q-14 76 -23.5 146t-17.5 124t-16.5 87t-18.5 35q-9 2 -17.5 -19.5t-16.5 -59t-16.5 -89t-17.5 -110.5t-19 -121.5t-22 -123.5q-4 -8 -12 -12.5t-16.5 -4.5t-16.5 4t-12 13z" />
    <glyph glyph-name="n" unicode="n" horiz-adv-x="466" 
d="M20 596q1 10 8 16t16 7.5t18 -2t15 -10.5l-3 -400q19 72 34.5 142.5t38.5 128t58 95t93 42.5q31 3 54 -18.5t39.5 -58.5t27.5 -86.5t17.5 -103t9.5 -107.5t4 -100t0.5 -81t-1.5 -51q-7 -17 -24.5 -22.5t-31.5 14.5q-1 19 -1 65.5t-1.5 106.5t-6 125.5t-15 121t-29 93
t-47.5 42.5q-25 4 -48.5 -27t-45 -82t-40 -115t-33 -126t-24.5 -114t-13 -80q-3 -8 -12 -13t-19.5 -5.5t-21 3.5t-15.5 15z" />
    <glyph glyph-name="o" unicode="o" horiz-adv-x="391" 
d="M145 4q-40 5 -65.5 32t-40.5 66t-19.5 85.5t-2.5 91.5q3 69 25.5 132t56 109.5t74 72t79.5 19.5q41 -6 66.5 -39t39.5 -81t17 -104.5t-1 -108.5q-5 -59 -26 -110t-52.5 -88t-71 -57.5t-79.5 -19.5zM242 555q-33 4 -61.5 -20.5t-51 -65t-37.5 -92t-20 -101.5
q-4 -36 -3 -74t9.5 -69t27 -50.5t49.5 -19.5q25 -1 52.5 17t51.5 48.5t42.5 69.5t24.5 80q7 43 3.5 88.5t-15 84.5t-30 67.5t-42.5 36.5z" />
    <glyph glyph-name="p" unicode="p" horiz-adv-x="472" 
d="M20 -296q9 124 13 206t5.5 140.5t0.5 103.5t-3 95.5t-4.5 116t-4.5 165.5q2 11 8 19.5t13.5 12t16.5 -0.5t18 -18l-3 -130q34 44 76.5 80t86 59.5t84.5 33t71.5 1.5t47 -35.5t11.5 -77.5q-4 -44 -27 -94.5t-56.5 -100t-73.5 -95.5t-78 -81t-70.5 -56.5t-51.5 -21.5
q-1 -14 -3 -39.5t-4 -58t-4.5 -67.5t-4.5 -67t-4 -58t-2 -39q-5 -5 -12 -9t-15 -5t-16 3.5t-15 17.5zM95 83q33 13 79 52.5t91.5 95t82.5 121.5t52 131q-6 32 -27 42t-49.5 4.5t-62.5 -25t-65.5 -46t-58.5 -58.5t-42 -63v-254z" />
    <glyph glyph-name="q" unicode="q" horiz-adv-x="431" 
d="M351 282q-3 -21 -16.5 -54t-35 -68.5t-50 -68.5t-60.5 -53.5t-67 -24.5t-70 19q-30 30 -31.5 83.5t15.5 116t49.5 127.5t71 118.5t79.5 88.5t76 38q22 2 39.5 -5.5t30.5 -21.5t20 -33.5t8 -40.5l-11 -800q-2 -7 -8.5 -13t-15.5 -7.5t-18.5 1.5t-17.5 14q-2 3 -1.5 28
t2 64t4 88t4.5 101t4.5 102.5t3 92.5t-0.5 71t-4 37zM339 538q-23 14 -57 -8.5t-69.5 -66.5t-68 -102t-53 -114t-24 -103t18.5 -69q27 -12 55.5 -1.5t55 36.5t51 63.5t44.5 80t34.5 87t21.5 83.5t5 69t-14 45z" />
    <glyph glyph-name="r" unicode="r" horiz-adv-x="414" 
d="M31 19q-3 138 -5 234t-3 159t-1.5 98.5t-1 52.5t-0.5 20.5v4.5q1 9 9 15t17.5 7.5t18.5 -2.5t13 -13l3 -230q15 69 48.5 115t75.5 72.5t87.5 34.5t84.5 1q13 -3 19.5 -11t7 -17.5t-5 -18t-14.5 -12.5q-45 3 -84.5 -7.5t-72 -31t-57 -48.5t-38.5 -59q-21 -45 -28.5 -94.5
t-9 -98.5t0 -93t0.5 -77q-1 -11 -9.5 -16.5t-19 -6t-21 5t-14.5 16.5z" />
    <glyph glyph-name="s" unicode="s" horiz-adv-x="414" 
d="M46 72q19 -15 46.5 -16t58 7.5t62 25t58 36.5t46 42.5t26.5 43t-1 37.5t-36 27q-51 -12 -102 -19t-91.5 0t-65.5 33t-23 80q3 52 28.5 97.5t65 77.5t88 49t98.5 14q10 -1 18.5 -1.5t15.5 -3.5t10.5 -9t2.5 -18q-1 -15 -11 -24t-27 -7q-59 12 -106 -5t-78 -47.5t-44 -68.5
t-4 -69q19 -36 49.5 -45.5t65 -6.5t70.5 10.5t65 5t48 -22t21 -71.5q-1 -33 -22 -63.5t-53.5 -57t-72.5 -48t-79.5 -35.5t-74 -19t-55.5 1q-23 20 -24 39.5t27 30.5z" />
    <glyph glyph-name="t" unicode="t" horiz-adv-x="236" 
d="M72 475l-92 -31q-11 3 -18.5 11t-10.5 17t-1.5 17t8.5 12l114 43l-2 283q3 13 13 19t20.5 5.5t19.5 -7t12 -16.5q-2 -31 -3 -65.5t-1.5 -69t0.5 -67t4 -59.5l155 63q14 4 22 -2.5t10.5 -17t-1.5 -20.5t-14 -14l-172 -78q0 -10 1 -47.5t2 -88.5t2 -109t1.5 -109t1 -88.5
t0.5 -47.5q-2 -33 -19 -33t-37 16z" />
    <glyph glyph-name="u" unicode="u" horiz-adv-x="411" 
d="M313 590q1 6 6.5 13.5t14 10.5t19 -2.5t21.5 -24.5q-4 -77 -9.5 -153.5t-5 -151t10 -147.5t34.5 -142q1 -7 -5 -12.5t-16 -8t-20 -1.5t-16 9l-35 167q-4 -13 -22.5 -38t-43 -50.5t-50.5 -45t-45 -20.5q-47 -3 -74 33t-39.5 94.5t-14.5 130.5t0 140t5 123t0 81
q3 8 10.5 12t16.5 4t17.5 -4t12.5 -12q2 -34 1 -85t-2 -108.5t0.5 -115.5t7.5 -105.5t18.5 -79t35.5 -35.5q17 0 34 11t34 28.5t32 39t26 42t18 37.5t8 26q1 12 3 38.5t3.5 60t3 71.5t3 71.5t2 60t0.5 38.5z" />
    <glyph glyph-name="v" unicode="v" horiz-adv-x="429" 
d="M11 580q1 11 7 17.5t14 8.5t17 0t17 -8l153 -483q50 149 77 239.5t39.5 140t15 67t3.5 19.5q7 22 18.5 27t21.5 -1t16.5 -18.5t3.5 -24.5l-163 -559q-3 -6 -12 -8.5t-18.5 -2t-18 4t-11.5 8.5z" />
    <glyph glyph-name="w" unicode="w" horiz-adv-x="592" 
d="M93 8q-3 17 -9.5 61.5t-15 102.5t-18 123t-18.5 123t-16 102.5t-10 61.5q3 18 11 26.5t17 8.5t18 -6t14 -16l61 -454q3 11 12 43t20.5 74.5t25 90.5t25.5 90.5t21 74.5t12 43q7 9 17 15.5t20.5 8t20.5 -4t17 -19.5l142 -462l58 497q4 10 11.5 17t16 6.5t17 -11
t15.5 -35.5q-1 -6 -4.5 -31.5t-8.5 -62.5t-11 -83t-12 -94t-12 -94t-10.5 -83t-7.5 -62.5t-4 -31.5q-7 -16 -20.5 -23t-27 -6.5t-24 7.5t-13.5 19l-141 462q-18 -84 -36.5 -153.5t-35 -127.5t-31 -105t-24.5 -86q-6 -11 -15 -15.5t-18 -4.5t-17 4t-12 10z" />
    <glyph glyph-name="x" unicode="x" horiz-adv-x="406" 
d="M83 12q-18 -9 -32.5 -9t-21.5 6.5t-6.5 17.5t12.5 25l130 249l-151 268q1 7 6.5 15t13 14t16 8.5t15.5 -0.5l144 -245l114 241q5 3 14.5 3t18.5 -2.5t16.5 -8t7.5 -14.5l-130 -284l153 -249q3 -3 0.5 -12.5t-9.5 -18.5t-18.5 -13t-24.5 3l-145 228z" />
    <glyph glyph-name="y" unicode="y" horiz-adv-x="426" 
d="M249 -1l-221 503q-8 12 -4 24.5t14 19.5t23.5 5.5t24.5 -16.5l184 -440l87 497q6 3 14.5 5t17 1t15.5 -6t9 -16q-5 -40 -15 -102t-22 -127.5t-23.5 -125t-17.5 -94.5q-4 -21 -10 -56.5t-13.5 -77.5t-16 -87.5t-16 -87.5t-15 -76.5t-12.5 -55.5q-2 -12 -12 -18t-22 -5
t-22.5 8t-11.5 20z" />
    <glyph glyph-name="z" unicode="z" horiz-adv-x="466" 
d="M23 15q-2 9 9.5 32t32 56t48 73t57.5 82.5t59.5 84.5t54.5 79t43 66.5t24 46.5l-286 2q-4 -2 -14.5 3.5t-18.5 15t-10 20.5t11 19q37 -1 86.5 -2t102 0t103.5 4.5t90 10.5q18 -1 25.5 -9.5t3.5 -28.5l-329 -497l315 6q12 0 17 -5.5t4 -15t-8 -21.5t-17 -24z" />
    <glyph glyph-name="exclam" unicode="!" horiz-adv-x="138" 
d="M46 40q0 20 10.5 28t23.5 6t24 -12t11 -26q0 -17 -11.5 -26t-25 -8.5t-24 10t-8.5 28.5zM47 828q8 13 17 16t17 1t13.5 -6.5t6.5 -7.5q0 -61 -2 -141.5t-3 -164.5t0.5 -164t7.5 -140q-4 -12 -13.5 -16.5t-19 -3t-17.5 7.5t-10 15z" />
    <glyph glyph-name="quotedbl" unicode="&#x22;" horiz-adv-x="236" 
d="M152 817q9 10 21 12.5t22.5 -0.5t17.5 -9.5t7 -14.5l-1 -202q-1 -7 -10.5 -11.5t-21 -4.5t-22 5.5t-13.5 17.5v207zM46 819q9 10 20 12.5t20.5 0t16 -9t6.5 -14.5l-1 -202q-1 -7 -10 -11.5t-19.5 -5t-20 5t-12.5 17.5v207z" />
    <glyph glyph-name="numbersign" unicode="#" horiz-adv-x="627" 
d="M318 685q-5 6 2.5 14.5t19.5 13t25 2t18 -19.5l9 -107l77 18q9 2 13 -4.5t4 -16t-3 -20.5t-8 -18l-77 -19l8 -87l69 16q9 2 12.5 -4.5t3.5 -16.5t-3.5 -21.5t-8.5 -18.5l-69 -16l13 -140q0 -9 -7 -14.5t-16.5 -7.5t-20 -1.5t-17.5 3.5l-14 145l-95 -21l13 -133
q1 -9 -6 -15t-17 -8t-21 -1.5t-18 4.5l-13 138l-73 -17q-8 -6 -14.5 0.5t-8 18t4.5 25t24 21.5l62 13l-9 86l-81 -19q-8 -6 -15 0.5t-8.5 18t5 25t24.5 21.5l69 16l-9 117q-6 6 1.5 15t19.5 13.5t25 1.5t18 -20l9 -113l93 21zM249 405l93 21l-8 87l-93 -22z" />
    <glyph glyph-name="ampersand" unicode="&#x26;" horiz-adv-x="492" 
d="M283 308q-37 -39 -73.5 -56.5t-66.5 -20t-51.5 7.5t-27.5 26q-12 29 -6 56.5t23.5 51t43.5 40t54.5 23.5t56.5 1.5t50 -26.5l6 146q0 13 7.5 20.5t17.5 9t20 -3t15 -14.5l-13 -155l100 64q8 -5 15 -11.5t10 -15t0.5 -19.5t-12.5 -24l-108 -63l1 -170q0 -20 -9.5 -30.5
t-21 -12t-21.5 5.5t-10 23v147zM257 360q-17 20 -38.5 23t-43 -4.5t-38.5 -22t-25.5 -30t-4 -28t26.5 -16.5q22 1 45.5 12t42 24.5t28.5 26t7 15.5z" />
    <glyph glyph-name="asterisk" unicode="*" horiz-adv-x="578" 
d="M75 310q-17 7 -25.5 19.5t2.5 23.5l167 43l-146 70q-10 5 -13.5 14t-1 17t9 12.5t15.5 0.5l150 -65l-7 190q0 10 7.5 17.5t16.5 8.5t17 -6t9 -26l9 -178l114 166q17 8 27 8.5t14.5 -4.5t3.5 -13.5t-5 -18.5l-116 -154l201 48q8 -1 15 -7.5t9.5 -14.5t-1 -16t-15.5 -13
q-11 -2 -37 -8t-55.5 -13t-56 -13t-36.5 -9q-3 -1 -7 -1.5t-9 -2.5l165 -99q11 -7 14.5 -15.5t1.5 -16t-9 -13t-17 -6.5l-181 98l29 -193q2 -13 -5 -21t-16.5 -11t-18.5 -0.5t-10 11.5l-28 180l-136 -162q-18 -2 -24 9.5t-4 30.5l130 163z" />
    <glyph glyph-name="quoteright" unicode="&#x2019;" horiz-adv-x="177" 
d="M66 713q9 10 19.5 12.5t19 -0.5t14 -9.5t5.5 -14.5l-1 -202q-1 -7 -9 -11.5t-17.5 -4.5t-18.5 5.5t-12 17.5v207z" />
    <glyph glyph-name="quoteleft" unicode="&#x2018;" horiz-adv-x="177" 
d="M66 713q9 10 19.5 12.5t19.5 -0.5t14.5 -9.5t5.5 -14.5l-1 -202q-1 -7 -9 -11.5t-18 -4.5t-19 5.5t-12 17.5v207z" />
    <glyph glyph-name="quotedblleft" unicode="&#x201c;" horiz-adv-x="242" 
d="M152 817q9 10 20 12.5t20 -0.5t15 -9.5t6 -14.5l-1 -202q-1 -7 -9.5 -11.5t-18.5 -4.5t-19.5 5.5t-12.5 17.5v207zM45 820q9 10 20.5 12.5t21 -0.5t16 -9.5t6.5 -14.5l-1 -202q-1 -7 -10 -11.5t-19.5 -4.5t-20.5 5.5t-13 17.5v207z" />
    <glyph glyph-name="quotedblright" unicode="&#x201d;" horiz-adv-x="242" 
d="M152 817q9 10 19.5 12.5t18.5 -0.5t13.5 -9.5t5.5 -14.5l-1 -202q-1 -7 -9 -11.5t-17.5 -4.5t-18 5.5t-11.5 17.5v207zM49 820q9 10 19.5 12.5t19.5 -0.5t15 -9.5t6 -14.5l-1 -202q-1 -7 -9.5 -11.5t-18.5 -4.5t-19 5.5t-12 17.5v207z" />
    <glyph glyph-name="braceleft" unicode="{" horiz-adv-x="397" 
d="M344 -48q14 1 17 -6t-0.5 -16t-11.5 -16.5t-17 -8.5q-50 -8 -101 7t-94 45.5t-72.5 73t-35 91.5t17.5 101t85 100q15 12 16.5 32t-7.5 40t-25 34.5t-35 14.5q-30 15 -33.5 31t8.5 29t34 20t43 4q19 11 30.5 20t14 19.5t-5 26t-26.5 40.5q-36 45 -43.5 93t6.5 90.5
t45.5 76.5t72 52.5t87.5 18t91 -26.5q0 -16 -10 -31t-24 -18q-25 27 -58.5 31t-65.5 -9.5t-58.5 -41t-37.5 -62.5t-2 -74.5t49 -77.5q45 -43 49.5 -72.5t-24.5 -46.5l-13 -8.5t-29.5 -18.5t-30 -18.5l-13.5 -8.5q51 -34 67.5 -61.5t11.5 -52t-25.5 -48.5t-43.5 -49.5
t-43 -54.5t-24 -64q1 -44 16.5 -76.5t39.5 -55t53.5 -36.5t58.5 -21.5t54.5 -9.5t41.5 -1z" />
    <glyph glyph-name="braceright" unicode="}" horiz-adv-x="397" 
d="M75 -55q16 -1 41.5 1t54.5 9.5t58.5 21.5t53.5 36.5t39.5 55t16.5 76.5q-4 35 -24 64t-43 54.5t-43.5 49.5t-25.5 48.5t11.5 52t67.5 61.5l-13.5 8.5t-30 18.5t-29.5 18.5l-13 8.5q-29 17 -24.5 46.5t49.5 72.5q39 38 48.5 77.5t-1.5 74.5t-37.5 62.5t-58.5 41t-65.5 9.5
t-58.5 -31q-14 3 -24 18t-10 31q44 26 91 26.5t87.5 -18t72 -52.5t45.5 -76.5t6.5 -90.5t-43.5 -93q-20 -25 -27 -40.5t-4.5 -26t14 -19.5t30.5 -20q21 3 43 -4t34 -20t8.5 -29t-33.5 -31q-19 0 -35 -14.5t-25 -34.5t-7.5 -40t16.5 -32q62 -48 85 -100t17.5 -101t-35 -91.5
t-72.5 -73t-94 -45.5t-101 -7q-9 1 -17 8.5t-11.5 16.5t-0.5 16t17 6z" />
    <glyph glyph-name="bar" unicode="|" horiz-adv-x="152" 
d="M52 883q6 4 14 8.5t16.5 6t15.5 -1.5t11 -13l3 -892q-29 -17 -43 -13t-14 18z" />
    <glyph glyph-name="asciitilde" unicode="~" horiz-adv-x="400" 
d="M342 541q16 5 29.5 5.5t19.5 -19.5q-5 -30 -23 -61t-43.5 -47.5t-57.5 -11.5t-66 47q-17 25 -39 36t-42 7.5t-33 -23.5t-12 -56q-11 -4 -18 -2.5t-11 6t-6 12t-5 15.5q0 33 11.5 55t29.5 33.5t40.5 14t44 -3t39.5 -18.5t27 -32q20 -31 37.5 -39t31 -3t23.5 19.5t16.5 29
t8 26t-1.5 10.5z" />
    <glyph glyph-name="grave" unicode="`" horiz-adv-x="177" 
d="M118 641q-11 12 -25.5 27.5t-28.5 32.5t-24.5 34t-11.5 31q-12 14 -4.5 28t32.5 16q23 -25 45.5 -52t35 -50.5t10.5 -41.5t-29 -25z" />
    <glyph glyph-name="acute" unicode="&#xb4;" horiz-adv-x="177" 
d="M55 668q-30 6 -33 23t11.5 38.5t40 46.5t51.5 48q18 0 25 -10t7 -23v-8q-2 -13 -13.5 -28.5t-27 -31t-32.5 -30t-29 -25.5z" />
    <glyph glyph-name="circumflex" unicode="&#x2c6;" horiz-adv-x="445" 
d="M141 641q-7 -6 -16 -8t-17 0.5t-13 8.5t-3 16l98 183q1 3 8 8t15 7.5t15.5 1t11.5 -10.5l122 -173q9 -11 5 -18.5t-13 -11.5t-20.5 -4t-17.5 5l-97 137z" />
    <glyph glyph-name="tilde" unicode="&#x2dc;" horiz-adv-x="391" 
d="M325 768q16 5 29.5 5.5t19.5 -19.5q-5 -30 -23 -61t-43.5 -47.5t-57.5 -11.5t-66 47q-17 25 -39 36t-42 7.5t-33 -23.5t-12 -56q-11 -4 -18 -2.5t-11 6t-6 12t-5 15.5q0 33 11.5 55t29.5 33.5t40.5 14t44 -3t39.5 -18.5t27 -32q20 -31 37.5 -39t31 -3t23.5 19.5t16.5 29
t8 26t-1.5 10.5z" />
    <glyph glyph-name="caron" unicode="&#x2c7;" horiz-adv-x="354" 
d="M261 863q7 6 17 6.5t19.5 -3.5t15.5 -11t5 -17l-98 -183q-2 -3 -8.5 -8t-14.5 -7.5t-15.5 -1t-11.5 10.5l-122 173q-9 11 -4.5 20t14.5 14.5t22 6.5t18 -3l89 -135z" />
    <glyph glyph-name="ring" unicode="&#x2da;" horiz-adv-x="303" 
d="M32 708q0 35 19 58.5t47 35t61 11.5t61.5 -11t48 -32.5t21.5 -53.5q6 -25 -9.5 -45t-43 -32t-61.5 -15.5t-65 4t-53.5 27t-25.5 53.5zM89 710q11 -20 34 -31t46.5 -11.5t42.5 10.5t21 35q2 19 -8 32t-26.5 19.5t-36 6.5t-36 -6.5t-27.5 -20t-10 -34.5z" />
    <glyph glyph-name="glyph106" horiz-adv-x="0" 
 />
    <glyph glyph-name="hungarumlaut" unicode="&#x2dd;" horiz-adv-x="299" 
d="M57 656q-30 6 -33 23t11.5 38.5t40 46.5t51.5 48q18 0 25 -10t7 -23v-8q-2 -13 -13.5 -28.5t-27 -31t-32.5 -30t-29 -25.5zM166 632q-30 6 -33 23t11.5 38.5t40 46.5t51.5 48q18 0 25 -10t7 -23v-8q-2 -13 -13.5 -28.5t-27 -31t-32.5 -30t-29 -25.5z" />
    <glyph glyph-name="periodcentered" unicode="&#xb7;" horiz-adv-x="147" 
d="M22 295q16 17 27 23t29 6q30 0 30 -29q0 -6 -4 -14.5t-10.5 -16t-14 -11.5t-14.5 -1q-7 -5 -15.5 -2.5t-15.5 9t-10.5 16t-1.5 20.5z" />
    <glyph glyph-name="dotaccent" unicode="&#x2d9;" horiz-adv-x="147" 
d="M22 666q1 13 12.5 23.5t25.5 13.5t28 -5t20 -32q0 -6 -4 -14.5t-10.5 -16t-14 -11.5t-14.5 -1q-7 -5 -15.5 -2.5t-15.5 9t-10.5 16t-1.5 20.5z" />
    <glyph glyph-name="bullet" unicode="&#x2022;" horiz-adv-x="216" 
d="M44 353q13 18 23.5 29.5t21 18.5t22 10t26.5 3q49 0 49 -61q0 -11 -6.5 -28.5t-17 -33t-23 -24t-24.5 -1.5q-12 -10 -26 -6t-25.5 17.5t-17.5 33.5t-2 42z" />
    <glyph glyph-name="endash" unicode="&#x2013;" horiz-adv-x="455" 
d="M66 265q-8 -5 -16.5 3.5t-11.5 22t2.5 27.5t25.5 19l345 11q10 0 15 -7.5t6 -19t-1.5 -23.5t-7.5 -19l-357 -14v0z" />
    <glyph glyph-name="emdash" unicode="&#x2014;" horiz-adv-x="626" 
d="M66 265q-8 -5 -16.5 3.5t-11.5 22t2.5 27.5t25.5 19l503 -3q10 0 15 -7.5t6 -19t-1.5 -23.5t-7.5 -19h-515v0z" />
    <glyph glyph-name="minus" unicode="&#x2212;" horiz-adv-x="408" 
d="M46 312q0 4 6 15t9 14q49 3 86.5 7.5t71 9.5t68.5 8.5t79 3.5q6 0 9.5 -5.5t5 -12.5t1.5 -13.5v-8.5q0 -4 -1 -10.5t-1 -7.5l-249 -14q-2 -1 -14 -1.5t-18 -0.5l-8.5 -0.5t-18.5 0.5t-18 4.5t-8 11.5z" />
    <glyph glyph-name="Euro" unicode="&#x20ac;" horiz-adv-x="671" 
d="M74 384q-26 0 -33.5 17t-1.5 40q17 2 55.5 7.5t85.5 11.5q16 67 40 136.5t55.5 126t70.5 92.5t84 36q27 0 46.5 -10t32.5 -27t19 -39t6 -47q-20 0 -32 10.5t-22 22.5t-21 22.5t-28 10.5q-32 0 -60.5 -30.5t-53.5 -77.5t-44.5 -105.5t-33.5 -113.5q21 3 44 7.5t44 8.5
t37 7t24 3q9 0 12 -10t1.5 -21t-6.5 -20t-12 -8l-158 -30q-14 -68 -20 -117l221 55q4 -3 9 -7t6 -10.5t-4.5 -15.5t-22.5 -22l-209 -60q0 -36 2 -67t12.5 -54.5t31.5 -36.5t59 -13q45 0 89 10t81.5 29t65.5 47.5t40 64.5q6 3 15.5 4t18.5 -1.5t15.5 -8.5t7.5 -15
q-7 -36 -31.5 -66.5t-58 -54.5t-73 -41t-77.5 -26t-70.5 -8.5t-52.5 10.5q-36 0 -62.5 18.5t-44.5 48.5t-26.5 67.5t-8.5 74.5l-89 -25q-7 2 -17 8t-16.5 15t-6 19t14.5 20q32 2 63 8.5t61 14.5q2 27 7 58.5t11 66.5q-32 -5 -56.5 -7.5t-35.5 -2.5z" />
    <glyph glyph-name="sterling" unicode="&#xa3;" horiz-adv-x="613" 
d="M14 426q0 2 1 10t2 11q17 2 55.5 7.5t85.5 11.5q16 67 46 120.5t69 91.5t84.5 58.5t90.5 20.5q27 0 46.5 -10t32.5 -27t19 -39t6 -47q-20 0 -32 10.5t-22 22.5t-21 22.5t-28 10.5q-32 0 -67 -14.5t-67 -43.5t-58 -71.5t-40 -97.5q42 5 77 9.5t50 6.5q2 0 11 0.5t19 1
t19 1t11 0.5q0 -13 -18 -25t-46.5 -22.5t-64.5 -19t-72 -15.5l-22 -147q3 -37 -0.5 -77t-5 -71.5t3 -49t23.5 -9.5q11 4 26.5 16.5t37.5 25.5t49.5 24t61.5 14t75.5 -6t90.5 -36q27 -2 36.5 -12t3.5 -22t-27 -22.5t-55 -11.5q-8 18 -27.5 32t-55.5 15.5t-91 -14.5t-133 -59
q-10 -9 -21 -14t-21.5 0t-19 23.5t-12.5 55t-2.5 95t10.5 144.5q1 13 2.5 23.5t3.5 21t4.5 22.5t5.5 29q-32 -5 -56.5 -7.5t-35.5 -2.5q-38 0 -38 36z" />
    <glyph glyph-name="currency" unicode="&#xa4;" horiz-adv-x="569" 
d="M93 99q-20 -9 -32 -3.5t-16.5 18.5t-1 29t16.5 29l101 149q-15 59 -18 110t19 105q-17 35 -27.5 68.5t-7.5 59.5q11 28 38 17q27 -5 34 -25t11 -49q31 30 81 42q47 -9 73 -33q17 37 31 71t23 58q5 3 16 1.5t22 -6t19 -11.5t7 -15q-11 -47 -33.5 -87t-48.5 -79
q8 -31 9.5 -66t5.5 -70q0 -33 -2.5 -74t-23.5 -89l35 -83q1 -1 0.5 -8.5t-2.5 -11.5q-2 -6 -5.5 -12t-9 -10.5t-12.5 -5.5t-16 5q-7 15 -16 36.5t-20 47.5q-14 -12 -31.5 -19t-40.5 -7q-46 -20 -84 63q-17 -26 -39.5 -61.5t-54.5 -83.5zM200 449q1 -76 9.5 -119t21.5 -61.5
t29.5 -17t32.5 14.5t30.5 34t24.5 42t13.5 36.5t-1.5 18.5q0 32 -0.5 59.5t-6 50t-18 39.5t-36.5 28q-20 0 -38.5 -11.5t-32 -29.5t-21.5 -38.5t-8 -38.5v-4q0 -2 1 -3z" />
    <glyph glyph-name="yen" unicode="&#xa5;" horiz-adv-x="544" 
d="M104 869q0 1 0.5 3.5t0.5 3.5q3 8 8 11t11 3t12.5 -1.5t11.5 -3.5q18 -6 31 -41t26 -81.5t29 -95t39 -80.5q39 93 65 152t43 92t26 46.5t13 16t4.5 -0.5t1.5 -1q7 19 9.5 23.5t14.5 -0.5q14 -5 26.5 -13.5t7.5 -25.5q-21 -44 -40 -77t-36 -60t-31.5 -50.5t-26.5 -50
t-22 -58.5t-17 -75l-0.5 -7.5t-1 -18.5t-0.5 -24.5v-26.5q35 5 62 7.5t40 4.5q2 0 11 0.5t19 1t19 1t11 0.5q15 -20 6.5 -35.5t-32.5 -27t-60 -19.5t-76 -13v-60q25 2 49 2.5t50 -2.5q31 -4 40.5 -11t5 -15t-18 -15.5t-27.5 -11.5q-17 5 -42.5 5t-56.5 -3q0 -43 -0.5 -82.5
t-1 -69.5t-2 -47.5t-3.5 -17.5l-60 -7l5 216q-33 -5 -65.5 -9.5t-58.5 -6t-44.5 2t-23.5 14.5q0 4 5.5 15t8.5 14q54 3 97.5 9.5t81.5 12.5l1 62q-37 -3 -71 -3.5t-59 1.5q-38 0 -38 36q0 2 1 10t2 11q9 1 26 3.5t39.5 5.5t48.5 6.5t53 6.5l2 90q-10 18 -25 48.5t-31 66.5
t-32 74.5t-29 72.5t-22 60t-10 37z" />
    <glyph glyph-name="section" unicode="&#xa7;" 
d="M117 17q0 -1 23.5 13.5t56.5 38t67.5 52t56.5 54t24 44t-30 23.5q-40 6 -67.5 -0.5t-49.5 -15.5t-41.5 -17t-43.5 -6q-49 0 -67 30.5t-18 83.5q0 45 16.5 85t45.5 73q-41 5 -56 35t-15 79q0 52 23 99t60 81.5t84.5 55t97.5 20.5q20 0 34.5 -3t14.5 -26q0 -15 -13 -29
t-30 -14q-1 0 -5.5 2t-9 5t-9 5t-5.5 2q-36 9 -69 -11t-59 -53.5t-42 -73t-16 -70.5q0 -13 5.5 -20t13.5 -10.5t18.5 -4t21.5 -0.5q23 0 45.5 7t44.5 15.5t44.5 15.5t46.5 7q12 0 25 -6.5t24.5 -18t19 -26.5t8.5 -33q7 -15 -3.5 -40t-31.5 -53.5t-49.5 -58t-58.5 -53.5
q18 7 36.5 12t38.5 5q12 0 25 -6.5t24.5 -18t19 -26.5t8.5 -33q7 -15 -3.5 -40.5t-32 -54.5t-51 -58.5t-60 -53.5t-59 -39t-48.5 -14q-23 0 -26.5 13.5t-3.5 30.5zM84 307q0 -26 19 -27.5t46.5 13t59.5 41.5t58 56.5t42 57.5t11.5 46t-34 21.5t-93.5 -16.5
q-23 -15 -43 -38.5t-34.5 -50t-23 -54t-8.5 -49.5z" />
    <glyph glyph-name="fraction" unicode="&#x2044;" horiz-adv-x="349" 
d="M28 -7l258 845l39 -15l-261 -874q-14 0 -25 11t-11 25v8z" />
    <glyph glyph-name="ogonek" unicode="&#x2db;" 
d="M358 -177q22 -16 15.5 -36t-32 -36.5t-65 -25t-83.5 -0.5q-42 12 -64 48.5t-21 82t26 91t77 74.5q18 1 22.5 -7.5t1.5 -20t-9.5 -21.5t-10.5 -13q-23 -29 -35.5 -58.5t-13 -54t11.5 -41.5t38 -21q18 0 35.5 6t35 13.5t35 13.5t36.5 6z" />
    <glyph glyph-name="cedilla" unicode="&#xb8;" horiz-adv-x="313" 
d="M88 -208q0 -2 20.5 -4t45.5 0.5t46.5 11.5t23.5 27q1 7 1.5 15.5t-5 17.5t-19 19.5t-40.5 22.5q-24 0 -41 3.5t-27.5 13t-15 26t-4.5 42.5q4 24 11.5 33.5t15.5 9t15.5 -8t12 -16.5t5.5 -17.5t-4 -10.5q3 -16 21.5 -21.5t42.5 -12t48.5 -20t40.5 -44.5q19 -39 6.5 -67.5
t-42 -47t-67 -27t-68.5 -5.5q-12 0 -17 6.5t-6.5 15.5t-0.5 19.5t1 18.5z" />
    <glyph glyph-name="ellipsis" unicode="&#x2026;" horiz-adv-x="441" 
d="M29 43q0 13 11 23.5t25.5 13t29 -5t20.5 -31.5q0 -6 -4 -14.5t-10.5 -16t-14 -11.5t-14.5 -1q-7 -5 -15.5 -2.5t-15.5 9t-10.5 16t-1.5 20.5zM176 43q4 13 17.5 22t28 11t26.5 -5.5t14 -27.5q0 -6 -4 -14.5t-10.5 -16t-14 -11.5t-14.5 -1q-7 -5 -15.5 -2.5t-15.5 9
t-10.5 16t-1.5 20.5zM323 43q4 12 16 22.5t26 13.5t26.5 -4.5t17.5 -31.5q0 -6 -4 -14.5t-10.5 -16t-14 -11.5t-14.5 -1q-7 -5 -15.5 -2.5t-15.5 9t-10.5 16t-1.5 20.5z" />
    <glyph glyph-name="dieresis" unicode="&#xa8;" horiz-adv-x="349" 
d="M46 679q-5 16 8 27t30.5 13.5t32.5 -6.5t15 -34q0 -6 -4 -14.5t-10.5 -16t-14 -11.5t-14.5 -1q-7 -5 -15.5 -2.5t-15.5 9t-10.5 16t-1.5 20.5zM184 682q3 20 18 31t32 11t31 -11t14 -34q0 -6 -4 -14.5t-10.5 -16t-14 -11.5t-14.5 -1q-7 -5 -17 -2t-18.5 10t-13.5 17
t-3 21z" />
    <glyph glyph-name="brokenbar" unicode="&#xa6;" horiz-adv-x="157" 
d="M59 592q-3 51 -7 105.5t-8.5 104t-9.5 89.5t-10 62q10 7 17.5 11t17.5 4q8 0 13.5 -3t8.5 -12q4 -38 7.5 -84t7.5 -94t7 -94.5t5 -85.5zM112 522q4 -72 6 -124.5t3 -101t1.5 -100.5t2.5 -122q0 -10 -0.5 -27t-1.5 -18q-15 -8 -27.5 -7.5t-22.5 6.5t-15.5 14t-5.5 15
q7 47 11 96t5.5 104.5t0 120.5t-5.5 144h49z" />
    <glyph glyph-name="quotesinglbase" unicode="&#x201a;" horiz-adv-x="177" 
d="M60 221q9 10 20 12t20.5 -1.5t15.5 -10.5t6 -15l-1 -202q-1 -7 -9.5 -11t-19 -3.5t-20 6.5t-12.5 18v207z" />
    <glyph glyph-name="quotedblbase" unicode="&#x201e;" horiz-adv-x="242" 
d="M146 220q9 10 19 12.5t18 -0.5t13 -9.5t5 -14.5l-1 -202q-1 -7 -8.5 -11.5t-16.5 -4.5t-17.5 5.5t-11.5 17.5v207zM41 223q9 10 20 12.5t20.5 -0.5t15.5 -9.5t6 -14.5l-1 -202q-1 -7 -9.5 -11.5t-19 -4.5t-20 5.5t-12.5 17.5v207z" />
    <glyph glyph-name="guilsinglright" unicode="&#x203a;" horiz-adv-x="512" 
d="M52 164q4 23 33.5 52.5t70 61t85.5 65t80 64t53 58t5 47.5l-311 168q-4 3 -9.5 13.5t-5.5 15.5q0 4 3 10t7.5 12.5t9.5 11.5t9 8l340 -196q27 -18 23.5 -48.5t-27.5 -67.5t-62.5 -77t-82 -77.5t-85.5 -70t-73 -54t-45.5 -29t-1.5 4.5q-12 0 -14 11t-2 17z" />
    <glyph glyph-name="guillemotright" unicode="&#xbb;" horiz-adv-x="712" 
d="M52 164q4 23 33.5 52.5t70 61t85.5 65t80 64t53 58t5 47.5l-311 168q-4 3 -9.5 13.5t-5.5 15.5q0 4 3 10t7.5 12.5t9.5 11.5t9 8l340 -196q27 -18 23.5 -48.5t-27.5 -67.5t-62.5 -77t-82 -77.5t-85.5 -70t-73 -54t-45.5 -29t-1.5 4.5q-12 0 -14 11t-2 17zM260 178
q4 23 33.5 52.5t70 61t85.5 65t80 64t53 58t5 47.5l-311 168q-4 3 -9.5 13.5t-5.5 15.5q0 4 3 10t7.5 12.5t9.5 11.5t9 8l340 -196q27 -18 23.5 -48.5t-27.5 -67.5t-62.5 -77t-82 -77.5t-85.5 -70t-73 -54t-45.5 -29t-1.5 4.5q-12 0 -14 11t-2 17z" />
    <glyph glyph-name="guilsinglleft" unicode="&#x2039;" horiz-adv-x="466" 
d="M57 407q1 2 1 3l337 280q5 6 9 13t8 12t10 7.5t16 -1.5q15 -5 17 -18t-3 -27q-1 -1 -1 -4q0 -1 -1 -2q-37 -51 -73 -83.5t-75 -60t-81.5 -56.5t-91.5 -73l8 -18q1 -2 24 -17t54.5 -34.5t65 -39.5t54.5 -32q4 -3 17 -8.5t28 -11t28 -10.5t19 -6q3 -12 4 -20t-3 -18
q-5 -13 -18 -23t-27 -14q-16 15 -49 35t-71.5 43t-78.5 47t-71 47.5t-48 45.5t-10 40z" />
    <glyph glyph-name="guillemotleft" unicode="&#xab;" horiz-adv-x="742" 
d="M57 407q1 2 1 3l337 280q5 6 9 13t8 12t10 7.5t16 -1.5q15 -5 17 -18t-3 -27q-1 -1 -1 -4q0 -1 -1 -2q-37 -51 -73 -83.5t-75 -60t-81.5 -56.5t-91.5 -73l8 -18q1 -2 24 -17t54.5 -34.5t65 -39.5t54.5 -32q4 -3 17 -8.5t28 -11t28 -10.5t19 -6q3 -12 4 -20t-3 -18
q-5 -13 -18 -23t-27 -14q-16 15 -49 35t-71.5 43t-78.5 47t-71 47.5t-48 45.5t-10 40zM269 420q1 2 1 3l337 280q5 6 9 13t8 12t10 7.5t16 -1.5q15 -5 17 -18t-3 -27q-1 -1 -1 -4q0 -1 -1 -2q-37 -51 -73 -83.5t-75 -60t-81.5 -56.5t-91.5 -73l8 -18q1 -2 24 -17t54.5 -34.5
t65 -39.5t54.5 -32q4 -3 17 -8.5t28 -11t28 -10.5t19 -6q3 -12 4 -20t-3 -18q-5 -13 -18 -23t-27 -14q-17 15 -49.5 35t-71 43t-78.5 47t-71 47.5t-48 45.5t-10 40z" />
    <glyph glyph-name="dotlessi" unicode="&#x131;" horiz-adv-x="151" 
d="M40 630q8 4 18.5 6.5t20 2.5t16.5 -4.5t8 -14.5v-598q1 -15 -8 -23t-19.5 -8t-19.5 7.5t-9 23.5z" />
    <glyph glyph-name="florin" unicode="&#x192;" horiz-adv-x="390" 
d="M118 429q0 5 -20 -1.5t-45.5 -17t-48.5 -20.5t-30 -10q-5 0 -9 5t-6.5 12.5t-3.5 16t-1 15.5l150 67q-1 18 -4 53t-3.5 76t3.5 84t17.5 76.5t37 53.5t62.5 16q26 -3 47 -21t36 -42t23.5 -50.5t8.5 -47.5q0 -15 -11.5 -19t-25.5 -1q-26 67 -43.5 95.5t-30.5 30.5
q-20 3 -35.5 -17.5t-24 -60t-9.5 -94.5t9 -119l216 78q13 -34 -3 -56l-196 -88q2 -47 7.5 -113t10 -140t5.5 -149.5t-5 -141.5q-5 -48 -17.5 -85.5t-36 -58.5t-57.5 -22t-82 23q-17 8 -22 20t-1 21t14.5 11.5t25.5 -6.5q31 -20 53.5 -17.5t37 21.5t22.5 52.5t11 75.5
q4 58 2 128.5t-7.5 139t-11.5 129t-9 98.5z" />
    <glyph glyph-name="fi" unicode="&#xfb01;" horiz-adv-x="466" 
d="M17 388q-20 -1 -28 4t-9 12.5t3 16t9 15.5l121 54q-6 69 -6.5 138t11.5 123.5t39.5 86t77.5 25.5q24 0 45 -15.5t36.5 -38.5t25 -50t9.5 -49q-1 -10 -7 -15.5t-13 -7t-14.5 0t-11.5 5.5q-4 36 -12.5 59t-19 36.5t-21.5 18.5t-19 5q-32 -1 -47.5 -23t-21.5 -61.5t-4.5 -95
t4.5 -123.5l216 78q11 -7 15 -17.5t-10 -31.5l-217 -89l30 -435q-2 -8 -10 -13.5t-18 -7t-18.5 3t-10.5 17.5l-23 417zM366 624q6 3 14 5t15.5 2t14.5 -3t11 -11q0 -65 1.5 -140.5t4 -153t4.5 -152.5t4 -139q1 -15 -8 -23t-19.5 -8t-19.5 7.5t-9 23.5zM354 828q0 13 9 17.5
t20 4.5q22 0 27.5 -14.5t5.5 -33.5q-6 -12 -16 -17t-20.5 -2t-18 14t-7.5 31z" />
    <glyph glyph-name="fl" unicode="&#xfb02;" horiz-adv-x="475" 
d="M17 388q-20 -1 -28 4t-9 12.5t3 16t9 15.5l121 54q-6 69 -6.5 138t11.5 123.5t39.5 86t77.5 25.5q24 0 45 -15.5t36.5 -38.5t25 -50t9.5 -49q-1 -10 -7 -15.5t-13 -7t-14.5 0t-11.5 5.5q-4 36 -12.5 59t-19 36.5t-21.5 18.5t-19 5q-32 -1 -47.5 -23t-21.5 -61.5t-4.5 -95
t4.5 -123.5l216 78q11 -7 15 -17.5t-10 -31.5l-217 -89l30 -435q-2 -8 -10 -13.5t-18 -7t-18.5 3t-10.5 17.5l-23 417zM374 836q6 4 12.5 8.5t13.5 6t12.5 -1.5t9.5 -13l6 -825q-5 -10 -13 -13.5t-16 -2t-14.5 6.5t-8.5 12z" />
    <glyph glyph-name="Lslash" unicode="&#x141;" horiz-adv-x="611" 
d="M8 326q-8 -5 -16.5 3.5t-11.5 22t2.5 27.5t25.5 19l179 65q10 0 15 -7.5t6 -19t-1.5 -23.5t-7.5 -19zM54 43q-3 214 -7 356.5t-7 231t-5 131t-2 55.5q0 15 8.5 24t18.5 8.5t19 -11t10 -33.5l32 -733l434 92q67 0 29 -57l-502 -107q-28 0 -28 43z" />
    <glyph glyph-name="Zcaron" unicode="&#x17d;" horiz-adv-x="558" 
d="M442 794l-413 -6q-10 3 -15.5 9t-7 13.5t1.5 14.5t10 10q0 1 20.5 2.5t55 3t78 2.5t89 2.5t90 2t79.5 1t57.5 1t24.5 0.5l4 -47l-430 -740h432q9 -4 13.5 -13t3 -18.5t-8 -16.5t-18.5 -7l-462 1q-11 0 -16.5 7t-8 17t-3 21.5t-0.5 20.5zM337 1111q7 6 17 6.5t19.5 -3.5
t15.5 -11t5 -17l-98 -183q-2 -3 -8.5 -8t-14.5 -7.5t-15.5 -1t-11.5 10.5l-122 173q-9 11 -4.5 20t14.5 14.5t22 6.5t18 -3l89 -135z" />
    <glyph glyph-name="zcaron" unicode="&#x17e;" horiz-adv-x="486" 
d="M23 15q-2 9 9.5 32t32 56t48 73t57.5 82.5t59.5 84.5t54.5 79t43 66.5t24 46.5l-286 2q-4 -2 -14.5 3.5t-18.5 15t-10 20.5t11 19q37 -1 86.5 -2t102 0t103.5 4.5t90 10.5q18 -1 25.5 -9.5t3.5 -28.5l-329 -497l315 6q12 0 17 -5.5t4 -15t-8 -21.5t-17 -24zM315 859
q7 6 17 6.5t19.5 -3.5t15.5 -11t5 -17l-98 -183q-2 -3 -8.5 -8t-14.5 -7.5t-15.5 -1t-11.5 10.5l-122 173q-9 11 -4.5 20t14.5 14.5t22 6.5t18 -3l89 -135z" />
    <glyph glyph-name="Scaron" unicode="&#x160;" horiz-adv-x="616" 
d="M104 30q1 6 28.5 15t68.5 21.5t91 29t96.5 37.5t83.5 46.5t54 56.5q0 16 -22 25t-58 15t-82 10t-94.5 11t-94.5 18t-82 30.5t-58 49t-22 73.5q0 43 19.5 87.5t51.5 86.5t73.5 79t86.5 65t89 44t82 16q10 0 21 0.5t19.5 -1.5t14 -8.5t5.5 -19.5q0 -32 -21 -46t-51 -14
l-43 14q-25 0 -56.5 -14.5t-63.5 -39t-62.5 -56t-54 -65t-38 -67t-14.5 -60.5q0 -34 22 -55.5t58 -34.5t82.5 -19.5t94.5 -11.5t94.5 -11t82.5 -16.5t58 -29t22 -49.5q0 -30 -24 -60t-63 -57.5t-89.5 -51t-101.5 -40t-99.5 -25.5t-83.5 -8q-10 0 -17 7t-3 23zM350 1096
q7 6 17 6.5t19.5 -3.5t15.5 -11t5 -17l-98 -183q-2 -3 -8.5 -8t-14.5 -7.5t-15.5 -1t-11.5 10.5l-122 173q-9 11 -4.5 20t14.5 14.5t22 6.5t18 -3l89 -135z" />
    <glyph glyph-name="OE" unicode="&#x152;" horiz-adv-x="791" 
d="M22 253q-1 109 19.5 202t55.5 166t80 124.5t93 78.5q0 6 4 13t10 13t13.5 9t15.5 0q13 -5 21.5 -19.5t13 -31.5t6 -32.5t1.5 -22.5l385 96q9 -2 14.5 -10.5t5 -19t-7 -20.5t-19.5 -14l-379 -103q0 -65 3.5 -129t8.5 -130l278 97l6 6t14.5 10t18 3t18.5 -15
q0 -20 -24 -36.5t-59.5 -30.5t-77 -26.5t-77 -25.5t-59.5 -26.5t-24 -28.5l-7 -263q15 -9 43.5 -5.5t63.5 13.5t74 24.5t75 27.5t66.5 23t49.5 11q9 -1 16 -6.5t10 -12.5t0.5 -14.5t-13.5 -12.5q-39 -17 -94 -38t-113.5 -40.5t-113.5 -34t-93 -17.5q-13 2 -21.5 5.5
t-18.5 14.5q-17 -6 -34 -10t-36 -6q-56 -3 -96 22.5t-65.5 64t-38 82t-12.5 75.5zM234 737q-17 -14 -38 -49t-41 -83.5t-36.5 -105.5t-26 -115t-9 -113t15.5 -99.5t46 -74t83 -36.5q34 -4 74 21q1 84 3.5 170t2.5 173t-6 173.5t-21 170.5q-22 -12 -47 -32z" />
    <glyph glyph-name="trademark" unicode="&#x2122;" horiz-adv-x="1455" 
d="M1280 739q-4 2 -12.5 -25t-21.5 -70t-28.5 -97t-33 -107t-35.5 -99t-35.5 -73t-33 -29.5t-28.5 31.5q-8 16 -24.5 49.5t-37.5 76t-44 89t-44 88.5t-38 75t-25 49q-13 24 -23.5 39t-33.5 15q0 -78 9 -171t19.5 -188.5t19.5 -188.5t9 -172q5 -10 -2.5 -19t-20 -13
t-27.5 -0.5t-25 18.5q-9 88 -10 179t-2 183.5t-5.5 185t-18.5 184.5q-35 -11 -79.5 -16.5t-88 -9t-79.5 -6t-54 -6.5q-5 -79 3.5 -164.5t21 -172t24 -172t11.5 -163.5q4 -16 3.5 -24.5t-6 -12t-16.5 -3.5t-27 1q-11 40 -19.5 94t-15 115.5t-12.5 127t-11.5 130t-12.5 123.5
t-15 107h-20q-36 0 -72 -7t-71.5 -15t-71.5 -15t-72 -7q-11 0 -23 3t-12 20q0 11 9.5 22.5t20.5 12.5l298 43q1 5 3.5 14.5t6.5 19t10.5 16.5t15.5 7q13 0 21 -6.5t13.5 -15t10 -15t10.5 -6.5h9q13 2 46.5 5.5t75 7.5t84 8.5t72.5 7.5q-2 11 -4 21t-4 21q-1 20 7 25t20 5
q27 0 48.5 -13t39.5 -32.5t31.5 -42.5t24.5 -42q9 -14 25 -46l36 -72t41.5 -84t41.5 -83.5t36.5 -70t25.5 -43.5q4 0 7.5 3.5t9.5 19t17 47.5t29.5 89t46.5 143.5t68 210.5q2 6 14.5 10.5t21.5 4.5q11 0 14.5 -7t5.5 -22q10 -94 16.5 -197t16.5 -208t25 -208.5t41 -196.5
l-76 -30z" />
    <glyph glyph-name="scaron" unicode="&#x161;" 
d="M46 72q19 -15 46.5 -16t58 7.5t62 25t58 36.5t46 42.5t26.5 43t-1 37.5t-36 27q-51 -12 -102 -19t-91.5 0t-65.5 33t-23 80q3 52 28.5 97.5t65 77.5t88 49t98.5 14q10 -1 18.5 -1.5t15.5 -3.5t10.5 -9t2.5 -18q-1 -15 -11 -24t-27 -7q-59 12 -106 -5t-78 -47.5t-44 -68.5
t-4 -69q19 -36 49.5 -45.5t65 -6.5t70.5 10.5t65 5t48 -22t21 -71.5q-1 -33 -22 -63.5t-53.5 -57t-72.5 -48t-79.5 -35.5t-74 -19t-55.5 1q-23 20 -24 39.5t27 30.5zM282 864q7 6 17 6.5t19.5 -3.5t15.5 -11t5 -17l-98 -183q-2 -3 -8.5 -8t-14.5 -7.5t-15.5 -1t-11.5 10.5
l-122 173q-9 11 -4.5 20t14.5 14.5t22 6.5t18 -3l89 -135z" />
    <glyph glyph-name="Ydieresis" unicode="&#x178;" horiz-adv-x="550" 
d="M305 337l-309 406q0 13 14 20.5t25 7.5l293 -358q4 8 14.5 36t24.5 67t30 85.5t30.5 92.5t25.5 86.5t16 68.5q7 7 15.5 5t16 -8t12.5 -14.5t5 -14.5q-35 -105 -59 -178t-40 -123.5t-25.5 -81.5t-15 -52t-9.5 -35.5t-8.5 -30.5t-11 -38t-18.5 -58t-31 -90.5t-47 -135.5
h-30.5t-15.5 15zM141 941q-5 16 8 27t30.5 13.5t32.5 -6.5t15 -34q0 -6 -4 -14.5t-10.5 -16t-14 -11.5t-14.5 -1q-7 -5 -15.5 -2.5t-15.5 9t-10.5 16t-1.5 20.5zM279 944q3 20 18 31t32 11t31 -11t14 -34q0 -6 -4 -14.5t-10.5 -16t-14 -11.5t-14.5 -1q-7 -5 -17 -2t-18.5 10
t-13.5 17t-3 21z" />
    <glyph glyph-name="exclamdown" unicode="&#xa1;" horiz-adv-x="157" 
d="M214.076 711.341q0 -15.3291 9.14746 -21.4619q9.14746 -6.13086 20.4736 -4.59863q11.3262 1.5332 20.9092 9.19824q9.58301 7.66406 9.58301 19.9277q0 13.0303 -10.0186 19.9287t-21.7803 6.51562q-11.7617 -0.383789 -20.9092 -7.66504t-7.40527 -21.8447z
M214.947 107.355q6.96973 -9.96484 14.8105 -12.2637q7.84082 -2.2998 14.8105 -0.766602q6.96973 1.53223 11.7617 4.98145q4.79102 3.44922 5.66309 5.74902q0 46.7549 -1.74316 108.457q-1.74219 61.7012 -2.61328 126.086q-0.871094 64.3838 0.435547 125.702
t6.53418 107.308q-3.48535 9.19727 -11.7617 12.6465t-16.5527 2.2998q-8.27637 -1.15039 -15.2461 -5.74902t-8.71191 -11.4971z" />
    <glyph glyph-name="cent" unicode="&#xa2;" horiz-adv-x="449" 
d="M202 -65q2 15 3.5 32t3.5 35q-8 -2 -15.5 -2h-15.5q-45 0 -74 28.5t-45.5 68.5t-23 84t-6.5 75q4 57 10 124.5t21.5 128t44.5 105t79 54.5q-7 70 -17 113q10 7 17.5 11t17.5 4q8 0 13.5 -3t8.5 -12q3 -32 6 -62t5 -58q22 -11 48 -29t44.5 -40t23.5 -44.5t-14 -42.5
q-14 0 -27.5 10t-27 24.5t-25 29.5t-20.5 26q3 -59 5.5 -118t4.5 -122.5t3 -132t3 -144.5v-11q31 14 46.5 39.5t25.5 56t20 61.5t31 57q13 3 19 -0.5t8.5 -10.5t2.5 -15v-13q0 -36 -10 -71.5t-29 -65.5t-46.5 -53.5t-61.5 -36.5q3 -27 5.5 -50t2.5 -24q-29 -17 -47 -18.5
t-18 12.5zM182 55q8 0 15.5 0.5t14.5 1.5q2 61 1.5 132.5t-3.5 144t-8 143.5t-11 133q-17 -7 -31.5 -31t-26.5 -57t-21 -71t-15 -74.5t-9 -66.5t-3 -47q-3 -29 -0.5 -63t13.5 -64t31 -52t53 -29z" />
    <glyph glyph-name="ordfeminine" unicode="&#xaa;" horiz-adv-x="259" 
d="M218.273 329.785q-8.34961 10.0488 -10.4365 26.3184q-2.08789 16.2695 -2.38574 34.2139q-0.298828 17.9443 0 35.4102q0.297852 17.4658 -3.28027 29.9072q-28.0293 -49.2871 -52.7793 -76.8018q-24.749 -27.5146 -45.3242 -39.2383t-37.2734 -10.5273
t-28.3281 9.57031q-11.6289 8.37402 -18.1895 20.5762q-6.55957 12.2021 -7.15625 23.208q-4.1748 18.1836 -0.297852 43.7842q3.87598 25.6006 13.7168 52.876q9.83984 27.2754 25.0469 53.3545q15.208 26.0791 34.5898 45.2197q19.3828 19.1406 41.4482 28.4717
q22.0664 9.33105 45.9209 3.11035q11.9277 0.957031 19.9785 -0.717773t13.4189 -6.93848q5.36719 -5.26367 7.75293 -14.5947q2.38477 -9.33105 3.57812 -23.6865q-1.19336 -46.416 3.2793 -78.9551q4.47363 -32.5391 10.4365 -57.4219q5.96387 -24.8828 11.6299 -44.9805
q5.66504 -20.0977 6.8584 -41.6309q0 -7.65625 -4.77148 -11.7236q-4.77051 -4.06738 -10.7344 -5.26367t-11.0332 0.717773t-5.66504 5.74219zM183.684 571.436q-14.3135 15.3125 -31.0117 12.9199t-33.0986 -16.5088t-31.3096 -36.8457t-25.6445 -48.5693
q-10.7344 -25.8398 -15.8037 -51.4404t-2.08691 -45.2197q8.34863 -21.5332 20.2764 -25.8398t25.6436 3.11035q13.7168 7.41699 28.0303 23.6865q14.3125 16.2695 27.4326 35.1709q13.1211 18.9014 23.5576 37.8027t16.9961 31.8213z" />
    <glyph glyph-name="logicalnot" unicode="&#xac;" horiz-adv-x="613" 
d="M72 399q0 4 6 15t9 14q49 3 109 7t121.5 8t119.5 7t102 3q6 0 9.5 -5.5t5 -12.5t1.5 -13.5v-8.5q0 -58 8.5 -117.5t8.5 -130.5q0 -6 -6 -9.5t-13 -4.5t-13.5 -1h-8.5q-4 0 -10.5 1t-7.5 1l-4 240l-352 -7q-2 -1 -14 -1.5t-18 -0.5l-8.5 -0.5t-18.5 0.5t-18 4.5t-8 11.5z
" />
    <glyph glyph-name="degree" unicode="&#xb0;" horiz-adv-x="229" 
d="M32 513q-6 19 -1.5 37.5t17.5 33.5t33 24t45 9q32 0 46 -12t25 -30q8 -32 8 -58.5t-11.5 -44.5t-37 -26.5t-68.5 -6.5q-17 0 -27.5 8.5t-17 20.5t-9 24.5t-2.5 20.5zM71 514q0 -11 7.5 -17.5t15.5 -17.5q19 -2 30 -3t17.5 2.5t11.5 12.5t13 26q2 26 -13 40t-33.5 14
t-34 -14t-14.5 -43z" />
    <glyph glyph-name="copyright" unicode="&#xa9;" horiz-adv-x="552" 
d="M17 238q9 129 38 226t70.5 163t91 100.5t99 38.5t94.5 -23t78 -83q37 -69 45.5 -144.5t-6 -148.5t-49 -139t-83 -116.5t-108.5 -81t-126 -31.5q-41 0 -68.5 25.5t-44.5 62.5t-24 78t-7 73zM153 352q4 36 9 78.5t20 79t44 61t79 23.5q23 0 35 -14t17.5 -33t6 -39t0.5 -33
q-22 -5 -36.5 5.5t-23 24.5t-11 26.5t-0.5 12.5q-24 0 -39 -23t-23.5 -54t-11.5 -62t-3 -47q-2 -17 -2.5 -37t5 -38t19.5 -31t41 -17q41 12 61.5 29.5t33.5 36t25.5 36t37.5 30.5q13 2 18 -2t6 -9q9 108 -2.5 180t-36.5 112t-60.5 50.5t-74 -5.5t-76.5 -55t-68 -97
t-48.5 -133.5t-18.5 -163.5q0 -27 2.5 -57t12.5 -54.5t30.5 -41t55.5 -17.5q42 -1 78.5 13t68 39t57 59.5t44.5 73.5q-12 -12 -28 -26t-35.5 -25.5t-42 -19t-47.5 -7.5q-37 0 -60.5 20t-36.5 47.5t-17.5 56.5t-4.5 47z" />
    <glyph glyph-name="registered" unicode="&#xae;" horiz-adv-x="436" 
d="M17 238q9 129 36.5 225t67 159.5t87 96t95 34.5t91 -26t76.5 -84q43 -73 58 -149.5t5.5 -148.5t-40.5 -136t-79.5 -111t-113 -74t-139.5 -25q-41 0 -68.5 25.5t-44.5 62.5t-24 78t-7 73zM164 574l6.5 -2.5t14 -5t13.5 -5t7 -2.5q2 0 7.5 -1t4.5 -6l-4 -29q9 2 22 9t30 14
t38 12t45 3q51 -14 67.5 -33.5t10.5 -40.5t-28.5 -42.5t-50 -40t-53.5 -32.5l-39 -21q13 -6 34.5 -18.5t44.5 -26t43.5 -25t30.5 -14.5q19 -13 26 -24q23 55 32 116t3 117.5t-27.5 103t-59 71t-92 22t-126.5 -42.5q-15 -45 -30.5 -93.5t-28 -98t-21 -98.5t-8.5 -96
q0 -27 2.5 -55t13 -51t30.5 -40.5t55 -23.5q40 -8 75.5 -1t65.5 25t54.5 45t42.5 61q-19 2 -47 25q-9 3 -32 17t-49 30.5t-48.5 30.5t-31.5 16v-147l-47 5zM217 478q-1 -8 -2 -19.5t-2 -24.5t-2 -25.5t-1 -22.5q3 2 23 12l46 23t52 28.5t39.5 29.5t9.5 25.5t-37 16.5
q-14 1 -32 -1.5t-36 -8t-33.5 -14t-24.5 -19.5z" />
    <glyph glyph-name="plusminus" unicode="&#xb1;" horiz-adv-x="531" 
d="M54 96q0 4 6 15t9 14q41 2 77 7.5t71 12.5l-27 154q-3 0 -7 1q-3 0 -5.5 0.5t-4.5 0.5q-32 0 -65 -10t-60 -21q-8 6 -19 15t-11 21t13.5 18.5t33.5 9.5t43 4.5t43 4.5t33.5 9t13.5 18v241q0 6 7 9.5t16 6t16.5 3t9.5 0.5v-246q31 10 51 16.5t39 10.5t40.5 6t55.5 2
q0 -10 -3 -25t-16 -19q-21 -5 -48 -10t-48 -10q-3 -1 -9.5 -2.5t-13.5 -4t-12.5 -4.5t-7.5 -3q-3 -2 -8.5 -7t-5.5 -7v-170v-4q37 8 74 13t78 5q6 0 9.5 -5.5t5 -12.5t1.5 -13.5v-8.5q0 -4 -1 -10.5t-1 -7.5q-94 -6 -154.5 -11.5t-96.5 -10.5t-51 -8t-18 -3l-8.5 -0.5
t-18.5 0.5t-18 4.5t-8 11.5z" />
    <glyph glyph-name="twosuperior" unicode="&#xb2;" horiz-adv-x="362" 
d="M17.6279 307.957q12.9072 20.8301 29.9229 50.1055t35.2041 63.3359t35.4971 70.6553t31.3896 71.499q14.082 34.9062 22.8828 66.1514q8.80078 31.2461 9.3877 55.4541q-3.52051 21.957 -9.97461 32.9355t-20.2422 7.31836q-13.7881 -3.65918 -37.8438 -24.208
q-24.0566 -20.5498 -62.7803 -61.6475q-5.86719 3.94141 -11.4414 8.44531t-5.57422 11.2598q0 0.5625 0.293945 1.96973q0.292969 1.40723 0.292969 1.9707q12.9082 13.5117 28.75 30.4014t34.6172 31.8086q18.7754 14.9199 39.6045 24.7715
q20.8291 9.85254 43.7109 9.85254q17.0156 -7.88184 23.7627 -27.0234q6.74805 -19.1416 5.28027 -45.8838q-1.4668 -26.7422 -9.68066 -59.3945q-8.21387 -32.6543 -20.5352 -66.9961t-27.5771 -68.9658q-15.2549 -34.624 -30.5098 -65.3066t-29.3359 -56.0176
q-14.082 -25.335 -24.6436 -41.0986l173.673 31.5273q7.04102 0 12.9082 -7.59961q5.86719 -7.60059 7.04102 -18.8604l-223.545 -43.9131q-8.80078 0 -14.668 2.25195t-5.86719 15.2012z" />
    <glyph glyph-name="threesuperior" unicode="&#xb3;" horiz-adv-x="319" 
d="M42.0605 365.439q3.50684 1.70508 18.4072 8.52539q14.9014 6.82031 35.0615 18.4717t43.5342 26.9971t43.5342 34.1016t34.4766 40.0693t17.2383 45.1846q2.33691 15.9141 -1.75293 30.9756q-4.09082 15.0615 -12.5635 26.7129q-8.47363 11.6514 -20.1602 19.04
q-11.6875 7.38867 -24.543 8.52539q-13.4404 2.27344 -27.1719 -2.27344q-13.7324 -4.54688 -27.1729 -11.9355t-26.2959 -14.7773t-24.25 -10.7988q-11.3955 -3.41016 -21.0371 -1.13672t-16.6543 15.3457l127.389 123.334q21.6211 23.8711 23.666 38.6484
q2.0459 14.7773 -8.47266 21.3135t-30.0938 6.25195q-19.5762 -0.28418 -40.9053 -6.25195q-21.3281 -5.96777 -41.1963 -16.4824t-30.3867 -24.1553l-0.291992 -1.98926t-0.291992 -3.97852t-0.291992 -3.69434l-0.291992 -1.70508q-8.18164 0.568359 -13.7324 7.38867
q-5.55176 6.82031 -4.38281 14.7773q3.50586 13.6406 16.6543 25.0078q13.1475 11.3672 30.9707 20.1768q17.8223 8.80957 38.5664 14.7773q20.7451 5.96777 40.3203 8.80957q19.5762 2.8418 35.0615 2.27344t23.082 -5.11523q15.7773 -9.09375 19.2832 -22.4502
t-1.46094 -28.9863t-16.0693 -32.9648t-24.543 -33.5332t-27.1719 -31.2598q-13.7324 -15.0615 -23.667 -25.8604q28.0488 11.9355 55.8057 8.80957t48.793 -17.9033q21.0371 -14.7773 32.1396 -38.9326t5.84375 -54.8467q-3.50586 -25.0078 -16.0693 -47.1738
q-12.5645 -22.166 -30.6787 -41.2061q-18.1152 -19.04 -39.7363 -35.5225q-21.6201 -16.4824 -43.8262 -29.8389q-22.2051 -13.3564 -43.2412 -23.8711q-21.0371 -10.5146 -37.3984 -17.9033q-8.18164 -1.13672 -13.4404 3.41016t-0.584961 17.6191z" />
    <glyph glyph-name="paragraph" unicode="&#xb6;" horiz-adv-x="509" 
d="M417 33q-8 64 -12.5 117t-6.5 99.5t-2.5 90.5t-0.5 91t-0.5 99t-1.5 116q-9 -7 -15 -8t-11.5 -1.5t-12.5 -5t-17 -18.5q2 -54 6.5 -124t9 -143.5t7.5 -143.5t3 -124q0 -9 -0.5 -20.5t-3.5 -21.5t-10.5 -17t-22.5 -7q-11 0 -15 9t-6 21q1 42 -2.5 106.5t-8.5 134.5
t-10.5 137t-7.5 115q-5 -20 -25.5 -36.5t-48.5 -28t-59 -17t-57 -1t-43 18.5t-17 42q0 45 8 78t27.5 56.5t51 39.5t79.5 26q56 5 91.5 8.5t60.5 4.5t45.5 -1.5t46.5 -8.5q0 -23 2 -72t4.5 -111t5.5 -130t5 -130t4 -111t2 -72q0 -2 0.5 -15.5t0.5 -18.5q0 -8 0.5 -14.5
t-2 -11.5t-8.5 -8t-18 -3q-4 0 -9.5 5.5t-5.5 8.5z" />
    <glyph glyph-name="mu" unicode="&#xb5;" horiz-adv-x="441" 
d="M311 187q-11 -26 -31.5 -50t-44 -42t-48.5 -29t-46 -12.5t-34.5 7.5t-15.5 32q-3 0 -5.5 -17.5t-4.5 -43t-3 -55t-1 -54v-40t0 -11.5l-47 -17l7 740q4 11 11.5 13t17.5 2q8 0 15.5 -2t12.5 -13q0 -13 1 -41.5t3 -64.5t4 -75.5t4 -75.5t3.5 -64t2.5 -41q1 -8 3 -26
t5.5 -37.5t10 -35t16.5 -16.5q16 0 33.5 14.5t34 36.5t31 49t26 52t18 45t7.5 29q2 18 4 53.5t3.5 75.5t2 75.5t0.5 53.5l61 -3q6 -93 7.5 -162.5t2 -127t2.5 -108.5t10 -106q-2 -2 -11 -3t-20 -2t-20.5 -1.5t-11.5 -0.5z" />
    <glyph glyph-name="mu" unicode="&#x3bc;" horiz-adv-x="441" 
d="M311 187q-11 -26 -31.5 -50t-44 -42t-48.5 -29t-46 -12.5t-34.5 7.5t-15.5 32q-3 0 -5.5 -17.5t-4.5 -43t-3 -55t-1 -54v-40t0 -11.5l-47 -17l7 740q4 11 11.5 13t17.5 2q8 0 15.5 -2t12.5 -13q0 -13 1 -41.5t3 -64.5t4 -75.5t4 -75.5t3.5 -64t2.5 -41q1 -8 3 -26
t5.5 -37.5t10 -35t16.5 -16.5q16 0 33.5 14.5t34 36.5t31 49t26 52t18 45t7.5 29q2 18 4 53.5t3.5 75.5t2 75.5t0.5 53.5l61 -3q6 -93 7.5 -162.5t2 -127t2.5 -108.5t10 -106q-2 -2 -11 -3t-20 -2t-20.5 -1.5t-11.5 -0.5z" />
    <glyph glyph-name="onesuperior" unicode="&#xb9;" horiz-adv-x="128" 
d="M41.04 772.745q0 4.96191 6.19238 6.33984q6.19238 1.37891 14.1543 0.827148q7.96191 -0.550781 15.4814 -2.48047q7.51855 -1.92969 10.1729 -3.03223q4.42383 -108.612 3.98145 -216.122t3.98047 -217.225q5.30762 -5.5127 0.884766 -10.75
q-4.42285 -5.23828 -12.8271 -8.27051t-18.1357 -2.20508q-9.73047 0.827148 -15.9229 6.8916z" />
    <glyph glyph-name="ordmasculine" unicode="&#xba;" horiz-adv-x="242" 
d="M116.617 313.016q-31.8945 2.52051 -52.2266 16.127q-20.333 13.6074 -32.293 33.2617q-11.9609 19.6553 -15.5488 43.0898t-1.99414 46.1123q2.39258 34.7744 20.333 66.5244t44.6523 55.1836q26.7119 23.4346 59.0049 36.2861t63.3906 9.82715
q32.6914 -3.02344 53.0244 -19.6543t31.4961 -40.8213t13.5557 -52.665q2.3916 -28.4736 -0.797852 -54.6807q-3.9873 -29.7334 -20.7314 -55.4355q-16.7441 -25.7031 -41.8613 -44.3496t-56.6133 -28.9785q-31.4961 -10.3311 -63.3906 -9.82715zM193.962 590.702
q-26.3135 2.01562 -49.0381 -10.332q-22.7246 -12.3467 -40.665 -32.7578q-17.9404 -20.4102 -29.9014 -46.3643q-11.9609 -25.9551 -15.9473 -51.1533q-3.18945 -18.1426 -2.39258 -37.293q0.797852 -19.1514 7.5752 -34.7744q6.77832 -15.623 21.5293 -25.4502
t39.4697 -9.82715q19.9336 -0.503906 41.8613 8.56738t41.0645 24.4424t33.8877 35.0254q14.751 19.6553 19.5352 40.3174q5.58105 21.6709 2.79102 44.6016q-2.79102 22.9307 -11.9609 42.585q-9.16895 19.6553 -23.9209 34.0176q-14.751 14.3633 -33.8877 18.3955z" />
    <glyph glyph-name="onequarter" unicode="&#xbc;" horiz-adv-x="772" 
d="M41.04 782.216q0 5.72168 6.19238 7.31152q6.19238 1.58887 14.1543 0.953125t15.4814 -2.86133q7.51855 -2.22461 10.1729 -3.49609q4.42383 -125.241 3.98145 -249.211t3.98047 -250.482q5.30762 -6.35742 0.884766 -12.3965q-4.42285 -6.04004 -12.8271 -9.53711
q-8.4043 -3.49609 -18.1357 -2.54297q-9.73047 0.954102 -15.9229 7.94727zM318 814q18 14 35.5 13t18.5 -26l-258 -835q-10 -5 -20.5 -6.5t-19.5 1.5t-15 9t-6 16l265 828v0zM241.354 166.693q42.2793 47.8945 82.7207 91.4033q40.4424 43.5088 79.9648 86.6807
t76.7471 88.0303t73.0703 95.4502q2.75781 4.72266 11.0303 8.09473q8.27148 3.37305 17.0039 3.70996q8.73145 0.337891 16.084 -2.36035q7.35352 -2.69824 8.27246 -9.44434l-1.83789 -265.776q34.9268 0 67.5557 6.07129q32.6289 6.07031 67.5557 6.07031
q9.19141 -21.5859 -1.83789 -29.3428q-11.0303 -7.75781 -33.0889 -9.78125q-22.0586 -2.02441 -49.6328 -3.03613t-50.5518 -8.43164l1.83789 -257.008q0 -6.74512 -7.35352 -9.44336q-7.35254 -2.69824 -16.5439 -2.69824t-17.9229 2.69824t-12.4082 6.07031v253.635z
M345.215 213.238l205.885 37.1006l15.625 213.161z" />
    <glyph glyph-name="onehalf" unicode="&#xbd;" horiz-adv-x="789" 
d="M77.0771 814.856q0 5.93652 5.38379 7.58594q5.38477 1.64844 12.3076 0.989258q6.92383 -0.660156 13.4619 -2.96875t8.8457 -3.62793q3.84668 -129.942 3.46191 -258.565t3.46191 -259.885q4.61523 -6.59668 0.768555 -12.8633q-3.8457 -6.26562 -11.1533 -9.89355
t-15.7695 -2.63867q-8.46094 0.989258 -13.8457 8.24512zM374 830q18 14 35.5 13t18.5 -26l-258 -835q-10 -5 -20.5 -6.5t-19.5 1.5t-15 9t-6 16l265 828v0zM336.098 40.5664q17.0879 27.1025 39.6133 65.1914t46.6035 82.4043q24.0791 44.3154 46.9932 91.9268
q22.9131 47.6113 41.5547 93.0254t30.293 86.0664q11.6514 40.6533 12.4277 72.1494q-4.66016 28.5674 -13.2041 42.8506q-8.54492 14.2832 -26.7979 9.52246q-18.2529 -4.76172 -50.0996 -31.4971q-31.8457 -26.7354 -83.1104 -80.207q-7.76758 5.12793 -15.1465 10.9873
q-7.37891 5.86035 -7.37891 14.6494q0 0.733398 0.388672 2.56445t0.388672 2.56348q17.0879 17.5791 38.0596 39.5537t45.8271 41.3857q24.8555 19.4102 52.4297 32.2285q27.5742 12.8193 57.8672 12.8193q22.5244 -10.2549 31.457 -35.1592t6.99121 -59.6973
q-1.94238 -34.793 -12.8164 -77.2773t-27.1855 -87.166q-16.3115 -44.6807 -36.5068 -89.7285t-40.3896 -84.9678q-20.1953 -39.9209 -38.8369 -72.8828q-18.6416 -32.9609 -32.623 -53.4707l229.913 41.0186q9.32129 0 17.0879 -9.88867q7.76758 -9.8877 9.32129 -24.5381
l-295.936 -57.1338q-11.6514 0 -19.418 2.93066q-7.76758 2.92969 -7.76758 19.7764z" />
    <glyph glyph-name="threequarters" unicode="&#xbe;" horiz-adv-x="988" 
d="M84.2852 251.951q4.72852 2.22852 24.8242 11.1455q20.0967 8.91602 47.2852 24.1484q27.1895 15.2324 58.7129 35.2949q31.5234 20.0615 58.7129 44.582q27.1885 24.5205 46.4961 52.3848q19.3086 27.8643 23.249 59.0713q3.15234 20.8057 -2.36426 40.4961
t-16.9434 34.9229q-11.4277 15.2324 -27.1895 24.8926q-15.7617 9.65918 -33.0996 11.1455q-18.126 2.97168 -36.6465 -2.97266q-18.5195 -5.94434 -36.6455 -15.6035q-18.126 -9.66016 -35.4639 -19.3193t-32.7051 -14.1182q-15.3682 -4.45801 -28.3711 -1.48535
q-13.0039 2.97168 -22.4609 20.0615l171.803 161.24q29.1592 31.208 31.918 50.5273q2.75781 19.3184 -11.4277 27.8643q-14.1855 8.54492 -40.5859 8.17285q-26.4014 -0.371094 -55.166 -8.17285q-28.7656 -7.80273 -55.5605 -21.5488t-40.9805 -31.5791
l-0.394531 -2.60059q-0.393555 -2.60059 -0.393555 -5.20117t-0.393555 -4.83008l-0.394531 -2.22949q-11.0332 0.743164 -18.5195 9.66016q-7.4873 8.91602 -5.91113 19.3193q4.72852 17.833 22.46 32.6934q17.7324 14.8613 41.7695 26.3779
q24.0361 11.5176 52.0137 19.3193q27.9766 7.80176 54.377 11.5166q26.4014 3.71582 47.2852 2.97266q20.8848 -0.743164 31.1299 -6.6875q21.2783 -11.8887 26.0068 -29.3496q4.72852 -17.4619 -1.9707 -37.8955q-6.69824 -20.4336 -21.6719 -43.0967
q-14.9736 -22.6621 -33.0996 -43.8389t-36.6465 -40.8682q-18.5195 -19.6904 -31.917 -33.8076q37.8281 15.6035 75.2627 11.5166q37.4336 -4.08691 65.8047 -23.4053q28.3711 -19.3193 43.3447 -50.8984t7.88086 -71.7041q-4.72852 -32.6934 -21.6729 -61.6719
q-16.9434 -28.9785 -41.374 -53.8711q-24.4307 -24.8916 -53.5898 -46.4395q-29.1592 -21.5488 -59.1064 -39.0098q-29.9473 -17.4619 -58.3184 -31.208t-50.4375 -23.4062q-11.0332 -1.48535 -18.126 4.45801q-7.09277 5.94531 -0.788086 23.0352zM621 830q18 14 35.5 13
t18.5 -26l-258 -835q-10 -5 -20.5 -6.5t-19.5 1.5t-15 9t-6 16l265 828v0zM556.736 202.444q32.9844 55.1953 64.5332 105.338q31.5508 50.1426 62.3828 99.8965q30.833 49.7539 59.873 101.451q29.04 51.6982 57.0049 110.003q2.15137 5.44238 8.60449 9.3291
t13.2656 4.27539q6.81152 0.388672 12.5479 -2.7207t6.45312 -10.8838l-1.43359 -306.297q27.2471 0 52.7021 6.99609q25.4551 6.99707 52.7031 6.99707q7.16992 -24.877 -1.43457 -33.8174t-25.8135 -11.2725t-38.7207 -3.49805q-21.5107 -1.16602 -39.4365 -9.71777
l1.43359 -296.191q0 -7.77344 -5.73633 -10.8838q-5.73633 -3.10938 -12.9062 -3.10938q-7.1709 0 -13.9824 3.10938q-6.81152 3.11035 -9.68066 6.99707v292.304zM637.762 256.085l160.617 42.7568l12.1895 245.66z" />
    <glyph glyph-name="questiondown" unicode="&#xbf;" horiz-adv-x="617" 
d="M386.902 985.905q0 -18.1582 -7.87891 -23.4141q-7.87793 -5.25684 -22.5098 -5.25684q-21.3838 0 -36.0156 12.9023q-14.6309 12.9014 -14.6309 30.1035q0 15.291 12.9434 21.0254t29.8252 5.73438q6.75293 0 13.5059 -4.77832t12.3799 -11.4688
q5.62793 -6.68945 9.00391 -13.3789q3.37695 -6.69043 3.37695 -11.4688zM453.307 556.801q0 -43.0059 -24.1982 -77.8877q-24.1982 -34.8828 -59.6514 -66.4209q-35.4531 -31.5371 -77.6582 -61.1641q-42.2061 -29.626 -77.6592 -61.6416
q-35.4521 -32.0156 -59.6504 -67.376t-24.1982 -78.3672q0 -24.8477 15.1943 -36.7939q15.1943 -11.9453 37.7041 -16.2461t48.958 -3.82324q26.4492 0.478516 47.833 0.478516q40.5176 0 76.5332 13.3789q36.0156 13.3799 69.2178 29.1484q33.2021 15.7695 65.8408 28.6709
q32.6396 12.9023 66.4043 12.9023q15.7568 0 27.0117 -3.3457q11.2549 -3.34473 11.2549 -25.3252q0 -12.4238 -21.3838 -25.3262q-21.3848 -12.9014 -54.5869 -24.8477t-73.7197 -22.9365t-79.3467 -18.6357t-69.7803 -12.4238t-46.707 -4.77832
q-28.1377 0 -60.7773 3.82227q-32.6387 3.82324 -59.6504 13.8574q-27.0117 10.0352 -45.0195 28.6709t-18.0078 48.2617q0 54.4746 32.0762 107.516t77.6592 100.347q45.582 47.3066 95.1035 87.9238q49.5215 40.6162 84.4111 72.1543q15.7578 6.69043 19.6963 20.0693
q3.93945 13.3799 -0.5625 27.7148q-4.50195 14.3359 -18.0078 27.7148q-13.5059 13.3799 -33.7646 20.0703q-20.2588 6.68945 -46.708 4.2998q-26.4482 -2.38867 -57.9619 -18.6357l-23.6357 41.0947q25.8857 17.2021 61.3389 22.9365t66.9668 5.73438
q23.6348 0 46.708 -6.21191q23.0723 -6.21191 41.6426 -18.1582q18.5713 -11.9463 29.8252 -28.6709q11.2559 -16.7246 11.2559 -37.75z" />
    <glyph glyph-name="Agrave" unicode="&#xc0;" horiz-adv-x="641" 
d="M16 -30q7 23 22.5 76t40.5 151.5t61.5 250.5t85.5 374q6 10 17 13.5t22 2t18.5 -7t6.5 -12.5l197 -479l102 31q13 0 22 -7t10 -17t-7 -21.5t-28 -18.5q-8 -3 -21 -6.5t-26 -6.5t-22 -6t-9 -6l111 -296q-2 -5 -4 -12.5t-8 -12t-18 -3t-34 14.5l-115 294q-21 -6 -52 -11.5
t-65 -11t-68.5 -13t-63.5 -18.5t-49 -26.5t-24 -37.5q-2 -14 -7.5 -46t-10.5 -64q-6 -38 -14 -82q-18 -18 -32.5 -12t-37.5 26zM267 712l-106 -445q17 6 47 13t65 15t70.5 16t64.5 17zM280 870q-11 12 -25.5 27.5t-28.5 32.5t-24.5 34t-11.5 31q-12 14 -4.5 28t32.5 16
q23 -25 45.5 -52t35 -50.5t10.5 -41.5t-29 -25z" />
    <glyph glyph-name="Aacute" unicode="&#xc1;" horiz-adv-x="630" 
d="M-1 0q7 23 22.5 76t40.5 151.5t61.5 250.5t85.5 374q6 10 17 13.5t22 2t18.5 -7t6.5 -12.5l197 -479l102 31q13 0 22 -7t10 -17t-7 -21.5t-28 -18.5q-8 -3 -21 -6.5t-26 -6.5t-22 -6t-9 -6l111 -296q-2 -5 -4 -12.5t-8 -12t-18 -3t-34 14.5l-115 294q-21 -6 -52 -11.5
t-65 -11t-68.5 -13t-63.5 -18.5t-49 -26.5t-24 -37.5q-2 -14 -7.5 -46t-10.5 -64q-6 -38 -14 -82q-18 -18 -32.5 -12t-37.5 26zM250 742l-106 -445q17 6 47 13t65 15t70.5 16t64.5 17zM188 892q-30 6 -33 23t11.5 38.5t40 46.5t51.5 48q18 0 25 -10t7 -23v-8
q-2 -13 -13.5 -28.5t-27 -31t-32.5 -30t-29 -25.5z" />
    <glyph glyph-name="Acircumflex" unicode="&#xc2;" horiz-adv-x="613" 
d="M-1 0q7 23 22.5 76t40.5 151.5t61.5 250.5t85.5 374q6 10 17 13.5t22 2t18.5 -7t6.5 -12.5l197 -479l102 31q13 0 22 -7t10 -17t-7 -21.5t-28 -18.5q-8 -3 -21 -6.5t-26 -6.5t-22 -6t-9 -6l111 -296q-2 -5 -4 -12.5t-8 -12t-18 -3t-34 14.5l-115 294q-21 -6 -52 -11.5
t-65 -11t-68.5 -13t-63.5 -18.5t-49 -26.5t-24 -37.5q-2 -14 -7.5 -46t-10.5 -64q-6 -38 -14 -82q-18 -18 -32.5 -12t-37.5 26zM250 742l-106 -445q17 6 47 13t65 15t70.5 16t64.5 17zM166 876q-7 -6 -16 -8t-17 0.5t-13 8.5t-3 16l98 183q1 3 8 8t15 7.5t15.5 1t11.5 -10.5
l122 -173q9 -11 5 -18.5t-13 -11.5t-20.5 -4t-17.5 5l-97 137z" />
    <glyph glyph-name="Atilde" unicode="&#xc3;" horiz-adv-x="618" 
d="M-1 0q7 23 22.5 76t40.5 151.5t61.5 250.5t85.5 374q6 10 17 13.5t22 2t18.5 -7t6.5 -12.5l197 -479l102 31q13 0 22 -7t10 -17t-7 -21.5t-28 -18.5q-8 -3 -21 -6.5t-26 -6.5t-22 -6t-9 -6l111 -296q-2 -5 -4 -12.5t-8 -12t-18 -3t-34 14.5l-115 294q-21 -6 -52 -11.5
t-65 -11t-68.5 -13t-63.5 -18.5t-49 -26.5t-24 -37.5q-2 -14 -7.5 -46t-10.5 -64q-6 -38 -14 -82q-18 -18 -32.5 -12t-37.5 26zM250 742l-106 -445q17 6 47 13t65 15t70.5 16t64.5 17zM397 1022q16 5 29.5 5.5t19.5 -19.5q-5 -30 -23 -61t-43.5 -47.5t-57.5 -11.5t-66 47
q-17 25 -39 36t-42 7.5t-33 -23.5t-12 -56q-11 -4 -18 -2.5t-11 6t-6 12t-5 15.5q0 33 11.5 55t29.5 33.5t40.5 14t44 -3t39.5 -18.5t27 -32q20 -31 37.5 -39t31 -3t23.5 19.5t16.5 29t8 26t-1.5 10.5z" />
    <glyph glyph-name="Adieresis" unicode="&#xc4;" horiz-adv-x="624" 
d="M-1 0q7 23 22.5 76t40.5 151.5t61.5 250.5t85.5 374q6 10 17 13.5t22 2t18.5 -7t6.5 -12.5l197 -479l102 31q13 0 22 -7t10 -17t-7 -21.5t-28 -18.5q-8 -3 -21 -6.5t-26 -6.5t-22 -6t-9 -6l111 -296q-2 -5 -4 -12.5t-8 -12t-18 -3t-34 14.5l-115 294q-21 -6 -52 -11.5
t-65 -11t-68.5 -13t-63.5 -18.5t-49 -26.5t-24 -37.5q-2 -14 -7.5 -46t-10.5 -64q-6 -38 -14 -82q-18 -18 -32.5 -12t-37.5 26zM250 742l-106 -445q17 6 47 13t65 15t70.5 16t64.5 17zM128 927q-5 16 8 27t30.5 13.5t32.5 -6.5t15 -34q0 -6 -4 -14.5t-10.5 -16t-14 -11.5
t-14.5 -1q-7 -5 -15.5 -2.5t-15.5 9t-10.5 16t-1.5 20.5zM266 930q3 20 18 31t32 11t31 -11t14 -34q0 -6 -4 -14.5t-10.5 -16t-14 -11.5t-14.5 -1q-7 -5 -17 -2t-18.5 10t-13.5 17t-3 21z" />
    <glyph glyph-name="Aring" unicode="&#xc5;" horiz-adv-x="621" 
d="M-1 0q7 23 22.5 76t40.5 151.5t61.5 250.5t85.5 374q6 10 17 13.5t22 2t18.5 -7t6.5 -12.5l197 -479l102 31q13 0 22 -7t10 -17t-7 -21.5t-28 -18.5q-8 -3 -21 -6.5t-26 -6.5t-22 -6t-9 -6l111 -296q-2 -5 -4 -12.5t-8 -12t-18 -3t-34 14.5l-115 294q-21 -6 -52 -11.5
t-65 -11t-68.5 -13t-63.5 -18.5t-49 -26.5t-24 -37.5q-2 -14 -7.5 -46t-10.5 -64q-6 -38 -14 -82q-18 -18 -32.5 -12t-37.5 26zM250 742l-106 -445q17 6 47 13t65 15t70.5 16t64.5 17zM119 989q0 35 19 58.5t47 35t61 11.5t61.5 -11t48 -32.5t21.5 -53.5q6 -25 -9.5 -45
t-43 -32t-61.5 -15.5t-65 4t-53.5 27t-25.5 53.5zM176 991q11 -20 34 -31t46.5 -11.5t42.5 10.5t21 35q2 19 -8 32t-26.5 19.5t-36 6.5t-36 -6.5t-27.5 -20t-10 -34.5z" />
    <glyph glyph-name="germandbls" unicode="&#xdf;" horiz-adv-x="569" 
d="M98 -98q0 -26 -15 -30t-44 7l-2 823q4 31 35.5 57t76.5 44t96 27.5t95 8.5t73.5 -14.5t31.5 -40.5q0 -27 -12.5 -56.5t-32.5 -59.5t-44 -59t-47 -54.5t-43 -46t-30 -33.5q15 14 42.5 26t60.5 19t67.5 7.5t64 -9.5t50.5 -31.5t27 -58.5q5 -33 -16.5 -78.5t-58.5 -93
t-83.5 -93t-91 -79.5t-82 -53.5t-55.5 -13.5l-33 37q8 2 34.5 16.5t61.5 38t75 53.5t76.5 63.5t64.5 68t39 66.5t0.5 59t-50.5 46q-56 7 -120.5 -9.5t-118.5 -53.5v116q38 34 77.5 73.5t67.5 77t37 69t-13 50.5q-18 2 -43.5 0.5t-53.5 -7t-56 -15.5t-51 -24.5t-38.5 -33.5
t-18.5 -42v-764z" />
    <glyph glyph-name="thorn" unicode="&#xfe;" horiz-adv-x="463" 
d="M29 -3v850q13 0 24.5 1.5t20 0.5t13.5 -6.5t5 -20.5v-199q39 51 71.5 81.5t61.5 46t56.5 19t55.5 0.5q32 0 53 -13.5t33.5 -36t17.5 -51.5t5 -60q-1 -33 -9.5 -76t-42 -93.5t-101.5 -107.5t-189 -117l-12 -221zM95 284q5 5 28 15.5t55 28.5t68 44t67.5 60.5t53.5 78.5
t26 98q0 15 -4.5 33t-14 33.5t-24 26t-34.5 10.5q-41 0 -74.5 -20.5t-60.5 -51.5t-47.5 -67.5t-34.5 -68.5z" />
    <glyph glyph-name="Thorn" unicode="&#xde;" horiz-adv-x="453" 
d="M38 -293l-9 922q13 0 24.5 1.5t20 0.5t13.5 -6.5t5 -20.5v-199q39 51 71.5 81.5t61.5 46t56.5 19t55.5 0.5q32 0 53 -13.5t33.5 -36t17.5 -51.5t5 -60q-1 -33 -9.5 -76t-42 -93.5t-101.5 -107.5t-189 -117l-3 -293zM95 66q5 4 28 15t55 29t68 44t67.5 60.5t53.5 78.5
t26 98q0 15 -4.5 33t-14 33.5t-24 26t-34.5 10.5q-41 0 -74.5 -20.5t-60.5 -51.5t-47.5 -67.5t-34.5 -68.5z" />
    <glyph glyph-name="multiply" unicode="&#xd7;" horiz-adv-x="517" 
d="M353 512q17 6 28 2.5t15.5 -11.5t1.5 -18.5t-14 -19.5l-110 -133q9 -18 26 -40.5t32.5 -45.5t26.5 -45.5t9 -39.5q-9 -18 -34 -11q-25 3 -31.5 16t-11 32.5t-15.5 44t-46 51.5q-23 -21 -51 -52t-46 -68q-4 -2 -13.5 -1.5t-19.5 3t-17 7t-6 10.5l122 149l-107 164v6t1 8
q4 7 13 14.5t26 0.5q7 -12 18 -31t25 -39.5t30 -40.5t31 -34q2 -1 3 -1q1 -1 3 -1q3 -1 3 -2.5t1.5 -0.5t6 6.5t16 19.5t31.5 38.5t53 62.5z" />
    <glyph glyph-name="divide" unicode="&#xf7;" horiz-adv-x="393" 
d="M204 522q0 17 11 26.5t24 10.5t24 -7t12 -25q0 -21 -11 -31t-24 -10t-24 9t-12 27zM204 329q0 17 11 26.5t24 10.5t24 -7t12 -25q0 -21 -11 -31t-24 -10t-24 9t-12 27zM26 312q0 4 6 15t9 14q49 3 86.5 7.5t71 9.5t68.5 8.5t79 3.5q6 0 9.5 -5.5t5 -12.5t1.5 -13.5v-8.5
q0 -4 -1 -10.5t-1 -7.5l-249 -14q-2 -1 -14 -1.5t-18 -0.5l-8.5 -0.5t-18.5 0.5t-18 4.5t-8 11.5z" />
    <glyph glyph-name="eth" unicode="&#xf0;" horiz-adv-x="523" 
d="M451 576l-90 -22q52 -118 58.5 -214.5t-20 -167.5t-81 -114t-125.5 -55q-51 3 -86.5 33t-56 73t-27 92t2 90.5t32 69t60.5 27.5q66 0 121.5 -33t104.5 -93q16 22 15 59.5t-11.5 79t-25.5 81t-26 65.5l-187 -25q-3 7 -6.5 19t-4.5 23.5t3.5 20.5t16.5 11l144 19
q-19 41 -42.5 88.5t-52.5 104.5q-14 15 -7.5 23.5t20.5 11.5t29.5 0t19.5 -11l103 -212l169 33q31 -20 31.5 -33t-14 -21.5t-35.5 -13.5t-32 -9zM218 72q50 31 68 63.5t13.5 63t-25.5 57t-48 44t-55.5 25.5t-46.5 1q-19 -7 -30.5 -30.5t-14 -54t4 -63.5t23.5 -59t44.5 -40
t66.5 -7z" />
    <glyph glyph-name="commaaccent" unicode="&#xf6c3;" horiz-adv-x="173" 
d="M117 -282q-23 -11 -35.5 -6.5t-21.5 21.5q4 17 9.5 41t8.5 49.5t1.5 50t-10.5 43.5q0 16 1.5 25.5t6 14.5t14 7t24.5 2q10 -15 17.5 -34.5t9.5 -48t-3.5 -68.5t-21.5 -97z" />
    <glyph glyph-name="macron" unicode="&#xaf;" horiz-adv-x="455" 
d="M66 636q-8 -5 -16.5 2.5t-11.5 20t2.5 25.5t25.5 18l345 11q10 0 15 -7t6 -17t-1.5 -21t-7.5 -18l-357 -14v0z" />
    <glyph glyph-name="breve" unicode="&#x2d8;" horiz-adv-x="388" 
d="M106 745q4 -3 10.5 -12t15.5 -18t21.5 -14.5t28.5 -1.5t35 21t42 54q23 16 35 14.5t15 -13t0 -28t-10 -29.5q-34 -44 -62.5 -64.5t-53 -25t-44 3.5t-35 21.5t-27.5 28.5l-20 25q-16 10 -11.5 24t17.5 23t27 9t16 -18z" />
    <glyph glyph-name="Abreve" unicode="&#x102;" horiz-adv-x="633" 
d="M-1 0q7 23 22.5 76t40.5 151.5t61.5 250.5t85.5 374q6 10 17 13.5t22 2t18.5 -7t6.5 -12.5l197 -479l102 31q13 0 22 -7t10 -17t-7 -21.5t-28 -18.5q-8 -3 -21 -6.5t-26 -6.5t-22 -6t-9 -6l111 -296q-2 -5 -4 -12.5t-8 -12t-18 -3t-34 14.5l-115 294q-21 -6 -52 -11.5
t-65 -11t-68.5 -13t-63.5 -18.5t-49 -26.5t-24 -37.5q-2 -14 -7.5 -46t-10.5 -64q-6 -38 -14 -82q-18 -18 -32.5 -12t-37.5 26zM250 742l-106 -445q17 6 47 13t65 15t70.5 16t64.5 17zM142 1013q4 -3 10.5 -12t15.5 -18t21.5 -14.5t28.5 -1.5t35 21t42 54q23 16 35 14.5
t15 -13t0 -28t-10 -29.5q-34 -44 -62.5 -64.5t-53 -25t-44 3.5t-35 21.5t-27.5 28.5l-20 25q-16 10 -11.5 24t17.5 23t27 9t16 -18z" />
    <glyph glyph-name="Amacron" unicode="&#x100;" horiz-adv-x="607" 
d="M-1 0q7 23 22.5 76t40.5 151.5t61.5 250.5t85.5 374q6 10 17 13.5t22 2t18.5 -7t6.5 -12.5l197 -479l102 31q13 0 22 -7t10 -17t-7 -21.5t-28 -18.5q-8 -3 -21 -6.5t-26 -6.5t-22 -6t-9 -6l111 -296q-2 -5 -4 -12.5t-8 -12t-18 -3t-34 14.5l-115 294q-21 -6 -52 -11.5
t-65 -11t-68.5 -13t-63.5 -18.5t-49 -26.5t-24 -37.5q-2 -14 -7.5 -46t-10.5 -64q-6 -38 -14 -82q-18 -18 -32.5 -12t-37.5 26zM250 742l-106 -445q17 6 47 13t65 15t70.5 16t64.5 17zM88 896q-8 -5 -16.5 2.5t-11.5 20t2.5 25.5t25.5 18l345 11q10 0 15 -7t6 -17t-1.5 -21
t-7.5 -18l-357 -14v0z" />
    <glyph glyph-name="Aogonek" unicode="&#x104;" horiz-adv-x="644" 
d="M-1 0q7 23 22.5 76t40.5 151.5t61.5 250.5t85.5 374q6 10 17 13.5t22 2t18.5 -7t6.5 -12.5l197 -479l102 31q13 0 22 -7t10 -17t-7 -21.5t-28 -18.5q-8 -3 -21 -6.5t-26 -6.5t-22 -6t-9 -6l111 -296q-2 -5 -4 -12.5t-8 -12t-18 -3t-34 14.5l-115 294q-21 -6 -52 -11.5
t-65 -11t-68.5 -13t-63.5 -18.5t-49 -26.5t-24 -37.5q-2 -14 -7.5 -46t-10.5 -64q-6 -38 -14 -82q-18 -18 -32.5 -12t-37.5 26zM250 742l-106 -445q17 6 47 13t65 15t70.5 16t64.5 17zM679 -145q22 -16 15.5 -36t-32 -36.5t-65 -25t-83.5 -0.5q-42 12 -64 48.5t-21 82t26 91
t77 74.5q18 1 22.5 -7.5t1.5 -20t-9.5 -21.5t-10.5 -13q-23 -29 -35.5 -58.5t-13 -54t11.5 -41.5t38 -21q18 0 35.5 6t35 13.5t35 13.5t36.5 6z" />
    <glyph glyph-name="Cacute" unicode="&#x106;" horiz-adv-x="555" 
d="M28 199q0 36 7.5 98t22 134t37.5 145.5t54 133t70.5 97.5t87.5 38q27 0 46.5 -10t32.5 -27t19 -39t6 -47q-27 -13 -41 -6t-22.5 21.5t-16.5 30.5t-23 20q-36 0 -66 -34.5t-54 -87.5t-42 -118t-30 -126.5t-18 -111.5t-6 -74q0 -32 2.5 -61.5t13 -52.5t31.5 -36.5t59 -13.5
q45 0 88.5 26t80 65t64 83.5t39.5 80.5q2 1 10 1.5t10 0.5q13 0 25 -3t12 -20q-7 -36 -31.5 -75.5t-58 -77t-73 -70t-77.5 -54.5t-70.5 -30.5t-52.5 1.5q-36 0 -62 20.5t-42.5 50.5t-24 64.5t-7.5 63.5zM241 866q-30 6 -33 23t11.5 38.5t40 46.5t51.5 48q18 0 25 -10t7 -23
v-8q-2 -13 -13.5 -28.5t-27 -31t-32.5 -30t-29 -25.5z" />
    <glyph glyph-name="Ccaron" unicode="&#x10c;" horiz-adv-x="555" 
d="M28 199q0 36 7.5 98t22 134t37.5 145.5t54 133t70.5 97.5t87.5 38q27 0 46.5 -10t32.5 -27t19 -39t6 -47q-27 -13 -41 -6t-22.5 21.5t-16.5 30.5t-23 20q-36 0 -66 -34.5t-54 -87.5t-42 -118t-30 -126.5t-18 -111.5t-6 -74q0 -32 2.5 -61.5t13 -52.5t31.5 -36.5t59 -13.5
q45 0 88.5 26t80 65t64 83.5t39.5 80.5q2 1 10 1.5t10 0.5q13 0 25 -3t12 -20q-7 -36 -31.5 -75.5t-58 -77t-73 -70t-77.5 -54.5t-70.5 -30.5t-52.5 1.5q-36 0 -62 20.5t-42.5 50.5t-24 64.5t-7.5 63.5zM346 1101q7 6 17 6.5t19.5 -3.5t15.5 -11t5 -17l-98 -183
q-2 -3 -8.5 -8t-14.5 -7.5t-15.5 -1t-11.5 10.5l-122 173q-9 11 -4.5 20t14.5 14.5t22 6.5t18 -3l89 -135z" />
    <glyph glyph-name="Ccedilla" unicode="&#xc7;" horiz-adv-x="555" 
d="M28 199q0 36 7.5 98t22 134t37.5 145.5t54 133t70.5 97.5t87.5 38q27 0 46.5 -10t32.5 -27t19 -39t6 -47q-27 -13 -41 -6t-22.5 21.5t-16.5 30.5t-23 20q-36 0 -66 -34.5t-54 -87.5t-42 -118t-30 -126.5t-18 -111.5t-6 -74q0 -32 2.5 -61.5t13 -52.5t31.5 -36.5t59 -13.5
q45 0 88.5 26t80 65t64 83.5t39.5 80.5q2 1 10 1.5t10 0.5q13 0 25 -3t12 -20q-7 -36 -31.5 -75.5t-58 -77t-73 -70t-77.5 -54.5t-70.5 -30.5t-52.5 1.5q-36 0 -62 20.5t-42.5 50.5t-24 64.5t-7.5 63.5zM170 -184q0 -2 20.5 -4t45.5 0.5t46.5 11.5t23.5 27q1 7 1.5 15.5
t-5 17.5t-19 19.5t-40.5 22.5q-24 0 -41 3.5t-27.5 13t-15 26t-4.5 42.5q4 24 11.5 33.5t15.5 9t15.5 -8t12 -16.5t5.5 -17.5t-4 -10.5q3 -16 21.5 -21.5t42.5 -12t48.5 -20t40.5 -44.5q19 -39 6.5 -67.5t-42 -47t-67 -27t-68.5 -5.5q-12 0 -17 6.5t-6.5 15.5t-0.5 19.5
t1 18.5z" />
    <glyph glyph-name="Ccircumflex" unicode="&#x108;" horiz-adv-x="555" 
d="M28 199q0 36 7.5 98t22 134t37.5 145.5t54 133t70.5 97.5t87.5 38q27 0 46.5 -10t32.5 -27t19 -39t6 -47q-27 -13 -41 -6t-22.5 21.5t-16.5 30.5t-23 20q-36 0 -66 -34.5t-54 -87.5t-42 -118t-30 -126.5t-18 -111.5t-6 -74q0 -32 2.5 -61.5t13 -52.5t31.5 -36.5t59 -13.5
q45 0 88.5 26t80 65t64 83.5t39.5 80.5q2 1 10 1.5t10 0.5q13 0 25 -3t12 -20q-7 -36 -31.5 -75.5t-58 -77t-73 -70t-77.5 -54.5t-70.5 -30.5t-52.5 1.5q-36 0 -62 20.5t-42.5 50.5t-24 64.5t-7.5 63.5zM214 892q-7 -6 -16 -8t-17 0.5t-13 8.5t-3 16l98 183q1 3 8 8t15 7.5
t15.5 1t11.5 -10.5l122 -173q9 -11 5 -18.5t-13 -11.5t-20.5 -4t-17.5 5l-97 137z" />
    <glyph glyph-name="Cdotaccent" unicode="&#x10a;" horiz-adv-x="555" 
d="M28 199q0 36 7.5 98t22 134t37.5 145.5t54 133t70.5 97.5t87.5 38q27 0 46.5 -10t32.5 -27t19 -39t6 -47q-27 -13 -41 -6t-22.5 21.5t-16.5 30.5t-23 20q-36 0 -66 -34.5t-54 -87.5t-42 -118t-30 -126.5t-18 -111.5t-6 -74q0 -32 2.5 -61.5t13 -52.5t31.5 -36.5t59 -13.5
q45 0 88.5 26t80 65t64 83.5t39.5 80.5q2 1 10 1.5t10 0.5q13 0 25 -3t12 -20q-7 -36 -31.5 -75.5t-58 -77t-73 -70t-77.5 -54.5t-70.5 -30.5t-52.5 1.5q-36 0 -62 20.5t-42.5 50.5t-24 64.5t-7.5 63.5zM224 968q1 13 12.5 23.5t25.5 13.5t28 -5t20 -32q0 -6 -4 -14.5
t-10.5 -16t-14 -11.5t-14.5 -1q-7 -5 -15.5 -2.5t-15.5 9t-10.5 16t-1.5 20.5z" />
    <glyph glyph-name="Dcaron" unicode="&#x10e;" horiz-adv-x="631" 
d="M179 37q-1 10 25 37t66 66t87.5 89.5t89.5 109t71.5 123t33.5 131.5q0 31 -17 55.5t-43.5 44t-60.5 33.5t-67.5 23.5t-64.5 14t-52 4.5q-5 0 -14.5 -0.5t-21.5 -3t-24.5 -6t-22.5 -9.5l46 -608q5 -11 -0.5 -24t-16 -22t-22.5 -9.5t-19 13.5l-49 623q-3 -2 -11.5 -6
t-17.5 -8.5t-17 -9t-11 -5.5q-1 0 -3.5 -0.5t-3.5 -0.5q-6 0 -13.5 3t-7.5 13q0 17 7.5 27.5t19 19.5t25 17.5t25 22.5t19 35t7.5 54q22 0 27.5 -8t6.5 -18.5t3 -21t16 -15.5q31 3 76 2t94 -10t97 -25.5t86 -44.5t60 -67.5t19 -92.5q-8 -82 -42 -158.5t-86.5 -148.5
t-121.5 -140.5t-147 -135.5q-1 0 -3.5 -0.5t-3.5 -0.5q-10 0 -16.5 14t-6.5 24zM359 1103q7 6 17 6.5t19.5 -3.5t15.5 -11t5 -17l-98 -183q-2 -3 -8.5 -8t-14.5 -7.5t-15.5 -1t-11.5 10.5l-122 173q-9 11 -4.5 20t14.5 14.5t22 6.5t18 -3l89 -135z" />
    <glyph glyph-name="Eacute" unicode="&#xc9;" horiz-adv-x="540" 
d="M48 22q0 96 3.5 196t3 201.5t-8.5 201.5t-30 196q0 5 4 12.5t10 13.5t13.5 9.5t15.5 0.5q13 -5 21.5 -19.5t13 -31.5t6 -32.5t1.5 -22.5l385 96q9 -2 14.5 -10.5t5 -19t-7 -20.5t-19.5 -14l-379 -103q0 -65 3.5 -129t8.5 -130l278 97l6 6t14.5 10t18 3t18.5 -15
q0 -20 -24 -36.5t-59.5 -30.5t-77 -26.5t-77 -25.5t-59.5 -26.5t-24 -28.5l-7 -263q15 -9 43.5 -5.5t63.5 13.5t74 24.5t75 27.5t66.5 23t49.5 11q9 -1 16 -6.5t10 -12.5t0.5 -14.5t-13.5 -12.5q-39 -17 -94 -38t-113.5 -40.5t-113.5 -34t-93 -17.5q-14 2 -22.5 6.5
t-19.5 16.5zM233 836q-30 6 -33 23t11.5 38.5t40 46.5t51.5 48q18 0 25 -10t7 -23v-8q-2 -13 -13.5 -28.5t-27 -31t-32.5 -30t-29 -25.5z" />
    <glyph glyph-name="Ebreve" unicode="&#x114;" horiz-adv-x="540" 
d="M48 22q0 96 3.5 196t3 201.5t-8.5 201.5t-30 196q0 5 4 12.5t10 13.5t13.5 9.5t15.5 0.5q13 -5 21.5 -19.5t13 -31.5t6 -32.5t1.5 -22.5l385 96q9 -2 14.5 -10.5t5 -19t-7 -20.5t-19.5 -14l-379 -103q0 -65 3.5 -129t8.5 -130l278 97l6 6t14.5 10t18 3t18.5 -15
q0 -20 -24 -36.5t-59.5 -30.5t-77 -26.5t-77 -25.5t-59.5 -26.5t-24 -28.5l-7 -263q15 -9 43.5 -5.5t63.5 13.5t74 24.5t75 27.5t66.5 23t49.5 11q9 -1 16 -6.5t10 -12.5t0.5 -14.5t-13.5 -12.5q-39 -17 -94 -38t-113.5 -40.5t-113.5 -34t-93 -17.5q-14 2 -22.5 6.5
t-19.5 16.5zM167 948q4 -3 10.5 -12t15.5 -18t21.5 -14.5t28.5 -1.5t35 21t42 54q23 16 35 14.5t15 -13t0 -28t-10 -29.5q-34 -44 -62.5 -64.5t-53 -25t-44 3.5t-35 21.5t-27.5 28.5l-20 25q-16 10 -11.5 24t17.5 23t27 9t16 -18z" />
    <glyph glyph-name="Ecaron" unicode="&#x11a;" horiz-adv-x="540" 
d="M48 22q0 96 3.5 196t3 201.5t-8.5 201.5t-30 196q0 5 4 12.5t10 13.5t13.5 9.5t15.5 0.5q13 -5 21.5 -19.5t13 -31.5t6 -32.5t1.5 -22.5l385 96q9 -2 14.5 -10.5t5 -19t-7 -20.5t-19.5 -14l-379 -103q0 -65 3.5 -129t8.5 -130l278 97l6 6t14.5 10t18 3t18.5 -15
q0 -20 -24 -36.5t-59.5 -30.5t-77 -26.5t-77 -25.5t-59.5 -26.5t-24 -28.5l-7 -263q15 -9 43.5 -5.5t63.5 13.5t74 24.5t75 27.5t66.5 23t49.5 11q9 -1 16 -6.5t10 -12.5t0.5 -14.5t-13.5 -12.5q-39 -17 -94 -38t-113.5 -40.5t-113.5 -34t-93 -17.5q-14 2 -22.5 6.5
t-19.5 16.5zM302 1048q7 6 17 6.5t19.5 -3.5t15.5 -11t5 -17l-98 -183q-2 -3 -8.5 -8t-14.5 -7.5t-15.5 -1t-11.5 10.5l-122 173q-9 11 -4.5 20t14.5 14.5t22 6.5t18 -3l89 -135z" />
    <glyph glyph-name="Ecircumflex" unicode="&#xca;" horiz-adv-x="540" 
d="M48 22q0 96 3.5 196t3 201.5t-8.5 201.5t-30 196q0 5 4 12.5t10 13.5t13.5 9.5t15.5 0.5q13 -5 21.5 -19.5t13 -31.5t6 -32.5t1.5 -22.5l385 96q9 -2 14.5 -10.5t5 -19t-7 -20.5t-19.5 -14l-379 -103q0 -65 3.5 -129t8.5 -130l278 97l6 6t14.5 10t18 3t18.5 -15
q0 -20 -24 -36.5t-59.5 -30.5t-77 -26.5t-77 -25.5t-59.5 -26.5t-24 -28.5l-7 -263q15 -9 43.5 -5.5t63.5 13.5t74 24.5t75 27.5t66.5 23t49.5 11q9 -1 16 -6.5t10 -12.5t0.5 -14.5t-13.5 -12.5q-39 -17 -94 -38t-113.5 -40.5t-113.5 -34t-93 -17.5q-14 2 -22.5 6.5
t-19.5 16.5zM193 872q-7 -6 -16 -8t-17 0.5t-13 8.5t-3 16l98 183q1 3 8 8t15 7.5t15.5 1t11.5 -10.5l122 -173q9 -11 5 -18.5t-13 -11.5t-20.5 -4t-17.5 5l-97 137z" />
    <glyph glyph-name="Edieresis" unicode="&#xcb;" horiz-adv-x="540" 
d="M48 22q0 96 3.5 196t3 201.5t-8.5 201.5t-30 196q0 5 4 12.5t10 13.5t13.5 9.5t15.5 0.5q13 -5 21.5 -19.5t13 -31.5t6 -32.5t1.5 -22.5l385 96q9 -2 14.5 -10.5t5 -19t-7 -20.5t-19.5 -14l-379 -103q0 -65 3.5 -129t8.5 -130l278 97l6 6t14.5 10t18 3t18.5 -15
q0 -20 -24 -36.5t-59.5 -30.5t-77 -26.5t-77 -25.5t-59.5 -26.5t-24 -28.5l-7 -263q15 -9 43.5 -5.5t63.5 13.5t74 24.5t75 27.5t66.5 23t49.5 11q9 -1 16 -6.5t10 -12.5t0.5 -14.5t-13.5 -12.5q-39 -17 -94 -38t-113.5 -40.5t-113.5 -34t-93 -17.5q-14 2 -22.5 6.5
t-19.5 16.5zM158 932q-5 16 8 27t30.5 13.5t32.5 -6.5t15 -34q0 -6 -4 -14.5t-10.5 -16t-14 -11.5t-14.5 -1q-7 -5 -15.5 -2.5t-15.5 9t-10.5 16t-1.5 20.5zM296 935q3 20 18 31t32 11t31 -11t14 -34q0 -6 -4 -14.5t-10.5 -16t-14 -11.5t-14.5 -1q-7 -5 -17 -2t-18.5 10
t-13.5 17t-3 21z" />
    <glyph glyph-name="Edotaccent" unicode="&#x116;" horiz-adv-x="540" 
d="M48 22q0 96 3.5 196t3 201.5t-8.5 201.5t-30 196q0 5 4 12.5t10 13.5t13.5 9.5t15.5 0.5q13 -5 21.5 -19.5t13 -31.5t6 -32.5t1.5 -22.5l385 96q9 -2 14.5 -10.5t5 -19t-7 -20.5t-19.5 -14l-379 -103q0 -65 3.5 -129t8.5 -130l278 97l6 6t14.5 10t18 3t18.5 -15
q0 -20 -24 -36.5t-59.5 -30.5t-77 -26.5t-77 -25.5t-59.5 -26.5t-24 -28.5l-7 -263q15 -9 43.5 -5.5t63.5 13.5t74 24.5t75 27.5t66.5 23t49.5 11q9 -1 16 -6.5t10 -12.5t0.5 -14.5t-13.5 -12.5q-39 -17 -94 -38t-113.5 -40.5t-113.5 -34t-93 -17.5q-14 2 -22.5 6.5
t-19.5 16.5zM182 882q1 13 12.5 23.5t25.5 13.5t28 -5t20 -32q0 -6 -4 -14.5t-10.5 -16t-14 -11.5t-14.5 -1q-7 -5 -15.5 -2.5t-15.5 9t-10.5 16t-1.5 20.5z" />
    <glyph glyph-name="Egrave" unicode="&#xc8;" horiz-adv-x="540" 
d="M48 22q0 96 3.5 196t3 201.5t-8.5 201.5t-30 196q0 5 4 12.5t10 13.5t13.5 9.5t15.5 0.5q13 -5 21.5 -19.5t13 -31.5t6 -32.5t1.5 -22.5l385 96q9 -2 14.5 -10.5t5 -19t-7 -20.5t-19.5 -14l-379 -103q0 -65 3.5 -129t8.5 -130l278 97l6 6t14.5 10t18 3t18.5 -15
q0 -20 -24 -36.5t-59.5 -30.5t-77 -26.5t-77 -25.5t-59.5 -26.5t-24 -28.5l-7 -263q15 -9 43.5 -5.5t63.5 13.5t74 24.5t75 27.5t66.5 23t49.5 11q9 -1 16 -6.5t10 -12.5t0.5 -14.5t-13.5 -12.5q-39 -17 -94 -38t-113.5 -40.5t-113.5 -34t-93 -17.5q-14 2 -22.5 6.5
t-19.5 16.5zM245 831q-11 12 -25.5 27.5t-28.5 32.5t-24.5 34t-11.5 31q-12 14 -4.5 28t32.5 16q23 -25 45.5 -52t35 -50.5t10.5 -41.5t-29 -25z" />
    <glyph glyph-name="Emacron" unicode="&#x112;" horiz-adv-x="540" 
d="M48 22q0 96 3.5 196t3 201.5t-8.5 201.5t-30 196q0 5 4 12.5t10 13.5t13.5 9.5t15.5 0.5q13 -5 21.5 -19.5t13 -31.5t6 -32.5t1.5 -22.5l385 96q9 -2 14.5 -10.5t5 -19t-7 -20.5t-19.5 -14l-379 -103q0 -65 3.5 -129t8.5 -130l278 97l6 6t14.5 10t18 3t18.5 -15
q0 -20 -24 -36.5t-59.5 -30.5t-77 -26.5t-77 -25.5t-59.5 -26.5t-24 -28.5l-7 -263q15 -9 43.5 -5.5t63.5 13.5t74 24.5t75 27.5t66.5 23t49.5 11q9 -1 16 -6.5t10 -12.5t0.5 -14.5t-13.5 -12.5q-39 -17 -94 -38t-113.5 -40.5t-113.5 -34t-93 -17.5q-14 2 -22.5 6.5
t-19.5 16.5zM108 903q-8 -5 -16.5 2.5t-11.5 20t2.5 25.5t25.5 18l345 11q10 0 15 -7t6 -17t-1.5 -21t-7.5 -18l-357 -14v0z" />
    <glyph glyph-name="Eogonek" unicode="&#x118;" horiz-adv-x="540" 
d="M48 22q0 96 3.5 196t3 201.5t-8.5 201.5t-30 196q0 5 4 12.5t10 13.5t13.5 9.5t15.5 0.5q13 -5 21.5 -19.5t13 -31.5t6 -32.5t1.5 -22.5l385 96q9 -2 14.5 -10.5t5 -19t-7 -20.5t-19.5 -14l-379 -103q0 -65 3.5 -129t8.5 -130l278 97l6 6t14.5 10t18 3t18.5 -15
q0 -20 -24 -36.5t-59.5 -30.5t-77 -26.5t-77 -25.5t-59.5 -26.5t-24 -28.5l-7 -263q15 -9 43.5 -5.5t63.5 13.5t74 24.5t75 27.5t66.5 23t49.5 11q9 -1 16 -6.5t10 -12.5t0.5 -14.5t-13.5 -12.5q-39 -17 -94 -38t-113.5 -40.5t-113.5 -34t-93 -17.5q-14 2 -22.5 6.5
t-19.5 16.5zM587 -37q22 -16 15.5 -36t-32 -36.5t-65 -25t-83.5 -0.5q-42 12 -64 48.5t-21 82t26 91t77 74.5q18 1 22.5 -7.5t1.5 -20t-9.5 -21.5t-10.5 -13q-23 -29 -35.5 -58.5t-13 -54t11.5 -41.5t38 -21q18 0 35.5 6t35 13.5t35 13.5t36.5 6z" />
    <glyph glyph-name="Gbreve" unicode="&#x11e;" horiz-adv-x="673" 
d="M509 221q-29 -35 -70 -73t-88 -69t-96 -50t-93 -17.5t-80.5 28t-57.5 88.5q-13 44 -9.5 103t20 124.5t45 133t67 128.5t86 112.5t101 84t112.5 43t121 -10.5q8 0 10 -3.5t1 -9.5t-3.5 -15t-2.5 -21q-73 10 -139 -13.5t-122.5 -70.5t-101.5 -112t-75.5 -138t-44.5 -148.5
t-9 -143.5q4 -58 34 -78.5t73.5 -14t94.5 35t98.5 70t85 90.5t53.5 96h-180q-15 21 -3 32t41.5 15.5t70.5 4.5t84 -2q13 3 36 12.5t44 15.5t33.5 3t3.5 -24q-1 -2 -7 -6.5t-13.5 -9t-14 -8.5t-8.5 -5q-24 -47 -34 -110t-11 -131t4.5 -135t13.5 -121l-38 -13q-10 15 -16.5 58
t-10.5 95t-5 101.5t0 78.5zM252 982q4 -3 10.5 -12t15.5 -18t21.5 -14.5t28.5 -1.5t35 21t42 54q23 16 35 14.5t15 -13t0 -28t-10 -29.5q-34 -44 -62.5 -64.5t-53 -25t-44 3.5t-35 21.5t-27.5 28.5l-20 25q-16 10 -11.5 24t17.5 23t27 9t16 -18z" />
    <glyph glyph-name="Gcircumflex" unicode="&#x11c;" horiz-adv-x="673" 
d="M509 221q-29 -35 -70 -73t-88 -69t-96 -50t-93 -17.5t-80.5 28t-57.5 88.5q-13 44 -9.5 103t20 124.5t45 133t67 128.5t86 112.5t101 84t112.5 43t121 -10.5q8 0 10 -3.5t1 -9.5t-3.5 -15t-2.5 -21q-73 10 -139 -13.5t-122.5 -70.5t-101.5 -112t-75.5 -138t-44.5 -148.5
t-9 -143.5q4 -58 34 -78.5t73.5 -14t94.5 35t98.5 70t85 90.5t53.5 96h-180q-15 21 -3 32t41.5 15.5t70.5 4.5t84 -2q13 3 36 12.5t44 15.5t33.5 3t3.5 -24q-1 -2 -7 -6.5t-13.5 -9t-14 -8.5t-8.5 -5q-24 -47 -34 -110t-11 -131t4.5 -135t13.5 -121l-38 -13q-10 15 -16.5 58
t-10.5 95t-5 101.5t0 78.5zM283 894q-7 -6 -16 -8t-17 0.5t-13 8.5t-3 16l98 183q1 3 8 8t15 7.5t15.5 1t11.5 -10.5l122 -173q9 -11 5 -18.5t-13 -11.5t-20.5 -4t-17.5 5l-97 137z" />
    <glyph glyph-name="Gcommaaccent" unicode="&#x122;" horiz-adv-x="673" 
d="M509 221q-29 -35 -70 -73t-88 -69t-96 -50t-93 -17.5t-80.5 28t-57.5 88.5q-13 44 -9.5 103t20 124.5t45 133t67 128.5t86 112.5t101 84t112.5 43t121 -10.5q8 0 10 -3.5t1 -9.5t-3.5 -15t-2.5 -21q-73 10 -139 -13.5t-122.5 -70.5t-101.5 -112t-75.5 -138t-44.5 -148.5
t-9 -143.5q4 -58 34 -78.5t73.5 -14t94.5 35t98.5 70t85 90.5t53.5 96h-180q-15 21 -3 32t41.5 15.5t70.5 4.5t84 -2q13 3 36 12.5t44 15.5t33.5 3t3.5 -24q-1 -2 -7 -6.5t-13.5 -9t-14 -8.5t-8.5 -5q-24 -47 -34 -110t-11 -131t4.5 -135t13.5 -121l-38 -13q-10 15 -16.5 58
t-10.5 95t-5 101.5t0 78.5zM251 -287q-23 -11 -35.5 -6.5t-21.5 21.5q4 17 9.5 41t8.5 49.5t1.5 50t-10.5 43.5q0 16 1.5 25.5t6 14.5t14 7t24.5 2q10 -15 17.5 -34.5t9.5 -48t-3.5 -68.5t-21.5 -97z" />
    <glyph glyph-name="Gdotaccent" unicode="&#x120;" horiz-adv-x="673" 
d="M530 234q-29 -35 -70 -73t-88 -69t-96 -50t-93 -17.5t-80.5 28t-57.5 88.5q-13 44 -9.5 103t20 124.5t45 133t67 128.5t86 112.5t101 84t112.5 43t121 -10.5q8 0 10 -3.5t1 -9.5t-3.5 -15t-2.5 -21q-73 10 -139 -13.5t-122.5 -70.5t-101.5 -112t-75.5 -138t-44.5 -148.5
t-9 -143.5q4 -58 34 -78.5t73.5 -14t94.5 35t98.5 70t85 90.5t53.5 96h-180q-15 21 -3 32t41.5 15.5t70.5 4.5t84 -2q13 3 36 12.5t44 15.5t33.5 3t3.5 -24q-1 -2 -7 -6.5t-13.5 -9t-14 -8.5t-8.5 -5q-24 -47 -34 -110t-11 -131t4.5 -135t13.5 -121l-38 -13q-10 15 -16.5 58
t-10.5 95t-5 101.5t0 78.5zM334 950q1 13 12.5 23.5t25.5 13.5t28 -5t20 -32q0 -6 -4 -14.5t-10.5 -16t-14 -11.5t-14.5 -1q-7 -5 -15.5 -2.5t-15.5 9t-10.5 16t-1.5 20.5z" />
    <glyph glyph-name="Hbar" unicode="&#x126;" horiz-adv-x="483" 
d="M391 466q-8 -5 -29 -13.5t-48.5 -18.5t-58 -21t-58 -21.5t-49 -19t-29.5 -14.5q-18 -13 -27 -36.5t-13 -53t-4 -63t2 -65.5t4.5 -61t3.5 -49q-1 -16 -11.5 -28.5t-26.5 -12.5q-6 0 -14 3t-7 11l-3 817q0 14 6 20.5t15 7t19 -3.5t18 -10q1 -44 1 -101t0.5 -115t3 -112
t9.5 -92q49 21 100 35.5t92.5 34t68.5 50t30 82.5q2 27 2 48t-1.5 42t-6 44.5t-11.5 55.5q0 20 8.5 25.5t21.5 5.5q14 0 21.5 -7t11 -17.5t4.5 -23.5t1 -24q1 -17 2 -53t2 -80.5t2.5 -94.5t2.5 -94.5t2 -80.5t1 -53q1 -21 1 -56v-73t-1 -73.5t-2 -56.5q-1 -9 -1.5 -18
t-3 -17t-9 -14t-19.5 -9q-20 13 -21.5 31t-2.5 39q0 12 0.5 43.5t0.5 72.5t0.5 86.5t0.5 86v72t-1 43.5zM32.6865 555.065q-9.90137 -4.69434 -20.4219 2.34668t-14.2334 18.7754q-3.71289 11.7354 3.09473 23.9395q6.80664 12.2041 31.5605 16.8975l426.996 10.3271
q12.377 0 18.5654 -6.57129q6.18848 -6.57227 7.42578 -15.96t-1.85645 -19.7139q-3.09473 -10.3271 -9.28223 -16.8984l-441.849 -13.1426v0z" />
    <glyph glyph-name="Hcircumflex" unicode="&#x124;" horiz-adv-x="483" 
d="M391 466q-8 -5 -29 -13.5t-48.5 -18.5t-58 -21t-58 -21.5t-49 -19t-29.5 -14.5q-18 -13 -27 -36.5t-13 -53t-4 -63t2 -65.5t4.5 -61t3.5 -49q-1 -16 -11.5 -28.5t-26.5 -12.5q-6 0 -14 3t-7 11l-3 817q0 14 6 20.5t15 7t19 -3.5t18 -10q1 -44 1 -101t0.5 -115t3 -112
t9.5 -92q49 21 100 35.5t92.5 34t68.5 50t30 82.5q2 27 2 48t-1.5 42t-6 44.5t-11.5 55.5q0 20 8.5 25.5t21.5 5.5q14 0 21.5 -7t11 -17.5t4.5 -23.5t1 -24q1 -17 2 -53t2 -80.5t2.5 -94.5t2.5 -94.5t2 -80.5t1 -53q1 -21 1 -56v-73t-1 -73.5t-2 -56.5q-1 -9 -1.5 -18
t-3 -17t-9 -14t-19.5 -9q-20 13 -21.5 31t-2.5 39q0 12 0.5 43.5t0.5 72.5t0.5 86.5t0.5 86v72t-1 43.5zM145 903q-7 -6 -16 -8t-17 0.5t-13 8.5t-3 16l98 183q1 3 8 8t15 7.5t15.5 1t11.5 -10.5l122 -173q9 -11 5 -18.5t-13 -11.5t-20.5 -4t-17.5 5l-97 137z" />
    <glyph glyph-name="Iacute" unicode="&#xcd;" horiz-adv-x="175" 
d="M60 838q4 6 12.5 8.5t17.5 1.5t17.5 -5t11.5 -9l15 -820q0 -12 -6 -17t-14.5 -5.5t-17.5 2.5t-15 9zM72 906q-30 6 -33 23t11.5 38.5t40 46.5t51.5 48q18 0 25 -10t7 -23v-8q-2 -13 -13.5 -28.5t-27 -31t-32.5 -30t-29 -25.5z" />
    <glyph glyph-name="Ibreve" unicode="&#x12c;" horiz-adv-x="175" 
d="M51 844q4 6 12.5 8.5t17.5 1.5t17.5 -5t11.5 -9l15 -820q0 -12 -6 -17t-14.5 -5.5t-17.5 2.5t-15 9zM-11 1008q4 -3 10.5 -12t15.5 -18t21.5 -14.5t28.5 -1.5t35 21t42 54q23 16 35 14.5t15 -13t0 -28t-10 -29.5q-34 -44 -62.5 -64.5t-53 -25t-44 3.5t-35 21.5
t-27.5 28.5l-20 25q-16 10 -11.5 24t17.5 23t27 9t16 -18z" />
    <glyph glyph-name="Icircumflex" unicode="&#xce;" horiz-adv-x="175" 
d="M45 840q4 6 12.5 8.5t17.5 1.5t17.5 -5t11.5 -9l15 -820q0 -12 -6 -17t-14.5 -5.5t-17.5 2.5t-15 9zM0 889q-7 -6 -16 -8t-17 0.5t-13 8.5t-3 16l98 183q1 3 8 8t15 7.5t15.5 1t11.5 -10.5l122 -173q9 -11 5 -18.5t-13 -11.5t-20.5 -4t-17.5 5l-97 137z" />
    <glyph glyph-name="Idieresis" unicode="&#xcf;" horiz-adv-x="175" 
d="M54 833q4 6 12.5 8.5t17.5 1.5t17.5 -5t11.5 -9l15 -820q0 -12 -6 -17t-14.5 -5.5t-17.5 2.5t-15 9zM-37 967q-5 16 8 27t30.5 13.5t32.5 -6.5t15 -34q0 -6 -4 -14.5t-10.5 -16t-14 -11.5t-14.5 -1q-7 -5 -15.5 -2.5t-15.5 9t-10.5 16t-1.5 20.5zM101 970q3 20 18 31
t32 11t31 -11t14 -34q0 -6 -4 -14.5t-10.5 -16t-14 -11.5t-14.5 -1q-7 -5 -17 -2t-18.5 10t-13.5 17t-3 21z" />
    <glyph glyph-name="Idotaccent" unicode="&#x130;" horiz-adv-x="175" 
d="M43 847q4 6 12.5 8.5t17.5 1.5t17.5 -5t11.5 -9l15 -820q0 -12 -6 -17t-14.5 -5.5t-17.5 2.5t-15 9zM27 978q1 13 12.5 23.5t25.5 13.5t28 -5t20 -32q0 -6 -4 -14.5t-10.5 -16t-14 -11.5t-14.5 -1q-7 -5 -15.5 -2.5t-15.5 9t-10.5 16t-1.5 20.5z" />
    <glyph glyph-name="Igrave" unicode="&#xcc;" horiz-adv-x="175" 
d="M54 836q4 6 12.5 8.5t17.5 1.5t17.5 -5t11.5 -9l15 -820q0 -12 -6 -17t-14.5 -5.5t-17.5 2.5t-15 9zM118 865q-11 12 -25.5 27.5t-28.5 32.5t-24.5 34t-11.5 31q-12 14 -4.5 28t32.5 16q23 -25 45.5 -52t35 -50.5t10.5 -41.5t-29 -25z" />
    <glyph glyph-name="Iogonek" unicode="&#x12e;" horiz-adv-x="175" 
d="M42 844q4 6 12.5 8.5t17.5 1.5t17.5 -5t11.5 -9l15 -820q0 -12 -6 -17t-14.5 -5.5t-17.5 2.5t-15 9zM232 -129q22 -16 15.5 -36t-32 -36.5t-65 -25t-83.5 -0.5q-42 12 -64 48.5t-21 82t26 91t77 74.5q18 1 22.5 -7.5t1.5 -20t-9.5 -21.5t-10.5 -13q-23 -29 -35.5 -58.5
t-13 -54t11.5 -41.5t38 -21q18 0 35.5 6t35 13.5t35 13.5t36.5 6z" />
    <glyph glyph-name="Itilde" unicode="&#x128;" horiz-adv-x="175" 
d="M48 838q4 6 12.5 8.5t17.5 1.5t17.5 -5t11.5 -9l15 -820q0 -12 -6 -17t-14.5 -5.5t-17.5 2.5t-15 9zM164 1075q16 5 29.5 5.5t19.5 -19.5q-5 -30 -23 -61t-43.5 -47.5t-57.5 -11.5t-66 47q-17 25 -39 36t-42 7.5t-33 -23.5t-12 -56q-11 -4 -18 -2.5t-11 6t-6 12t-5 15.5
q0 33 11.5 55t29.5 33.5t40.5 14t44 -3t39.5 -18.5t27 -32q20 -31 37.5 -39t31 -3t23.5 19.5t16.5 29t8 26t-1.5 10.5z" />
    <glyph glyph-name="Jcircumflex" unicode="&#x134;" horiz-adv-x="422" 
d="M12 193q4 20 11 29t14 9.5t12 -5.5t4 -15q-2 -27 12.5 -59t40 -62t59.5 -54t70 -34.5t71.5 -4t64.5 37.5q12 20 16 61t1.5 95.5t-10 118t-17 128t-19.5 126t-18.5 111.5t-14 84.5t-4.5 45.5q-5 10 0 21.5t14.5 18.5t21 6t20.5 -16q14 -81 29 -170t28 -180t21 -180.5
t8 -171.5q0 -44 -7.5 -81.5t-26.5 -65.5t-51.5 -44t-81.5 -16q-28 0 -60.5 13.5t-64.5 35.5t-61 50.5t-49.5 58t-30 58t-2.5 51.5zM218 876q-7 -6 -16 -8t-17 0.5t-13 8.5t-3 16l98 183q1 3 8 8t15 7.5t15.5 1t11.5 -10.5l122 -173q9 -11 5 -18.5t-13 -11.5t-20.5 -4
t-17.5 5l-97 137z" />
    <glyph glyph-name="Kcommaaccent" unicode="&#x136;" horiz-adv-x="597" 
d="M19 807q1 12 6 22t12.5 15.5t15.5 5t16 -9.5q4 0 6.5 -7.5t3.5 -27t1.5 -53.5t0.5 -87t0.5 -127.5t1.5 -174.5q4 7 21.5 35.5t44.5 70t60.5 90t69 96.5t71 90t65.5 68.5t53.5 34t34.5 -13.5q-87 -112 -154 -195t-115.5 -149.5t-81 -122.5t-51.5 -114l419 -202
q-2 -17 -11.5 -32t-31.5 -13l-389 181q3 -16 2.5 -38.5t-2 -46.5t-4.5 -46t-4 -36q2 -21 -14.5 -28t-32.5 7zM173 -282q-23 -11 -35.5 -6.5t-21.5 21.5q4 17 9.5 41t8.5 49.5t1.5 50t-10.5 43.5q0 16 1.5 25.5t6 14.5t14 7t24.5 2q10 -15 17.5 -34.5t9.5 -48t-3.5 -68.5
t-21.5 -97z" />
    <glyph glyph-name="Lacute" unicode="&#x139;" horiz-adv-x="611" 
d="M54 43q-3 214 -7 356.5t-7 231t-5 131t-2 55.5q0 15 8.5 24t18.5 8.5t19 -11t10 -33.5l32 -733l434 92q67 0 29 -57l-502 -107q-28 0 -28 43zM229 877q-30 6 -33 23t11.5 38.5t40 46.5t51.5 48q18 0 25 -10t7 -23v-8q-2 -13 -13.5 -28.5t-27 -31t-32.5 -30t-29 -25.5z
" />
    <glyph glyph-name="Lcommaaccent" unicode="&#x13b;" horiz-adv-x="611" 
d="M54 43q-3 214 -7 356.5t-7 231t-5 131t-2 55.5q0 15 8.5 24t18.5 8.5t19 -11t10 -33.5l32 -733l434 92q67 0 29 -57l-502 -107q-28 0 -28 43zM180 -282q-23 -11 -35.5 -6.5t-21.5 21.5q4 17 9.5 41t8.5 49.5t1.5 50t-10.5 43.5q0 16 1.5 25.5t6 14.5t14 7t24.5 2
q10 -15 17.5 -34.5t9.5 -48t-3.5 -68.5t-21.5 -97z" />
    <glyph glyph-name="Ldot" unicode="&#x13f;" horiz-adv-x="611" 
d="M54 43q-3 214 -7 356.5t-7 231t-5 131t-2 55.5q0 15 8.5 24t18.5 8.5t19 -11t10 -33.5l32 -733l434 92q67 0 29 -57l-502 -107q-28 0 -28 43zM219 381q16 17 27 23t29 6q30 0 30 -29q0 -6 -4 -14.5t-10.5 -16t-14 -11.5t-14.5 -1q-7 -5 -15.5 -2.5t-15.5 9t-10.5 16
t-1.5 20.5z" />
    <glyph glyph-name="Nacute" unicode="&#x143;" horiz-adv-x="616" 
d="M27 841q11 16 26.5 9.5t29 -20t21.5 -27t4 -12.5l367 -627q3 15 5.5 48.5t3.5 79t0.5 99.5t-2 108t-4.5 106t-7 93.5t-9 69t-12 33.5q0 16 6 30.5t24 14.5q17 0 28 -20t17 -45t8.5 -49t2.5 -31q1 -20 1.5 -63.5t1 -99.5t1 -117.5t1 -117.5t0.5 -100t1 -64q1 -28 7.5 -49
t6.5 -48q0 -22 -16.5 -33t-36.5 -11q-11 0 -19.5 3t-13.5 10t-5.5 18.5t4.5 28.5q-18 21 -46 70.5t-61.5 112t-70 131.5t-70 130.5t-62.5 107.5t-47 63q-5 -65 -3 -150.5t7 -175t10.5 -174.5t5.5 -150q0 -21 -12 -26.5t-25 -2.5t-22 10.5t-3 11.5zM228 872q-30 6 -33 23
t11.5 38.5t40 46.5t51.5 48q18 0 25 -10t7 -23v-8q-2 -13 -13.5 -28.5t-27 -31t-32.5 -30t-29 -25.5z" />
    <glyph glyph-name="Ncaron" unicode="&#x147;" horiz-adv-x="616" 
d="M27 841q11 16 26.5 9.5t29 -20t21.5 -27t4 -12.5l367 -627q3 15 5.5 48.5t3.5 79t0.5 99.5t-2 108t-4.5 106t-7 93.5t-9 69t-12 33.5q0 16 6 30.5t24 14.5q17 0 28 -20t17 -45t8.5 -49t2.5 -31q1 -20 1.5 -63.5t1 -99.5t1 -117.5t1 -117.5t0.5 -100t1 -64q1 -28 7.5 -49
t6.5 -48q0 -22 -16.5 -33t-36.5 -11q-11 0 -19.5 3t-13.5 10t-5.5 18.5t4.5 28.5q-18 21 -46 70.5t-61.5 112t-70 131.5t-70 130.5t-62.5 107.5t-47 63q-5 -65 -3 -150.5t7 -175t10.5 -174.5t5.5 -150q0 -21 -12 -26.5t-25 -2.5t-22 10.5t-3 11.5zM328 1089q7 6 17 6.5
t19.5 -3.5t15.5 -11t5 -17l-98 -183q-2 -3 -8.5 -8t-14.5 -7.5t-15.5 -1t-11.5 10.5l-122 173q-9 11 -4.5 20t14.5 14.5t22 6.5t18 -3l89 -135z" />
    <glyph glyph-name="Ncommaaccent" unicode="&#x145;" horiz-adv-x="616" 
d="M27 841q11 16 26.5 9.5t29 -20t21.5 -27t4 -12.5l367 -627q3 15 5.5 48.5t3.5 79t0.5 99.5t-2 108t-4.5 106t-7 93.5t-9 69t-12 33.5q0 16 6 30.5t24 14.5q17 0 28 -20t17 -45t8.5 -49t2.5 -31q1 -20 1.5 -63.5t1 -99.5t1 -117.5t1 -117.5t0.5 -100t1 -64q1 -28 7.5 -49
t6.5 -48q0 -22 -16.5 -33t-36.5 -11q-11 0 -19.5 3t-13.5 10t-5.5 18.5t4.5 28.5q-18 21 -46 70.5t-61.5 112t-70 131.5t-70 130.5t-62.5 107.5t-47 63q-5 -65 -3 -150.5t7 -175t10.5 -174.5t5.5 -150q0 -21 -12 -26.5t-25 -2.5t-22 10.5t-3 11.5zM182 -282
q-23 -11 -35.5 -6.5t-21.5 21.5q4 17 9.5 41t8.5 49.5t1.5 50t-10.5 43.5q0 16 1.5 25.5t6 14.5t14 7t24.5 2q10 -15 17.5 -34.5t9.5 -48t-3.5 -68.5t-21.5 -97z" />
    <glyph glyph-name="Ntilde" unicode="&#xd1;" horiz-adv-x="616" 
d="M27 841q11 16 26.5 9.5t29 -20t21.5 -27t4 -12.5l367 -627q3 15 5.5 48.5t3.5 79t0.5 99.5t-2 108t-4.5 106t-7 93.5t-9 69t-12 33.5q0 16 6 30.5t24 14.5q17 0 28 -20t17 -45t8.5 -49t2.5 -31q1 -20 1.5 -63.5t1 -99.5t1 -117.5t1 -117.5t0.5 -100t1 -64q1 -28 7.5 -49
t6.5 -48q0 -22 -16.5 -33t-36.5 -11q-11 0 -19.5 3t-13.5 10t-5.5 18.5t4.5 28.5q-18 21 -46 70.5t-61.5 112t-70 131.5t-70 130.5t-62.5 107.5t-47 63q-5 -65 -3 -150.5t7 -175t10.5 -174.5t5.5 -150q0 -21 -12 -26.5t-25 -2.5t-22 10.5t-3 11.5zM432 1008q16 5 29.5 5.5
t19.5 -19.5q-5 -30 -23 -61t-43.5 -47.5t-57.5 -11.5t-66 47q-17 25 -39 36t-42 7.5t-33 -23.5t-12 -56q-11 -4 -18 -2.5t-11 6t-6 12t-5 15.5q0 33 11.5 55t29.5 33.5t40.5 14t44 -3t39.5 -18.5t27 -32q20 -31 37.5 -39t31 -3t23.5 19.5t16.5 29t8 26t-1.5 10.5z" />
    <glyph glyph-name="Oacute" unicode="&#xd3;" horiz-adv-x="575" 
d="M22 253q-1 126 26 229.5t71 180.5t98.5 124.5t108.5 60.5t102 -10t78 -87q27 -57 37 -132.5t3.5 -156t-29.5 -158.5t-62.5 -141.5t-94.5 -105t-126 -48.5q-56 -3 -96 22.5t-65.5 64t-38 82t-12.5 75.5zM234 737q-17 -14 -38 -49t-41 -83.5t-36.5 -105.5t-26 -115t-9 -113
t15.5 -99.5t46 -74t83 -36.5q40 -5 80.5 26t74.5 84t59.5 120.5t37.5 134.5q10 60 10 117.5t-11 105.5t-32 83t-52 50t-71.5 5.5t-89.5 -50.5zM262 862q-30 6 -33 23t11.5 38.5t40 46.5t51.5 48q18 0 25 -10t7 -23v-8q-2 -13 -13.5 -28.5t-27 -31t-32.5 -30t-29 -25.5z" />
    <glyph glyph-name="Obreve" unicode="&#x14e;" horiz-adv-x="572" 
d="M22 253q-1 126 26 229.5t71 180.5t98.5 124.5t108.5 60.5t102 -10t78 -87q27 -57 37 -132.5t3.5 -156t-29.5 -158.5t-62.5 -141.5t-94.5 -105t-126 -48.5q-56 -3 -96 22.5t-65.5 64t-38 82t-12.5 75.5zM234 737q-17 -14 -38 -49t-41 -83.5t-36.5 -105.5t-26 -115t-9 -113
t15.5 -99.5t46 -74t83 -36.5q40 -5 80.5 26t74.5 84t59.5 120.5t37.5 134.5q10 60 10 117.5t-11 105.5t-32 83t-52 50t-71.5 5.5t-89.5 -50.5zM285 1020q4 -3 10.5 -12t15.5 -18t21.5 -14.5t28.5 -1.5t35 21t42 54q23 16 35 14.5t15 -13t0 -28t-10 -29.5
q-34 -44 -62.5 -64.5t-53 -25t-44 3.5t-35 21.5t-27.5 28.5l-20 25q-16 10 -11.5 24t17.5 23t27 9t16 -18z" />
    <glyph glyph-name="Ocircumflex" unicode="&#xd4;" horiz-adv-x="572" 
d="M22 253q-1 126 26 229.5t71 180.5t98.5 124.5t108.5 60.5t102 -10t78 -87q27 -57 37 -132.5t3.5 -156t-29.5 -158.5t-62.5 -141.5t-94.5 -105t-126 -48.5q-56 -3 -96 22.5t-65.5 64t-38 82t-12.5 75.5zM234 737q-17 -14 -38 -49t-41 -83.5t-36.5 -105.5t-26 -115t-9 -113
t15.5 -99.5t46 -74t83 -36.5q40 -5 80.5 26t74.5 84t59.5 120.5t37.5 134.5q10 60 10 117.5t-11 105.5t-32 83t-52 50t-71.5 5.5t-89.5 -50.5zM260 891q-7 -6 -16 -8t-17 0.5t-13 8.5t-3 16l98 183q1 3 8 8t15 7.5t15.5 1t11.5 -10.5l122 -173q9 -11 5 -18.5t-13 -11.5
t-20.5 -4t-17.5 5l-97 137z" />
    <glyph glyph-name="Odieresis" unicode="&#xd6;" horiz-adv-x="567" 
d="M22 253q-1 126 26 229.5t71 180.5t98.5 124.5t108.5 60.5t102 -10t78 -87q27 -57 37 -132.5t3.5 -156t-29.5 -158.5t-62.5 -141.5t-94.5 -105t-126 -48.5q-56 -3 -96 22.5t-65.5 64t-38 82t-12.5 75.5zM234 737q-17 -14 -38 -49t-41 -83.5t-36.5 -105.5t-26 -115t-9 -113
t15.5 -99.5t46 -74t83 -36.5q40 -5 80.5 26t74.5 84t59.5 120.5t37.5 134.5q10 60 10 117.5t-11 105.5t-32 83t-52 50t-71.5 5.5t-89.5 -50.5zM216 928q-5 16 8 27t30.5 13.5t32.5 -6.5t15 -34q0 -6 -4 -14.5t-10.5 -16t-14 -11.5t-14.5 -1q-7 -5 -15.5 -2.5t-15.5 9
t-10.5 16t-1.5 20.5zM354 931q3 20 18 31t32 11t31 -11t14 -34q0 -6 -4 -14.5t-10.5 -16t-14 -11.5t-14.5 -1q-7 -5 -17 -2t-18.5 10t-13.5 17t-3 21z" />
    <glyph glyph-name="Ograve" unicode="&#xd2;" horiz-adv-x="581" 
d="M22 253q-1 126 26 229.5t71 180.5t98.5 124.5t108.5 60.5t102 -10t78 -87q27 -57 37 -132.5t3.5 -156t-29.5 -158.5t-62.5 -141.5t-94.5 -105t-126 -48.5q-56 -3 -96 22.5t-65.5 64t-38 82t-12.5 75.5zM234 737q-17 -14 -38 -49t-41 -83.5t-36.5 -105.5t-26 -115t-9 -113
t15.5 -99.5t46 -74t83 -36.5q40 -5 80.5 26t74.5 84t59.5 120.5t37.5 134.5q10 60 10 117.5t-11 105.5t-32 83t-52 50t-71.5 5.5t-89.5 -50.5zM339 882q-11 12 -25.5 27.5t-28.5 32.5t-24.5 34t-11.5 31q-12 14 -4.5 28t32.5 16q23 -25 45.5 -52t35 -50.5t10.5 -41.5
t-29 -25z" />
    <glyph glyph-name="Ohungarumlaut" unicode="&#x150;" horiz-adv-x="575" 
d="M22 253q-1 126 26 229.5t71 180.5t98.5 124.5t108.5 60.5t102 -10t78 -87q27 -57 37 -132.5t3.5 -156t-29.5 -158.5t-62.5 -141.5t-94.5 -105t-126 -48.5q-56 -3 -96 22.5t-65.5 64t-38 82t-12.5 75.5zM234 737q-17 -14 -38 -49t-41 -83.5t-36.5 -105.5t-26 -115t-9 -113
t15.5 -99.5t46 -74t83 -36.5q40 -5 80.5 26t74.5 84t59.5 120.5t37.5 134.5q10 60 10 117.5t-11 105.5t-32 83t-52 50t-71.5 5.5t-89.5 -50.5zM272 891q-30 6 -33 23t11.5 38.5t40 46.5t51.5 48q18 0 25 -10t7 -23v-8q-2 -13 -13.5 -28.5t-27 -31t-32.5 -30t-29 -25.5z
M381 867q-30 6 -33 23t11.5 38.5t40 46.5t51.5 48q18 0 25 -10t7 -23v-8q-2 -13 -13.5 -28.5t-27 -31t-32.5 -30t-29 -25.5z" />
    <glyph glyph-name="Omacron" unicode="&#x14c;" horiz-adv-x="561" 
d="M22 253q-1 126 26 229.5t71 180.5t98.5 124.5t108.5 60.5t102 -10t78 -87q27 -57 37 -132.5t3.5 -156t-29.5 -158.5t-62.5 -141.5t-94.5 -105t-126 -48.5q-56 -3 -96 22.5t-65.5 64t-38 82t-12.5 75.5zM234 737q-17 -14 -38 -49t-41 -83.5t-36.5 -105.5t-26 -115t-9 -113
t15.5 -99.5t46 -74t83 -36.5q40 -5 80.5 26t74.5 84t59.5 120.5t37.5 134.5q10 60 10 117.5t-11 105.5t-32 83t-52 50t-71.5 5.5t-89.5 -50.5zM147 890q-8 -5 -16.5 2.5t-11.5 20t2.5 25.5t25.5 18l345 11q10 0 15 -7t6 -17t-1.5 -21t-7.5 -18l-357 -14v0z" />
    <glyph glyph-name="Oslash" unicode="&#xd8;" horiz-adv-x="564" 
d="M22 253q-1 108 19 200t54 164.5t78 124.5t91 80t93.5 30.5t84.5 -23.5l7 15q18 14 35.5 13t18.5 -26l-19 -43q6 -8 11.5 -17.5t10.5 -19.5q27 -57 37 -132.5t3.5 -156t-29.5 -158.5t-62.5 -141.5t-94.5 -105t-126 -48.5q-23 -2 -43 2t-37 12l-18 -41q-10 -5 -20.5 -6.5
t-19.5 1.5t-15 9t-6 16l26 59q-20 20 -35 45t-25 51t-14.5 51t-4.5 45zM234 737q-19 -16 -42.5 -57.5t-45 -97.5t-38.5 -121t-22.5 -128.5t3 -120t37.5 -94.5l289 650q-32 26 -77.5 21.5t-103.5 -52.5zM480 426q14 84 7.5 161.5t-33.5 130.5l-277 -642q11 -5 23.5 -9
t27.5 -6q40 -5 80.5 26t74.5 84t59.5 120.5t37.5 134.5z" />
    <glyph glyph-name="Oslashacute" unicode="&#x1fe;" horiz-adv-x="555" 
d="M22 253q0 -20 4.5 -45t14.5 -51t25 -51t35 -45l-26 -59q0 -10 6 -16t15 -9t19.5 -1.5t20.5 6.5l18 41q17 -8 37 -12t43 -2q71 7 126 48.5t94.5 105t62.5 141.5t29.5 158.5t-3.5 156t-37 132.5q-5 10 -10.5 19.5t-11.5 17.5l19 43q-1 25 -18.5 26t-35.5 -13l-7 -15
q-38 26 -84.5 23.5t-93.5 -30.5t-91 -80t-78 -124.5t-54 -164.5t-19 -200zM234 737q58 48 103.5 52.5t77.5 -21.5l-289 -650q-29 38 -37.5 94.5t-3 120t22.5 128.5t38.5 121t45 97.5t42.5 57.5zM480 426q-12 -67 -37.5 -134.5t-59.5 -120.5t-74.5 -84t-80.5 -26
q-15 2 -27.5 6t-23.5 9l277 642q27 -53 33.5 -130.5t-7.5 -161.5zM287 877q-30 6 -33 23t11.5 38.5t40 46.5t51.5 48q18 0 25 -10t7 -23v-8q-2 -13 -13.5 -28.5t-27 -31t-32.5 -30t-29 -25.5z" />
    <glyph glyph-name="Otilde" unicode="&#xd5;" horiz-adv-x="569" 
d="M22 253q-1 126 26 229.5t71 180.5t98.5 124.5t108.5 60.5t102 -10t78 -87q27 -57 37 -132.5t3.5 -156t-29.5 -158.5t-62.5 -141.5t-94.5 -105t-126 -48.5q-56 -3 -96 22.5t-65.5 64t-38 82t-12.5 75.5zM234 737q-17 -14 -38 -49t-41 -83.5t-36.5 -105.5t-26 -115t-9 -113
t15.5 -99.5t46 -74t83 -36.5q40 -5 80.5 26t74.5 84t59.5 120.5t37.5 134.5q10 60 10 117.5t-11 105.5t-32 83t-52 50t-71.5 5.5t-89.5 -50.5zM463 1014q16 5 29.5 5.5t19.5 -19.5q-5 -30 -23 -61t-43.5 -47.5t-57.5 -11.5t-66 47q-17 25 -39 36t-42 7.5t-33 -23.5t-12 -56
q-11 -4 -18 -2.5t-11 6t-6 12t-5 15.5q0 33 11.5 55t29.5 33.5t40.5 14t44 -3t39.5 -18.5t27 -32q20 -31 37.5 -39t31 -3t23.5 19.5t16.5 29t8 26t-1.5 10.5z" />
    <glyph glyph-name="Racute" unicode="&#x154;" horiz-adv-x="573" 
d="M28 837q3 7 12.5 11t20 4t18.5 -5.5t10 -17.5l6 -55q19 4 45 16.5t60.5 24.5t77.5 20t96 2q82 -16 119 -38t39.5 -48.5t-22 -57t-65.5 -61.5t-92 -63t-99.5 -61.5t-90 -56t-62.5 -48.5l469 -282q0 -16 -13 -30.5t-30 -12.5l-441 254v-332q-12 -10 -20.5 -13t-13.5 -2
t-9 5.5t-7 9.5zM95 699q-2 -20 -3 -48t-1 -59.5v-62v-54.5q5 5 31.5 18.5t64.5 33.5t81.5 44.5t82.5 50.5t68.5 51.5t38 47.5t-9 39.5t-71.5 27.5q-30 2 -70.5 -2t-81 -14.5t-75.5 -28.5t-55 -44zM298 914q-30 6 -33 23t11.5 38.5t40 46.5t51.5 48q18 0 25 -10t7 -23v-8
q-2 -13 -13.5 -28.5t-27 -31t-32.5 -30t-29 -25.5z" />
    <glyph glyph-name="Rcaron" unicode="&#x158;" horiz-adv-x="573" 
d="M28 837q3 7 12.5 11t20 4t18.5 -5.5t10 -17.5l6 -55q19 4 45 16.5t60.5 24.5t77.5 20t96 2q82 -16 119 -38t39.5 -48.5t-22 -57t-65.5 -61.5t-92 -63t-99.5 -61.5t-90 -56t-62.5 -48.5l469 -282q0 -16 -13 -30.5t-30 -12.5l-441 254v-332q-12 -10 -20.5 -13t-13.5 -2
t-9 5.5t-7 9.5zM95 699q-2 -20 -3 -48t-1 -59.5v-62v-54.5q5 5 31.5 18.5t64.5 33.5t81.5 44.5t82.5 50.5t68.5 51.5t38 47.5t-9 39.5t-71.5 27.5q-30 2 -70.5 -2t-81 -14.5t-75.5 -28.5t-55 -44zM319 1105q7 6 17 6.5t19.5 -3.5t15.5 -11t5 -17l-98 -183q-2 -3 -8.5 -8
t-14.5 -7.5t-15.5 -1t-11.5 10.5l-122 173q-9 11 -4.5 20t14.5 14.5t22 6.5t18 -3l89 -135z" />
    <glyph glyph-name="Rcommaaccent" unicode="&#x156;" horiz-adv-x="573" 
d="M28 837q3 7 12.5 11t20 4t18.5 -5.5t10 -17.5l6 -55q19 4 45 16.5t60.5 24.5t77.5 20t96 2q82 -16 119 -38t39.5 -48.5t-22 -57t-65.5 -61.5t-92 -63t-99.5 -61.5t-90 -56t-62.5 -48.5l469 -282q0 -16 -13 -30.5t-30 -12.5l-441 254v-332q-12 -10 -20.5 -13t-13.5 -2
t-9 5.5t-7 9.5zM95 699q-2 -20 -3 -48t-1 -59.5v-62v-54.5q5 5 31.5 18.5t64.5 33.5t81.5 44.5t82.5 50.5t68.5 51.5t38 47.5t-9 39.5t-71.5 27.5q-30 2 -70.5 -2t-81 -14.5t-75.5 -28.5t-55 -44zM222 -273q-23 -11 -35.5 -6.5t-21.5 21.5q4 17 9.5 41t8.5 49.5t1.5 50
t-10.5 43.5q0 16 1.5 25.5t6 14.5t14 7t24.5 2q10 -15 17.5 -34.5t9.5 -48t-3.5 -68.5t-21.5 -97z" />
    <glyph glyph-name="Sacute" unicode="&#x15a;" horiz-adv-x="616" 
d="M104 30q1 6 28.5 15t68.5 21.5t91 29t96.5 37.5t83.5 46.5t54 56.5q0 16 -22 25t-58 15t-82 10t-94.5 11t-94.5 18t-82 30.5t-58 49t-22 73.5q0 43 19.5 87.5t51.5 86.5t73.5 79t86.5 65t89 44t82 16q10 0 21 0.5t19.5 -1.5t14 -8.5t5.5 -19.5q0 -32 -21 -46t-51 -14
l-43 14q-25 0 -56.5 -14.5t-63.5 -39t-62.5 -56t-54 -65t-38 -67t-14.5 -60.5q0 -34 22 -55.5t58 -34.5t82.5 -19.5t94.5 -11.5t94.5 -11t82.5 -16.5t58 -29t22 -49.5q0 -30 -24 -60t-63 -57.5t-89.5 -51t-101.5 -40t-99.5 -25.5t-83.5 -8q-10 0 -17 7t-3 23zM288 853
q-30 6 -33 23t11.5 38.5t40 46.5t51.5 48q18 0 25 -10t7 -23v-8q-2 -13 -13.5 -28.5t-27 -31t-32.5 -30t-29 -25.5z" />
    <glyph glyph-name="Scedilla" unicode="&#x15e;" horiz-adv-x="616" 
d="M104 30q1 6 28.5 15t68.5 21.5t91 29t96.5 37.5t83.5 46.5t54 56.5q0 16 -22 25t-58 15t-82 10t-94.5 11t-94.5 18t-82 30.5t-58 49t-22 73.5q0 43 19.5 87.5t51.5 86.5t73.5 79t86.5 65t89 44t82 16q10 0 21 0.5t19.5 -1.5t14 -8.5t5.5 -19.5q0 -32 -21 -46t-51 -14
l-43 14q-25 0 -56.5 -14.5t-63.5 -39t-62.5 -56t-54 -65t-38 -67t-14.5 -60.5q0 -34 22 -55.5t58 -34.5t82.5 -19.5t94.5 -11.5t94.5 -11t82.5 -16.5t58 -29t22 -49.5q0 -30 -24 -60t-63 -57.5t-89.5 -51t-101.5 -40t-99.5 -25.5t-83.5 -8q-10 0 -17 7t-3 23zM293 -147
q0 -2 20.5 -4t45.5 0.5t46.5 11.5t23.5 27q1 7 1.5 15.5t-5 17.5t-19 19.5t-40.5 22.5q-24 0 -41 3.5t-27.5 13t-15 26t-4.5 42.5q4 24 11.5 33.5t15.5 9t15.5 -8t12 -16.5t5.5 -17.5t-4 -10.5q3 -16 21.5 -21.5t42.5 -12t48.5 -20t40.5 -44.5q19 -39 6.5 -67.5t-42 -47
t-67 -27t-68.5 -5.5q-12 0 -17 6.5t-6.5 15.5t-0.5 19.5t1 18.5z" />
    <glyph glyph-name="Scircumflex" unicode="&#x15c;" horiz-adv-x="616" 
d="M104 30q1 6 28.5 15t68.5 21.5t91 29t96.5 37.5t83.5 46.5t54 56.5q0 16 -22 25t-58 15t-82 10t-94.5 11t-94.5 18t-82 30.5t-58 49t-22 73.5q0 43 19.5 87.5t51.5 86.5t73.5 79t86.5 65t89 44t82 16q10 0 21 0.5t19.5 -1.5t14 -8.5t5.5 -19.5q0 -32 -21 -46t-51 -14
l-43 14q-25 0 -56.5 -14.5t-63.5 -39t-62.5 -56t-54 -65t-38 -67t-14.5 -60.5q0 -34 22 -55.5t58 -34.5t82.5 -19.5t94.5 -11.5t94.5 -11t82.5 -16.5t58 -29t22 -49.5q0 -30 -24 -60t-63 -57.5t-89.5 -51t-101.5 -40t-99.5 -25.5t-83.5 -8q-10 0 -17 7t-3 23zM255 873
q-7 -6 -16 -8t-17 0.5t-13 8.5t-3 16l98 183q1 3 8 8t15 7.5t15.5 1t11.5 -10.5l122 -173q9 -11 5 -18.5t-13 -11.5t-20.5 -4t-17.5 5l-97 137z" />
    <glyph glyph-name="Scommaaccent" unicode="&#x218;" horiz-adv-x="616" 
d="M104 30q1 6 28.5 15t68.5 21.5t91 29t96.5 37.5t83.5 46.5t54 56.5q0 16 -22 25t-58 15t-82 10t-94.5 11t-94.5 18t-82 30.5t-58 49t-22 73.5q0 43 19.5 87.5t51.5 86.5t73.5 79t86.5 65t89 44t82 16q10 0 21 0.5t19.5 -1.5t14 -8.5t5.5 -19.5q0 -32 -21 -46t-51 -14
l-43 14q-25 0 -56.5 -14.5t-63.5 -39t-62.5 -56t-54 -65t-38 -67t-14.5 -60.5q0 -34 22 -55.5t58 -34.5t82.5 -19.5t94.5 -11.5t94.5 -11t82.5 -16.5t58 -29t22 -49.5q0 -30 -24 -60t-63 -57.5t-89.5 -51t-101.5 -40t-99.5 -25.5t-83.5 -8q-10 0 -17 7t-3 23zM254 -273
q-23 -11 -35.5 -6.5t-21.5 21.5q4 17 9.5 41t8.5 49.5t1.5 50t-10.5 43.5q0 16 1.5 25.5t6 14.5t14 7t24.5 2q10 -15 17.5 -34.5t9.5 -48t-3.5 -68.5t-21.5 -97z" />
    <glyph glyph-name="Tbar" unicode="&#x166;" horiz-adv-x="678" 
d="M344 769q-39 5 -78 1.5t-77.5 -8.5t-77.5 -9.5t-78 -1.5q-11 1 -22.5 5t-9.5 21q1 11 11 22t21 10l301 18q1 5 4 14.5t8 18.5t12 15.5t16 5.5q13 -1 20.5 -8.5t12.5 -16t9 -15.5t10 -8q161 0 331 6q3 0 16 -0.5t18 -1.5q6 -17 -12.5 -26.5t-53 -14.5t-78.5 -7t-87.5 -3
t-82 -3t-60.5 -6q-8 -52 -9 -112t0.5 -124t5.5 -130t7.5 -130t4.5 -124t-3 -112q6 -32 -5.5 -36.5t-43.5 0.5q-8 41 -12 99.5t-6 127t-2 142t-1 144.5t-2.5 134.5t-6.5 112.5zM232 357q-8 -5 -16.5 2.5t-11.5 20t2.5 25.5t25.5 18l345 11q10 0 15 -7t6 -17t-1.5 -21
t-7.5 -18l-357 -14v0z" />
    <glyph glyph-name="Tcaron" unicode="&#x164;" horiz-adv-x="678" 
d="M344 769q-39 5 -78 1.5t-77.5 -8.5t-77.5 -9.5t-78 -1.5q-11 1 -22.5 5t-9.5 21q1 11 11 22t21 10l301 18q1 5 4 14.5t8 18.5t12 15.5t16 5.5q13 -1 20.5 -8.5t12.5 -16t9 -15.5t10 -8q161 0 331 6q3 0 16 -0.5t18 -1.5q6 -17 -12.5 -26.5t-53 -14.5t-78.5 -7t-87.5 -3
t-82 -3t-60.5 -6q-8 -52 -9 -112t0.5 -124t5.5 -130t7.5 -130t4.5 -124t-3 -112q6 -32 -5.5 -36.5t-43.5 0.5q-8 41 -12 99.5t-6 127t-2 142t-1 144.5t-2.5 134.5t-6.5 112.5zM445 1138q7 6 17 6.5t19.5 -3.5t15.5 -11t5 -17l-98 -183q-2 -3 -8.5 -8t-14.5 -7.5t-15.5 -1
t-11.5 10.5l-122 173q-9 11 -4.5 20t14.5 14.5t22 6.5t18 -3l89 -135z" />
    <glyph glyph-name="Tcommaaccent" unicode="&#x162;" horiz-adv-x="678" 
d="M344 769q-39 5 -78 1.5t-77.5 -8.5t-77.5 -9.5t-78 -1.5q-11 1 -22.5 5t-9.5 21q1 11 11 22t21 10l301 18q1 5 4 14.5t8 18.5t12 15.5t16 5.5q13 -1 20.5 -8.5t12.5 -16t9 -15.5t10 -8q161 0 331 6q3 0 16 -0.5t18 -1.5q6 -17 -12.5 -26.5t-53 -14.5t-78.5 -7t-87.5 -3
t-82 -3t-60.5 -6q-8 -52 -9 -112t0.5 -124t5.5 -130t7.5 -130t4.5 -124t-3 -112q6 -32 -5.5 -36.5t-43.5 0.5q-8 41 -12 99.5t-6 127t-2 142t-1 144.5t-2.5 134.5t-6.5 112.5zM417 -287q-23 -11 -35.5 -6.5t-21.5 21.5q4 17 9.5 41t8.5 49.5t1.5 50t-10.5 43.5
q0 16 1.5 25.5t6 14.5t14 7t24.5 2q10 -15 17.5 -34.5t9.5 -48t-3.5 -68.5t-21.5 -97z" />
    <glyph glyph-name="Uacute" unicode="&#xda;" horiz-adv-x="564" 
d="M475 296q-11 -41 -27 -92t-41 -96t-60.5 -76t-85.5 -31q-52 13 -89.5 51t-63.5 92t-42 119.5t-24.5 134t-11 135t-2 122.5t3 96.5t4.5 57.5q-3 16 7 24t23 9t24.5 -4t12.5 -13q-20 -147 -20.5 -259t11.5 -195.5t34.5 -140.5t48 -93.5t52.5 -55t48 -24.5q34 3 60.5 35.5
t46.5 84t34.5 116.5t24.5 134t16 136.5t9 122.5t3.5 93.5t-0.5 49.5q7 12 16.5 16t18 3t15.5 -6.5t10 -12.5q1 -26 -4.5 -96.5t-7 -177t6.5 -245t37 -298.5q0 -10 -6.5 -15t-15.5 -6.5t-19 -1t-17 1.5l-30 305v0zM239 866q-30 6 -33 23t11.5 38.5t40 46.5t51.5 48
q18 0 25 -10t7 -23v-8q-2 -13 -13.5 -28.5t-27 -31t-32.5 -30t-29 -25.5z" />
    <glyph glyph-name="Ubreve" unicode="&#x16c;" horiz-adv-x="578" 
d="M475 296q-11 -41 -27 -92t-41 -96t-60.5 -76t-85.5 -31q-52 13 -89.5 51t-63.5 92t-42 119.5t-24.5 134t-11 135t-2 122.5t3 96.5t4.5 57.5q-3 16 7 24t23 9t24.5 -4t12.5 -13q-20 -147 -20.5 -259t11.5 -195.5t34.5 -140.5t48 -93.5t52.5 -55t48 -24.5q34 3 60.5 35.5
t46.5 84t34.5 116.5t24.5 134t16 136.5t9 122.5t3.5 93.5t-0.5 49.5q7 12 16.5 16t18 3t15.5 -6.5t10 -12.5q1 -26 -4.5 -96.5t-7 -177t6.5 -245t37 -298.5q0 -10 -6.5 -15t-15.5 -6.5t-19 -1t-17 1.5l-30 305v0zM184 972q4 -3 10.5 -12t15.5 -18t21.5 -14.5t28.5 -1.5
t35 21t42 54q23 16 35 14.5t15 -13t0 -28t-10 -29.5q-34 -44 -62.5 -64.5t-53 -25t-44 3.5t-35 21.5t-27.5 28.5l-20 25q-16 10 -11.5 24t17.5 23t27 9t16 -18z" />
    <glyph glyph-name="Ucircumflex" unicode="&#xdb;" horiz-adv-x="578" 
d="M475 296q-11 -41 -27 -92t-41 -96t-60.5 -76t-85.5 -31q-52 13 -89.5 51t-63.5 92t-42 119.5t-24.5 134t-11 135t-2 122.5t3 96.5t4.5 57.5q-3 16 7 24t23 9t24.5 -4t12.5 -13q-20 -147 -20.5 -259t11.5 -195.5t34.5 -140.5t48 -93.5t52.5 -55t48 -24.5q34 3 60.5 35.5
t46.5 84t34.5 116.5t24.5 134t16 136.5t9 122.5t3.5 93.5t-0.5 49.5q7 12 16.5 16t18 3t15.5 -6.5t10 -12.5q1 -26 -4.5 -96.5t-7 -177t6.5 -245t37 -298.5q0 -10 -6.5 -15t-15.5 -6.5t-19 -1t-17 1.5l-30 305v0zM185 891q-7 -6 -16 -8t-17 0.5t-13 8.5t-3 16l98 183
q1 3 8 8t15 7.5t15.5 1t11.5 -10.5l122 -173q9 -11 5 -18.5t-13 -11.5t-20.5 -4t-17.5 5l-97 137z" />
    <glyph glyph-name="Udieresis" unicode="&#xdc;" horiz-adv-x="581" 
d="M475 296q-11 -41 -27 -92t-41 -96t-60.5 -76t-85.5 -31q-52 13 -89.5 51t-63.5 92t-42 119.5t-24.5 134t-11 135t-2 122.5t3 96.5t4.5 57.5q-3 16 7 24t23 9t24.5 -4t12.5 -13q-20 -147 -20.5 -259t11.5 -195.5t34.5 -140.5t48 -93.5t52.5 -55t48 -24.5q34 3 60.5 35.5
t46.5 84t34.5 116.5t24.5 134t16 136.5t9 122.5t3.5 93.5t-0.5 49.5q7 12 16.5 16t18 3t15.5 -6.5t10 -12.5q1 -26 -4.5 -96.5t-7 -177t6.5 -245t37 -298.5q0 -10 -6.5 -15t-15.5 -6.5t-19 -1t-17 1.5l-30 305v0zM156 929q-5 16 8 27t30.5 13.5t32.5 -6.5t15 -34
q0 -6 -4 -14.5t-10.5 -16t-14 -11.5t-14.5 -1q-7 -5 -15.5 -2.5t-15.5 9t-10.5 16t-1.5 20.5zM294 932q3 20 18 31t32 11t31 -11t14 -34q0 -6 -4 -14.5t-10.5 -16t-14 -11.5t-14.5 -1q-7 -5 -17 -2t-18.5 10t-13.5 17t-3 21z" />
    <glyph glyph-name="Ugrave" unicode="&#xd9;" horiz-adv-x="575" 
d="M475 296q-11 -41 -27 -92t-41 -96t-60.5 -76t-85.5 -31q-52 13 -89.5 51t-63.5 92t-42 119.5t-24.5 134t-11 135t-2 122.5t3 96.5t4.5 57.5q-3 16 7 24t23 9t24.5 -4t12.5 -13q-20 -147 -20.5 -259t11.5 -195.5t34.5 -140.5t48 -93.5t52.5 -55t48 -24.5q34 3 60.5 35.5
t46.5 84t34.5 116.5t24.5 134t16 136.5t9 122.5t3.5 93.5t-0.5 49.5q7 12 16.5 16t18 3t15.5 -6.5t10 -12.5q1 -26 -4.5 -96.5t-7 -177t6.5 -245t37 -298.5q0 -10 -6.5 -15t-15.5 -6.5t-19 -1t-17 1.5l-30 305v0zM289 905q-11 12 -25.5 27.5t-28.5 32.5t-24.5 34t-11.5 31
q-12 14 -4.5 28t32.5 16q23 -25 45.5 -52t35 -50.5t10.5 -41.5t-29 -25z" />
    <glyph glyph-name="Uhungarumlaut" unicode="&#x170;" horiz-adv-x="578" 
d="M475 296q-11 -41 -27 -92t-41 -96t-60.5 -76t-85.5 -31q-52 13 -89.5 51t-63.5 92t-42 119.5t-24.5 134t-11 135t-2 122.5t3 96.5t4.5 57.5q-3 16 7 24t23 9t24.5 -4t12.5 -13q-20 -147 -20.5 -259t11.5 -195.5t34.5 -140.5t48 -93.5t52.5 -55t48 -24.5q34 3 60.5 35.5
t46.5 84t34.5 116.5t24.5 134t16 136.5t9 122.5t3.5 93.5t-0.5 49.5q7 12 16.5 16t18 3t15.5 -6.5t10 -12.5q1 -26 -4.5 -96.5t-7 -177t6.5 -245t37 -298.5q0 -10 -6.5 -15t-15.5 -6.5t-19 -1t-17 1.5l-30 305v0zM182 911q-30 6 -33 23t11.5 38.5t40 46.5t51.5 48
q18 0 25 -10t7 -23v-8q-2 -13 -13.5 -28.5t-27 -31t-32.5 -30t-29 -25.5zM291 887q-30 6 -33 23t11.5 38.5t40 46.5t51.5 48q18 0 25 -10t7 -23v-8q-2 -13 -13.5 -28.5t-27 -31t-32.5 -30t-29 -25.5z" />
    <glyph glyph-name="Umacron" unicode="&#x16a;" horiz-adv-x="601" 
d="M475 296q-11 -41 -27 -92t-41 -96t-60.5 -76t-85.5 -31q-52 13 -89.5 51t-63.5 92t-42 119.5t-24.5 134t-11 135t-2 122.5t3 96.5t4.5 57.5q-3 16 7 24t23 9t24.5 -4t12.5 -13q-20 -147 -20.5 -259t11.5 -195.5t34.5 -140.5t48 -93.5t52.5 -55t48 -24.5q34 3 60.5 35.5
t46.5 84t34.5 116.5t24.5 134t16 136.5t9 122.5t3.5 93.5t-0.5 49.5q7 12 16.5 16t18 3t15.5 -6.5t10 -12.5q1 -26 -4.5 -96.5t-7 -177t6.5 -245t37 -298.5q0 -10 -6.5 -15t-15.5 -6.5t-19 -1t-17 1.5l-30 305v0zM107 892q-8 -5 -16.5 2.5t-11.5 20t2.5 25.5t25.5 18l345 11
q10 0 15 -7t6 -17t-1.5 -21t-7.5 -18l-357 -14v0z" />
    <glyph glyph-name="Uogonek" unicode="&#x172;" horiz-adv-x="595" 
d="M475 296q-11 -41 -27 -92t-41 -96t-60.5 -76t-85.5 -31q-52 13 -89.5 51t-63.5 92t-42 119.5t-24.5 134t-11 135t-2 122.5t3 96.5t4.5 57.5q-3 16 7 24t23 9t24.5 -4t12.5 -13q-20 -147 -20.5 -259t11.5 -195.5t34.5 -140.5t48 -93.5t52.5 -55t48 -24.5q34 3 60.5 35.5
t46.5 84t34.5 116.5t24.5 134t16 136.5t9 122.5t3.5 93.5t-0.5 49.5q7 12 16.5 16t18 3t15.5 -6.5t10 -12.5q1 -26 -4.5 -96.5t-7 -177t6.5 -245t37 -298.5q0 -10 -6.5 -15t-15.5 -6.5t-19 -1t-17 1.5l-30 305v0zM649 -140q22 -16 15.5 -36t-32 -36.5t-65 -25t-83.5 -0.5
q-42 12 -64 48.5t-21 82t26 91t77 74.5q18 1 22.5 -7.5t1.5 -20t-9.5 -21.5t-10.5 -13q-23 -29 -35.5 -58.5t-13 -54t11.5 -41.5t38 -21q18 0 35.5 6t35 13.5t35 13.5t36.5 6z" />
    <glyph glyph-name="Uring" unicode="&#x16e;" horiz-adv-x="587" 
d="M475 296q-11 -41 -27 -92t-41 -96t-60.5 -76t-85.5 -31q-52 13 -89.5 51t-63.5 92t-42 119.5t-24.5 134t-11 135t-2 122.5t3 96.5t4.5 57.5q-3 16 7 24t23 9t24.5 -4t12.5 -13q-20 -147 -20.5 -259t11.5 -195.5t34.5 -140.5t48 -93.5t52.5 -55t48 -24.5q34 3 60.5 35.5
t46.5 84t34.5 116.5t24.5 134t16 136.5t9 122.5t3.5 93.5t-0.5 49.5q7 12 16.5 16t18 3t15.5 -6.5t10 -12.5q1 -26 -4.5 -96.5t-7 -177t6.5 -245t37 -298.5q0 -10 -6.5 -15t-15.5 -6.5t-19 -1t-17 1.5l-30 305v0zM142 958q0 35 19 58.5t47 35t61 11.5t61.5 -11t48 -32.5
t21.5 -53.5q6 -25 -9.5 -45t-43 -32t-61.5 -15.5t-65 4t-53.5 27t-25.5 53.5zM199 960q11 -20 34 -31t46.5 -11.5t42.5 10.5t21 35q2 19 -8 32t-26.5 19.5t-36 6.5t-36 -6.5t-27.5 -20t-10 -34.5z" />
    <glyph glyph-name="Utilde" unicode="&#x168;" horiz-adv-x="590" 
d="M475 296q-11 -41 -27 -92t-41 -96t-60.5 -76t-85.5 -31q-52 13 -89.5 51t-63.5 92t-42 119.5t-24.5 134t-11 135t-2 122.5t3 96.5t4.5 57.5q-3 16 7 24t23 9t24.5 -4t12.5 -13q-20 -147 -20.5 -259t11.5 -195.5t34.5 -140.5t48 -93.5t52.5 -55t48 -24.5q34 3 60.5 35.5
t46.5 84t34.5 116.5t24.5 134t16 136.5t9 122.5t3.5 93.5t-0.5 49.5q7 12 16.5 16t18 3t15.5 -6.5t10 -12.5q1 -26 -4.5 -96.5t-7 -177t6.5 -245t37 -298.5q0 -10 -6.5 -15t-15.5 -6.5t-19 -1t-17 1.5l-30 305v0zM433 1009q16 5 29.5 5.5t19.5 -19.5q-5 -30 -23 -61
t-43.5 -47.5t-57.5 -11.5t-66 47q-17 25 -39 36t-42 7.5t-33 -23.5t-12 -56q-11 -4 -18 -2.5t-11 6t-6 12t-5 15.5q0 33 11.5 55t29.5 33.5t40.5 14t44 -3t39.5 -18.5t27 -32q20 -31 37.5 -39t31 -3t23.5 19.5t16.5 29t8 26t-1.5 10.5z" />
    <glyph glyph-name="Wacute" unicode="&#x1e82;" horiz-adv-x="926" 
d="M13 822q0 15 5.5 21.5t14 8t18 -0.5t17.5 -5l175 -770q4 4 16.5 38t29 85.5t36.5 114.5t39.5 126.5t36.5 120.5t29 97q7 15 17.5 22.5t22.5 7.5t23 -6t18 -18l198 -578l150 750q5 9 13.5 14.5t16.5 5.5t15.5 -7.5t11.5 -26.5l-169 -800q-2 -4 -9.5 -10.5t-18 -8.5
t-22.5 4t-21 27l-206 568l-186 -588q-9 -12 -23 -14.5t-27 0.5t-23 8.5t-11 8.5zM433 880q-30 6 -33 23t11.5 38.5t40 46.5t51.5 48q18 0 25 -10t7 -23v-8q-2 -13 -13.5 -28.5t-27 -31t-32.5 -30t-29 -25.5z" />
    <glyph glyph-name="Wcircumflex" unicode="&#x174;" horiz-adv-x="938" 
d="M13 822q0 15 5.5 21.5t14 8t18 -0.5t17.5 -5l175 -770q4 4 16.5 38t29 85.5t36.5 114.5t39.5 126.5t36.5 120.5t29 97q7 15 17.5 22.5t22.5 7.5t23 -6t18 -18l198 -578l150 750q5 9 13.5 14.5t16.5 5.5t15.5 -7.5t11.5 -26.5l-169 -800q-2 -4 -9.5 -10.5t-18 -8.5
t-22.5 4t-21 27l-206 568l-186 -588q-9 -12 -23 -14.5t-27 0.5t-23 8.5t-11 8.5zM380 879q-7 -6 -16 -8t-17 0.5t-13 8.5t-3 16l98 183q1 3 8 8t15 7.5t15.5 1t11.5 -10.5l122 -173q9 -11 5 -18.5t-13 -11.5t-20.5 -4t-17.5 5l-97 137z" />
    <glyph glyph-name="Wdieresis" unicode="&#x1e84;" horiz-adv-x="929" 
d="M13 822q0 15 5.5 21.5t14 8t18 -0.5t17.5 -5l175 -770q4 4 16.5 38t29 85.5t36.5 114.5t39.5 126.5t36.5 120.5t29 97q7 15 17.5 22.5t22.5 7.5t23 -6t18 -18l198 -578l150 750q5 9 13.5 14.5t16.5 5.5t15.5 -7.5t11.5 -26.5l-169 -800q-2 -4 -9.5 -10.5t-18 -8.5
t-22.5 4t-21 27l-206 568l-186 -588q-9 -12 -23 -14.5t-27 0.5t-23 8.5t-11 8.5zM309 923q-5 16 8 27t30.5 13.5t32.5 -6.5t15 -34q0 -6 -4 -14.5t-10.5 -16t-14 -11.5t-14.5 -1q-7 -5 -15.5 -2.5t-15.5 9t-10.5 16t-1.5 20.5zM447 926q3 20 18 31t32 11t31 -11t14 -34
q0 -6 -4 -14.5t-10.5 -16t-14 -11.5t-14.5 -1q-7 -5 -17 -2t-18.5 10t-13.5 17t-3 21z" />
    <glyph glyph-name="Wgrave" unicode="&#x1e80;" horiz-adv-x="935" 
d="M13 822q0 15 5.5 21.5t14 8t18 -0.5t17.5 -5l175 -770q4 4 16.5 38t29 85.5t36.5 114.5t39.5 126.5t36.5 120.5t29 97q7 15 17.5 22.5t22.5 7.5t23 -6t18 -18l198 -578l150 750q5 9 13.5 14.5t16.5 5.5t15.5 -7.5t11.5 -26.5l-169 -800q-2 -4 -9.5 -10.5t-18 -8.5
t-22.5 4t-21 27l-206 568l-186 -588q-9 -12 -23 -14.5t-27 0.5t-23 8.5t-11 8.5zM468 858q-11 12 -25.5 27.5t-28.5 32.5t-24.5 34t-11.5 31q-12 14 -4.5 28t32.5 16q23 -25 45.5 -52t35 -50.5t10.5 -41.5t-29 -25z" />
    <glyph glyph-name="Yacute" unicode="&#xdd;" horiz-adv-x="535" 
d="M305 337l-309 406q0 13 14 20.5t25 7.5l293 -358q4 8 14.5 36t24.5 67t30 85.5t30.5 92.5t25.5 86.5t16 68.5q7 7 15.5 5t16 -8t12.5 -14.5t5 -14.5q-35 -105 -59 -178t-40 -123.5t-25.5 -81.5t-15 -52t-9.5 -35.5t-8.5 -30.5t-11 -38t-18.5 -58t-31 -90.5t-47 -135.5
h-30.5t-15.5 15zM232 864q-30 6 -33 23t11.5 38.5t40 46.5t51.5 48q18 0 25 -10t7 -23v-8q-2 -13 -13.5 -28.5t-27 -31t-32.5 -30t-29 -25.5z" />
    <glyph glyph-name="Ycircumflex" unicode="&#x176;" horiz-adv-x="538" 
d="M305 337l-309 406q0 13 14 20.5t25 7.5l293 -358q4 8 14.5 36t24.5 67t30 85.5t30.5 92.5t25.5 86.5t16 68.5q7 7 15.5 5t16 -8t12.5 -14.5t5 -14.5q-35 -105 -59 -178t-40 -123.5t-25.5 -81.5t-15 -52t-9.5 -35.5t-8.5 -30.5t-11 -38t-18.5 -58t-31 -90.5t-47 -135.5
h-30.5t-15.5 15zM176 889q-7 -6 -16 -8t-17 0.5t-13 8.5t-3 16l98 183q1 3 8 8t15 7.5t15.5 1t11.5 -10.5l122 -173q9 -11 5 -18.5t-13 -11.5t-20.5 -4t-17.5 5l-97 137z" />
    <glyph glyph-name="Ygrave" unicode="&#x1ef2;" horiz-adv-x="550" 
d="M305 337l-309 406q0 13 14 20.5t25 7.5l293 -358q4 8 14.5 36t24.5 67t30 85.5t30.5 92.5t25.5 86.5t16 68.5q7 7 15.5 5t16 -8t12.5 -14.5t5 -14.5q-35 -105 -59 -178t-40 -123.5t-25.5 -81.5t-15 -52t-9.5 -35.5t-8.5 -30.5t-11 -38t-18.5 -58t-31 -90.5t-47 -135.5
h-30.5t-15.5 15zM307 849q-11 12 -25.5 27.5t-28.5 32.5t-24.5 34t-11.5 31q-12 14 -4.5 28t32.5 16q23 -25 45.5 -52t35 -50.5t10.5 -41.5t-29 -25z" />
    <glyph glyph-name="Zacute" unicode="&#x179;" horiz-adv-x="558" 
d="M442 794l-413 -6q-10 3 -15.5 9t-7 13.5t1.5 14.5t10 10q0 1 20.5 2.5t55 3t78 2.5t89 2.5t90 2t79.5 1t57.5 1t24.5 0.5l4 -47l-430 -740h432q9 -4 13.5 -13t3 -18.5t-8 -16.5t-18.5 -7l-462 1q-11 0 -16.5 7t-8 17t-3 21.5t-0.5 20.5zM214 875q-30 6 -33 23t11.5 38.5
t40 46.5t51.5 48q18 0 25 -10t7 -23v-8q-2 -13 -13.5 -28.5t-27 -31t-32.5 -30t-29 -25.5z" />
    <glyph glyph-name="Zdotaccent" unicode="&#x17b;" horiz-adv-x="544" 
d="M442 794l-413 -6q-10 3 -15.5 9t-7 13.5t1.5 14.5t10 10q0 1 20.5 2.5t55 3t78 2.5t89 2.5t90 2t79.5 1t57.5 1t24.5 0.5l4 -47l-430 -740h432q9 -4 13.5 -13t3 -18.5t-8 -16.5t-18.5 -7l-462 1q-11 0 -16.5 7t-8 17t-3 21.5t-0.5 20.5zM204 940q1 13 12.5 23.5
t25.5 13.5t28 -5t20 -32q0 -6 -4 -14.5t-10.5 -16t-14 -11.5t-14.5 -1q-7 -5 -15.5 -2.5t-15.5 9t-10.5 16t-1.5 20.5z" />
    <glyph glyph-name="aacute" unicode="&#xe1;" 
d="M366 10q-14 21 -17.5 55t-4 71.5t0 74t-5.5 62.5q-47 -103 -88.5 -160.5t-76 -82t-62.5 -22t-47.5 20t-30.5 43t-12 48.5q-7 38 -0.5 91.5t23 110.5t42 111.5t58 94.5t69.5 59.5t77 6.5q20 2 33.5 -1.5t22.5 -14.5t13 -30.5t6 -49.5q-2 -97 5.5 -165t17.5 -120t19.5 -94
t11.5 -87q0 -16 -8 -24.5t-18 -11t-18.5 1.5t-9.5 12zM308 515q-24 32 -52 27t-55.5 -34.5t-52.5 -77t-43 -101.5t-26.5 -107.5t-3.5 -94.5q14 -45 34 -54t43 6.5t47 49.5t46 73.5t39.5 79t28.5 66.5zM198 668q-30 6 -33 23t11.5 38.5t40 46.5t51.5 48q18 0 25 -10t7 -23v-8
q-2 -13 -13.5 -28.5t-27 -31t-32.5 -30t-29 -25.5z" />
    <glyph glyph-name="abreve" unicode="&#x103;" 
d="M366 10q-14 21 -17.5 55t-4 71.5t0 74t-5.5 62.5q-47 -103 -88.5 -160.5t-76 -82t-62.5 -22t-47.5 20t-30.5 43t-12 48.5q-7 38 -0.5 91.5t23 110.5t42 111.5t58 94.5t69.5 59.5t77 6.5q20 2 33.5 -1.5t22.5 -14.5t13 -30.5t6 -49.5q-2 -97 5.5 -165t17.5 -120t19.5 -94
t11.5 -87q0 -16 -8 -24.5t-18 -11t-18.5 1.5t-9.5 12zM308 515q-24 32 -52 27t-55.5 -34.5t-52.5 -77t-43 -101.5t-26.5 -107.5t-3.5 -94.5q14 -45 34 -54t43 6.5t47 49.5t46 73.5t39.5 79t28.5 66.5zM114 745q4 -3 10.5 -12t15.5 -18t21.5 -14.5t28.5 -1.5t35 21t42 54
q23 16 35 14.5t15 -13t0 -28t-10 -29.5q-34 -44 -62.5 -64.5t-53 -25t-44 3.5t-35 21.5t-27.5 28.5l-20 25q-16 10 -11.5 24t17.5 23t27 9t16 -18z" />
    <glyph glyph-name="acircumflex" unicode="&#xe2;" 
d="M366 10q-14 21 -17.5 55t-4 71.5t0 74t-5.5 62.5q-47 -103 -88.5 -160.5t-76 -82t-62.5 -22t-47.5 20t-30.5 43t-12 48.5q-7 38 -0.5 91.5t23 110.5t42 111.5t58 94.5t69.5 59.5t77 6.5q20 2 33.5 -1.5t22.5 -14.5t13 -30.5t6 -49.5q-2 -97 5.5 -165t17.5 -120t19.5 -94
t11.5 -87q0 -16 -8 -24.5t-18 -11t-18.5 1.5t-9.5 12zM308 515q-24 32 -52 27t-55.5 -34.5t-52.5 -77t-43 -101.5t-26.5 -107.5t-3.5 -94.5q14 -45 34 -54t43 6.5t47 49.5t46 73.5t39.5 79t28.5 66.5zM122 641q-7 -6 -16 -8t-17 0.5t-13 8.5t-3 16l98 183q1 3 8 8t15 7.5
t15.5 1t11.5 -10.5l122 -173q9 -11 5 -18.5t-13 -11.5t-20.5 -4t-17.5 5l-97 137z" />
    <glyph glyph-name="adieresis" unicode="&#xe4;" 
d="M366 10q-14 21 -17.5 55t-4 71.5t0 74t-5.5 62.5q-47 -103 -88.5 -160.5t-76 -82t-62.5 -22t-47.5 20t-30.5 43t-12 48.5q-7 38 -0.5 91.5t23 110.5t42 111.5t58 94.5t69.5 59.5t77 6.5q20 2 33.5 -1.5t22.5 -14.5t13 -30.5t6 -49.5q-2 -97 5.5 -165t17.5 -120t19.5 -94
t11.5 -87q0 -16 -8 -24.5t-18 -11t-18.5 1.5t-9.5 12zM308 515q-24 32 -52 27t-55.5 -34.5t-52.5 -77t-43 -101.5t-26.5 -107.5t-3.5 -94.5q14 -45 34 -54t43 6.5t47 49.5t46 73.5t39.5 79t28.5 66.5zM118 702q-5 16 8 27t30.5 13.5t32.5 -6.5t15 -34q0 -6 -4 -14.5
t-10.5 -16t-14 -11.5t-14.5 -1q-7 -5 -15.5 -2.5t-15.5 9t-10.5 16t-1.5 20.5zM256 705q3 20 18 31t32 11t31 -11t14 -34q0 -6 -4 -14.5t-10.5 -16t-14 -11.5t-14.5 -1q-7 -5 -17 -2t-18.5 10t-13.5 17t-3 21z" />
    <glyph glyph-name="agrave" unicode="&#xe0;" horiz-adv-x="426" 
d="M366 10q-14 21 -17.5 55t-4 71.5t0 74t-5.5 62.5q-47 -103 -88.5 -160.5t-76 -82t-62.5 -22t-47.5 20t-30.5 43t-12 48.5q-7 38 -0.5 91.5t23 110.5t42 111.5t58 94.5t69.5 59.5t77 6.5q20 2 33.5 -1.5t22.5 -14.5t13 -30.5t6 -49.5q-2 -97 5.5 -165t17.5 -120t19.5 -94
t11.5 -87q0 -16 -8 -24.5t-18 -11t-18.5 1.5t-9.5 12zM308 515q-24 32 -52 27t-55.5 -34.5t-52.5 -77t-43 -101.5t-26.5 -107.5t-3.5 -94.5q14 -45 34 -54t43 6.5t47 49.5t46 73.5t39.5 79t28.5 66.5zM227 641q-11 12 -25.5 27.5t-28.5 32.5t-24.5 34t-11.5 31
q-12 14 -4.5 28t32.5 16q23 -25 45.5 -52t35 -50.5t10.5 -41.5t-29 -25z" />
    <glyph glyph-name="amacron" unicode="&#x101;" 
d="M366 10q-14 21 -17.5 55t-4 71.5t0 74t-5.5 62.5q-47 -103 -88.5 -160.5t-76 -82t-62.5 -22t-47.5 20t-30.5 43t-12 48.5q-7 38 -0.5 91.5t23 110.5t42 111.5t58 94.5t69.5 59.5t77 6.5q20 2 33.5 -1.5t22.5 -14.5t13 -30.5t6 -49.5q-2 -97 5.5 -165t17.5 -120t19.5 -94
t11.5 -87q0 -16 -8 -24.5t-18 -11t-18.5 1.5t-9.5 12zM308 515q-24 32 -52 27t-55.5 -34.5t-52.5 -77t-43 -101.5t-26.5 -107.5t-3.5 -94.5q14 -45 34 -54t43 6.5t47 49.5t46 73.5t39.5 79t28.5 66.5zM55 636q-8 -5 -16.5 2.5t-11.5 20t2.5 25.5t25.5 18l345 11q10 0 15 -7
t6 -17t-1.5 -21t-7.5 -18l-357 -14v0z" />
    <glyph glyph-name="aogonek" unicode="&#x105;" 
d="M366 10q-14 21 -17.5 55t-4 71.5t0 74t-5.5 62.5q-47 -103 -88.5 -160.5t-76 -82t-62.5 -22t-47.5 20t-30.5 43t-12 48.5q-7 38 -0.5 91.5t23 110.5t42 111.5t58 94.5t69.5 59.5t77 6.5q20 2 33.5 -1.5t22.5 -14.5t13 -30.5t6 -49.5q-2 -97 5.5 -165t17.5 -120t19.5 -94
t11.5 -87q0 -16 -8 -24.5t-18 -11t-18.5 1.5t-9.5 12zM308 515q-24 32 -52 27t-55.5 -34.5t-52.5 -77t-43 -101.5t-26.5 -107.5t-3.5 -94.5q14 -45 34 -54t43 6.5t47 49.5t46 73.5t39.5 79t28.5 66.5zM508 -132q22 -16 15.5 -36t-32 -36.5t-65 -25t-83.5 -0.5
q-42 12 -64 48.5t-21 82t26 91t77 74.5q18 1 22.5 -7.5t1.5 -20t-9.5 -21.5t-10.5 -13q-23 -29 -35.5 -58.5t-13 -54t11.5 -41.5t38 -21q18 0 35.5 6t35 13.5t35 13.5t36.5 6z" />
    <glyph glyph-name="aring" unicode="&#xe5;" 
d="M366 10q-14 21 -17.5 55t-4 71.5t0 74t-5.5 62.5q-47 -103 -88.5 -160.5t-76 -82t-62.5 -22t-47.5 20t-30.5 43t-12 48.5q-7 38 -0.5 91.5t23 110.5t42 111.5t58 94.5t69.5 59.5t77 6.5q20 2 33.5 -1.5t22.5 -14.5t13 -30.5t6 -49.5q-2 -97 5.5 -165t17.5 -120t19.5 -94
t11.5 -87q0 -16 -8 -24.5t-18 -11t-18.5 1.5t-9.5 12zM308 515q-24 32 -52 27t-55.5 -34.5t-52.5 -77t-43 -101.5t-26.5 -107.5t-3.5 -94.5q14 -45 34 -54t43 6.5t47 49.5t46 73.5t39.5 79t28.5 66.5zM110 712q0 35 19 58.5t47 35t61 11.5t61.5 -11t48 -32.5t21.5 -53.5
q6 -25 -9.5 -45t-43 -32t-61.5 -15.5t-65 4t-53.5 27t-25.5 53.5zM167 714q11 -20 34 -31t46.5 -11.5t42.5 10.5t21 35q2 19 -8 32t-26.5 19.5t-36 6.5t-36 -6.5t-27.5 -20t-10 -34.5z" />
    <glyph glyph-name="atilde" unicode="&#xe3;" 
d="M366 10q-14 21 -17.5 55t-4 71.5t0 74t-5.5 62.5q-47 -103 -88.5 -160.5t-76 -82t-62.5 -22t-47.5 20t-30.5 43t-12 48.5q-7 38 -0.5 91.5t23 110.5t42 111.5t58 94.5t69.5 59.5t77 6.5q20 2 33.5 -1.5t22.5 -14.5t13 -30.5t6 -49.5q-2 -97 5.5 -165t17.5 -120t19.5 -94
t11.5 -87q0 -16 -8 -24.5t-18 -11t-18.5 1.5t-9.5 12zM308 515q-24 32 -52 27t-55.5 -34.5t-52.5 -77t-43 -101.5t-26.5 -107.5t-3.5 -94.5q14 -45 34 -54t43 6.5t47 49.5t46 73.5t39.5 79t28.5 66.5zM350 818q16 5 29.5 5.5t19.5 -19.5q-5 -30 -23 -61t-43.5 -47.5
t-57.5 -11.5t-66 47q-17 25 -39 36t-42 7.5t-33 -23.5t-12 -56q-11 -4 -18 -2.5t-11 6t-6 12t-5 15.5q0 33 11.5 55t29.5 33.5t40.5 14t44 -3t39.5 -18.5t27 -32q20 -31 37.5 -39t31 -3t23.5 19.5t16.5 29t8 26t-1.5 10.5z" />
    <glyph glyph-name="ae" unicode="&#xe6;" horiz-adv-x="742" 
d="M28 97q-7 37 4.5 89t36 107t59 108t74 92t81.5 59t82 10q19 24 47 37.5t69 9.5q20 0 45 -9.5t48 -25t40 -37t21 -46.5q7 -9 -8 -25t-42 -34t-61 -37t-65.5 -36t-55.5 -30t-31 -18q2 -32 6 -73t16 -77.5t34 -63.5t59 -30q44 -3 75.5 13t52.5 42t33.5 57t19 59t9 47.5
t4.5 21.5q11 6 25 0.5t16 -29.5q1 -39 -17 -89t-49.5 -92t-75 -67.5t-92.5 -17.5q-45 1 -73 20t-45.5 49t-26 66t-14.5 70q-45 -92 -84.5 -143t-72.5 -71.5t-59 -16.5t-44.5 21.5t-29 42.5t-11.5 47zM81 104q13 -44 32.5 -53.5t41.5 4t45.5 45t45 69.5t39.5 77t30 68
q-2 51 1.5 92.5t12.5 77.5q-23 12 -52 -2t-57.5 -44.5t-55.5 -73t-46.5 -89t-30 -91.5t-6.5 -80zM582 491q-32 44 -65 56t-68 7q-21 -3 -37 -19.5t-26 -42t-14 -57t-1 -64.5z" />
    <glyph glyph-name="aeacute" unicode="&#x1fd;" horiz-adv-x="733" 
d="M28 97q1 -22 11.5 -47t29 -42.5t44.5 -21.5t59 16.5t72.5 71.5t84.5 143q6 -34 14.5 -70t26 -66t45.5 -49t73 -20q49 -8 92.5 17.5t75 67.5t49.5 92t17 89q-2 24 -16 29.5t-25 -0.5q-2 -2 -4.5 -21.5t-9 -47.5t-19 -59t-33.5 -57t-52.5 -42t-75.5 -13q-37 3 -59 30
t-34 63.5t-16 77.5t-6 73q7 5 31 18t55.5 30t65.5 36t61 37t42 34t8 25q-4 25 -21 46.5t-40 37t-48 25t-45 9.5q-41 4 -69 -9.5t-47 -37.5q-40 10 -82 -10t-81.5 -59t-74 -92t-59 -108t-36 -107t-4.5 -89zM81 104q-4 35 6.5 80t30 91.5t46.5 89t55.5 73t57.5 44.5t52 2
q-9 -36 -12.5 -77.5t-1.5 -92.5q-12 -29 -30 -68t-39.5 -77t-45 -69.5t-45.5 -45t-41.5 -4t-32.5 53.5zM371 371q-3 33 1 64.5t14 57t26 42t37 19.5q35 5 68 -7t65 -56zM390 668q-30 6 -33 23t11.5 38.5t40 46.5t51.5 48q18 0 25 -10t7 -23v-8q-2 -13 -13.5 -28.5t-27 -31
t-32.5 -30t-29 -25.5z" />
    <glyph glyph-name="cacute" unicode="&#x107;" 
d="M29 256q3 41 7 83t12 81.5t21 74.5t33.5 61t50 41t70.5 14q28 0 43 -23.5t21.5 -56.5t7 -68t0.5 -57q-15 -6 -25.5 0t-17 19.5t-11.5 31.5t-8.5 36t-8 34t-10.5 26q-18 8 -35 -5t-31 -37.5t-25.5 -58.5t-19.5 -68.5t-13 -66.5t-5 -54q1 -30 6 -64.5t16 -64.5t29 -51.5
t46 -27.5q38 0 64.5 12.5t44 32t27.5 43.5t16 48.5t9.5 46t7.5 35.5q26 7 40.5 -1t14.5 -19q0 -46 -16 -91.5t-45.5 -81.5t-71.5 -58t-95 -22q-45 0 -74 28.5t-45.5 68.5t-23 84t-6.5 75zM180 685q-30 6 -33 23t11.5 38.5t40 46.5t51.5 48q18 0 25 -10t7 -23v-8
q-2 -13 -13.5 -28.5t-27 -31t-32.5 -30t-29 -25.5z" />
    <glyph glyph-name="ccaron" unicode="&#x10d;" horiz-adv-x="420" 
d="M29 256q3 41 7 83t12 81.5t21 74.5t33.5 61t50 41t70.5 14q28 0 43 -23.5t21.5 -56.5t7 -68t0.5 -57q-15 -6 -25.5 0t-17 19.5t-11.5 31.5t-8.5 36t-8 34t-10.5 26q-18 8 -35 -5t-31 -37.5t-25.5 -58.5t-19.5 -68.5t-13 -66.5t-5 -54q1 -30 6 -64.5t16 -64.5t29 -51.5
t46 -27.5q38 0 64.5 12.5t44 32t27.5 43.5t16 48.5t9.5 46t7.5 35.5q26 7 40.5 -1t14.5 -19q0 -46 -16 -91.5t-45.5 -81.5t-71.5 -58t-95 -22q-45 0 -74 28.5t-45.5 68.5t-23 84t-6.5 75zM257 863q7 6 17 6.5t19.5 -3.5t15.5 -11t5 -17l-98 -183q-2 -3 -8.5 -8t-14.5 -7.5
t-15.5 -1t-11.5 10.5l-122 173q-9 11 -4.5 20t14.5 14.5t22 6.5t18 -3l89 -135z" />
    <glyph glyph-name="ccedilla" unicode="&#xe7;" horiz-adv-x="420" 
d="M29 256q3 41 7 83t12 81.5t21 74.5t33.5 61t50 41t70.5 14q28 0 43 -23.5t21.5 -56.5t7 -68t0.5 -57q-15 -6 -25.5 0t-17 19.5t-11.5 31.5t-8.5 36t-8 34t-10.5 26q-18 8 -35 -5t-31 -37.5t-25.5 -58.5t-19.5 -68.5t-13 -66.5t-5 -54q1 -30 6 -64.5t16 -64.5t29 -51.5
t46 -27.5q38 0 64.5 12.5t44 32t27.5 43.5t16 48.5t9.5 46t7.5 35.5q26 7 40.5 -1t14.5 -19q0 -46 -16 -91.5t-45.5 -81.5t-71.5 -58t-95 -22q-45 0 -74 28.5t-45.5 68.5t-23 84t-6.5 75zM160 -193q0 -2 20.5 -4t45.5 0.5t46.5 11.5t23.5 27q1 7 1.5 15.5t-5 17.5t-19 19.5
t-40.5 22.5q-24 0 -41 3.5t-27.5 13t-15 26t-4.5 42.5q4 24 11.5 33.5t15.5 9t15.5 -8t12 -16.5t5.5 -17.5t-4 -10.5q3 -16 21.5 -21.5t42.5 -12t48.5 -20t40.5 -44.5q19 -39 6.5 -67.5t-42 -47t-67 -27t-68.5 -5.5q-12 0 -17 6.5t-6.5 15.5t-0.5 19.5t1 18.5z" />
    <glyph glyph-name="ccircumflex" unicode="&#x109;" horiz-adv-x="420" 
d="M29 256q3 41 7 83t12 81.5t21 74.5t33.5 61t50 41t70.5 14q28 0 43 -23.5t21.5 -56.5t7 -68t0.5 -57q-15 -6 -25.5 0t-17 19.5t-11.5 31.5t-8.5 36t-8 34t-10.5 26q-18 8 -35 -5t-31 -37.5t-25.5 -58.5t-19.5 -68.5t-13 -66.5t-5 -54q1 -30 6 -64.5t16 -64.5t29 -51.5
t46 -27.5q38 0 64.5 12.5t44 32t27.5 43.5t16 48.5t9.5 46t7.5 35.5q26 7 40.5 -1t14.5 -19q0 -46 -16 -91.5t-45.5 -81.5t-71.5 -58t-95 -22q-45 0 -74 28.5t-45.5 68.5t-23 84t-6.5 75zM118 650q-7 -6 -16 -8t-17 0.5t-13 8.5t-3 16l98 183q1 3 8 8t15 7.5t15.5 1
t11.5 -10.5l122 -173q9 -11 5 -18.5t-13 -11.5t-20.5 -4t-17.5 5l-97 137z" />
    <glyph glyph-name="cdotaccent" unicode="&#x10b;" horiz-adv-x="411" 
d="M26 256q3 41 7 83t12 81.5t21 74.5t33.5 61t50 41t70.5 14q28 0 43 -23.5t21.5 -56.5t7 -68t0.5 -57q-15 -6 -25.5 0t-17 19.5t-11.5 31.5t-8.5 36t-8 34t-10.5 26q-18 8 -35 -5t-31 -37.5t-25.5 -58.5t-19.5 -68.5t-13 -66.5t-5 -54q1 -30 6 -64.5t16 -64.5t29 -51.5
t46 -27.5q38 0 64.5 12.5t44 32t27.5 43.5t16 48.5t9.5 46t7.5 35.5q26 7 40.5 -1t14.5 -19q0 -46 -16 -91.5t-45.5 -81.5t-71.5 -58t-95 -22q-45 0 -74 28.5t-45.5 68.5t-23 84t-6.5 75zM162.739 733.814q0.760742 12.2344 9.51074 22.1172q8.75 9.88184 19.4023 12.7051
q10.6514 2.82422 21.3037 -4.70508t15.2178 -30.1172q0 -5.64746 -3.04395 -13.6475t-7.98926 -15.0586t-10.6523 -10.8232q-5.70605 -3.76465 -11.0322 -0.941406q-5.32617 -4.70508 -11.793 -2.35254q-6.46777 2.35254 -11.7939 8.4707q-5.32617 6.11719 -7.98926 15.0586
q-2.66309 8.94043 -1.14062 19.2939z" />
    <glyph glyph-name="eacute" unicode="&#xe9;" horiz-adv-x="477" 
d="M60 267q-7 -6 -24.5 -4.5t-32 7.5t-19.5 16.5t12 24.5q7 6 15.5 8.5l17 5t14 7.5t6.5 16q1 45 7.5 92t24.5 84t51.5 59t88.5 17q20 0 45 -9.5t48 -25t40 -37t21 -46.5q7 -10 -8 -25t-42 -33.5t-61 -37.5t-65.5 -36t-55.5 -30t-31 -18q6 -39 13 -82t20 -79t32.5 -59.5
t49.5 -23.5q44 -3 75.5 13t52.5 42t33.5 57t19 59t9 47.5t4.5 21.5q11 6 25 0.5t16 -29.5q1 -39 -17 -89t-49.5 -92t-75 -67.5t-92.5 -17.5q-51 1 -81 29.5t-47.5 69t-25.5 85.5t-14 80zM322 482q-32 44 -65 56t-68 7q-21 -3 -37 -19.5t-26 -42t-14 -57t-1 -64.5zM180 679
q-30 6 -33 23t11.5 38.5t40 46.5t51.5 48q18 0 25 -10t7 -23v-8q-2 -13 -13.5 -28.5t-27 -31t-32.5 -30t-29 -25.5z" />
    <glyph glyph-name="ebreve" unicode="&#x115;" horiz-adv-x="477" 
d="M60 267q-7 -6 -24.5 -4.5t-32 7.5t-19.5 16.5t12 24.5q7 6 15.5 8.5l17 5t14 7.5t6.5 16q1 45 7.5 92t24.5 84t51.5 59t88.5 17q20 0 45 -9.5t48 -25t40 -37t21 -46.5q7 -10 -8 -25t-42 -33.5t-61 -37.5t-65.5 -36t-55.5 -30t-31 -18q6 -39 13 -82t20 -79t32.5 -59.5
t49.5 -23.5q44 -3 75.5 13t52.5 42t33.5 57t19 59t9 47.5t4.5 21.5q11 6 25 0.5t16 -29.5q1 -39 -17 -89t-49.5 -92t-75 -67.5t-92.5 -17.5q-51 1 -81 29.5t-47.5 69t-25.5 85.5t-14 80zM322 482q-32 44 -65 56t-68 7q-21 -3 -37 -19.5t-26 -42t-14 -57t-1 -64.5zM142 776
q4 -3 10.5 -12t15.5 -18t21.5 -14.5t28.5 -1.5t35 21t42 54q23 16 35 14.5t15 -13t0 -28t-10 -29.5q-34 -44 -62.5 -64.5t-53 -25t-44 3.5t-35 21.5t-27.5 28.5l-20 25q-16 10 -11.5 24t17.5 23t27 9t16 -18z" />
    <glyph glyph-name="ecaron" unicode="&#x11b;" horiz-adv-x="475" 
d="M60 267q-7 -6 -24.5 -4.5t-32 7.5t-19.5 16.5t12 24.5q7 6 15.5 8.5l17 5t14 7.5t6.5 16q1 45 7.5 92t24.5 84t51.5 59t88.5 17q20 0 45 -9.5t48 -25t40 -37t21 -46.5q7 -10 -8 -25t-42 -33.5t-61 -37.5t-65.5 -36t-55.5 -30t-31 -18q6 -39 13 -82t20 -79t32.5 -59.5
t49.5 -23.5q44 -3 75.5 13t52.5 42t33.5 57t19 59t9 47.5t4.5 21.5q11 6 25 0.5t16 -29.5q1 -39 -17 -89t-49.5 -92t-75 -67.5t-92.5 -17.5q-51 1 -81 29.5t-47.5 69t-25.5 85.5t-14 80zM322 482q-32 44 -65 56t-68 7q-21 -3 -37 -19.5t-26 -42t-14 -57t-1 -64.5zM273 863
q7 6 17 6.5t19.5 -3.5t15.5 -11t5 -17l-98 -183q-2 -3 -8.5 -8t-14.5 -7.5t-15.5 -1t-11.5 10.5l-122 173q-9 11 -4.5 20t14.5 14.5t22 6.5t18 -3l89 -135z" />
    <glyph glyph-name="ecircumflex" unicode="&#xea;" horiz-adv-x="477" 
d="M60 267q-7 -6 -24.5 -4.5t-32 7.5t-19.5 16.5t12 24.5q7 6 15.5 8.5l17 5t14 7.5t6.5 16q1 45 7.5 92t24.5 84t51.5 59t88.5 17q20 0 45 -9.5t48 -25t40 -37t21 -46.5q7 -10 -8 -25t-42 -33.5t-61 -37.5t-65.5 -36t-55.5 -30t-31 -18q6 -39 13 -82t20 -79t32.5 -59.5
t49.5 -23.5q44 -3 75.5 13t52.5 42t33.5 57t19 59t9 47.5t4.5 21.5q11 6 25 0.5t16 -29.5q1 -39 -17 -89t-49.5 -92t-75 -67.5t-92.5 -17.5q-51 1 -81 29.5t-47.5 69t-25.5 85.5t-14 80zM322 482q-32 44 -65 56t-68 7q-21 -3 -37 -19.5t-26 -42t-14 -57t-1 -64.5zM116 644
q-7 -6 -16 -8t-17 0.5t-13 8.5t-3 16l98 183q1 3 8 8t15 7.5t15.5 1t11.5 -10.5l122 -173q9 -11 5 -18.5t-13 -11.5t-20.5 -4t-17.5 5l-97 137z" />
    <glyph glyph-name="edieresis" unicode="&#xeb;" horiz-adv-x="466" 
d="M60 267q-7 -6 -24.5 -4.5t-32 7.5t-19.5 16.5t12 24.5q7 6 15.5 8.5l17 5t14 7.5t6.5 16q1 45 7.5 92t24.5 84t51.5 59t88.5 17q20 0 45 -9.5t48 -25t40 -37t21 -46.5q7 -10 -8 -25t-42 -33.5t-61 -37.5t-65.5 -36t-55.5 -30t-31 -18q6 -39 13 -82t20 -79t32.5 -59.5
t49.5 -23.5q44 -3 75.5 13t52.5 42t33.5 57t19 59t9 47.5t4.5 21.5q11 6 25 0.5t16 -29.5q1 -39 -17 -89t-49.5 -92t-75 -67.5t-92.5 -17.5q-51 1 -81 29.5t-47.5 69t-25.5 85.5t-14 80zM322 482q-32 44 -65 56t-68 7q-21 -3 -37 -19.5t-26 -42t-14 -57t-1 -64.5zM82 697
q-5 16 8 27t30.5 13.5t32.5 -6.5t15 -34q0 -6 -4 -14.5t-10.5 -16t-14 -11.5t-14.5 -1q-7 -5 -15.5 -2.5t-15.5 9t-10.5 16t-1.5 20.5zM220 700q3 20 18 31t32 11t31 -11t14 -34q0 -6 -4 -14.5t-10.5 -16t-14 -11.5t-14.5 -1q-7 -5 -17 -2t-18.5 10t-13.5 17t-3 21z" />
    <glyph glyph-name="edotaccent" unicode="&#x117;" horiz-adv-x="469" 
d="M60 267q-7 -6 -24.5 -4.5t-32 7.5t-19.5 16.5t12 24.5q7 6 15.5 8.5l17 5t14 7.5t6.5 16q1 45 7.5 92t24.5 84t51.5 59t88.5 17q20 0 45 -9.5t48 -25t40 -37t21 -46.5q7 -10 -8 -25t-42 -33.5t-61 -37.5t-65.5 -36t-55.5 -30t-31 -18q6 -39 13 -82t20 -79t32.5 -59.5
t49.5 -23.5q44 -3 75.5 13t52.5 42t33.5 57t19 59t9 47.5t4.5 21.5q11 6 25 0.5t16 -29.5q1 -39 -17 -89t-49.5 -92t-75 -67.5t-92.5 -17.5q-51 1 -81 29.5t-47.5 69t-25.5 85.5t-14 80zM322 482q-32 44 -65 56t-68 7q-21 -3 -37 -19.5t-26 -42t-14 -57t-1 -64.5zM122 709
q1 13 12.5 23.5t25.5 13.5t28 -5t20 -32q0 -6 -4 -14.5t-10.5 -16t-14 -11.5t-14.5 -1q-7 -5 -15.5 -2.5t-15.5 9t-10.5 16t-1.5 20.5z" />
    <glyph glyph-name="egrave" unicode="&#xe8;" horiz-adv-x="477" 
d="M60 267q-7 -6 -24.5 -4.5t-32 7.5t-19.5 16.5t12 24.5q7 6 15.5 8.5l17 5t14 7.5t6.5 16q1 45 7.5 92t24.5 84t51.5 59t88.5 17q20 0 45 -9.5t48 -25t40 -37t21 -46.5q7 -10 -8 -25t-42 -33.5t-61 -37.5t-65.5 -36t-55.5 -30t-31 -18q6 -39 13 -82t20 -79t32.5 -59.5
t49.5 -23.5q44 -3 75.5 13t52.5 42t33.5 57t19 59t9 47.5t4.5 21.5q11 6 25 0.5t16 -29.5q1 -39 -17 -89t-49.5 -92t-75 -67.5t-92.5 -17.5q-51 1 -81 29.5t-47.5 69t-25.5 85.5t-14 80zM322 482q-32 44 -65 56t-68 7q-21 -3 -37 -19.5t-26 -42t-14 -57t-1 -64.5zM214 664
q-11 12 -25.5 27.5t-28.5 32.5t-24.5 34t-11.5 31q-12 14 -4.5 28t32.5 16q23 -25 45.5 -52t35 -50.5t10.5 -41.5t-29 -25z" />
    <glyph glyph-name="emacron" unicode="&#x113;" horiz-adv-x="472" 
d="M60 267q-7 -6 -24.5 -4.5t-32 7.5t-19.5 16.5t12 24.5q7 6 15.5 8.5l17 5t14 7.5t6.5 16q1 45 7.5 92t24.5 84t51.5 59t88.5 17q20 0 45 -9.5t48 -25t40 -37t21 -46.5q7 -10 -8 -25t-42 -33.5t-61 -37.5t-65.5 -36t-55.5 -30t-31 -18q6 -39 13 -82t20 -79t32.5 -59.5
t49.5 -23.5q44 -3 75.5 13t52.5 42t33.5 57t19 59t9 47.5t4.5 21.5q11 6 25 0.5t16 -29.5q1 -39 -17 -89t-49.5 -92t-75 -67.5t-92.5 -17.5q-51 1 -81 29.5t-47.5 69t-25.5 85.5t-14 80zM322 482q-32 44 -65 56t-68 7q-21 -3 -37 -19.5t-26 -42t-14 -57t-1 -64.5zM63 656
q-8 -5 -16.5 2.5t-11.5 20t2.5 25.5t25.5 18l345 11q10 0 15 -7t6 -17t-1.5 -21t-7.5 -18l-357 -14v0z" />
    <glyph glyph-name="eogonek" unicode="&#x119;" horiz-adv-x="486" 
d="M60 267q-7 -6 -24.5 -4.5t-32 7.5t-19.5 16.5t12 24.5q7 6 15.5 8.5l17 5t14 7.5t6.5 16q1 45 7.5 92t24.5 84t51.5 59t88.5 17q20 0 45 -9.5t48 -25t40 -37t21 -46.5q7 -10 -8 -25t-42 -33.5t-61 -37.5t-65.5 -36t-55.5 -30t-31 -18q6 -39 13 -82t20 -79t32.5 -59.5
t49.5 -23.5q44 -3 75.5 13t52.5 42t33.5 57t19 59t9 47.5t4.5 21.5q11 6 25 0.5t16 -29.5q1 -39 -17 -89t-49.5 -92t-75 -67.5t-92.5 -17.5q-51 1 -81 29.5t-47.5 69t-25.5 85.5t-14 80zM322 482q-32 44 -65 56t-68 7q-21 -3 -37 -19.5t-26 -42t-14 -57t-1 -64.5zM405 -143
q22 -16 15.5 -36t-32 -36.5t-65 -25t-83.5 -0.5q-42 12 -64 48.5t-21 82t26 91t77 74.5q18 1 22.5 -7.5t1.5 -20t-9.5 -21.5t-10.5 -13q-23 -29 -35.5 -58.5t-13 -54t11.5 -41.5t38 -21q18 0 35.5 6t35 13.5t35 13.5t36.5 6z" />
    <glyph glyph-name="gbreve" unicode="&#x11f;" horiz-adv-x="457" 
d="M85 -259q74 4 126 31.5t86 72.5t51 105t22 130q3 45 3.5 79.5t-1 63t-3.5 54.5t-4 54t-3.5 60.5t-1.5 74.5q-48 -141 -90 -227t-78.5 -130t-66 -53t-51.5 3.5t-36 41t-19 58.5q2 50 19 110.5t45 119t65 109t80 80.5t88.5 34t91.5 -31q1 1 2.5 -22t4 -62t5 -90.5
t5.5 -107.5t5.5 -112t5.5 -104q1 -93 -28 -171t-77.5 -132t-111 -79t-128.5 -12q-3 0 -9.5 4t-10 11t-1.5 16.5t15 20.5zM72 158q11 -36 29 -35.5t40.5 26t47.5 69.5t50.5 96.5t49.5 107t45 100.5q0 12 -5.5 22.5t-24.5 6.5q-31 -6 -60.5 -30.5t-55.5 -59t-47.5 -76
t-36.5 -83t-23.5 -79.5t-8.5 -65zM154 818q4 -3 10.5 -12t15.5 -18t21.5 -14.5t28.5 -1.5t35 21t42 54q23 16 35 14.5t15 -13t0 -28t-10 -29.5q-34 -44 -62.5 -64.5t-53 -25t-44 3.5t-35 21.5t-27.5 28.5l-20 25q-16 10 -11.5 24t17.5 23t27 9t16 -18z" />
    <glyph glyph-name="gcircumflex" unicode="&#x11d;" horiz-adv-x="466" 
d="M85 -259q74 4 126 31.5t86 72.5t51 105t22 130q3 45 3.5 79.5t-1 63t-3.5 54.5t-4 54t-3.5 60.5t-1.5 74.5q-48 -141 -90 -227t-78.5 -130t-66 -53t-51.5 3.5t-36 41t-19 58.5q2 50 19 110.5t45 119t65 109t80 80.5t88.5 34t91.5 -31q1 1 2.5 -22t4 -62t5 -90.5
t5.5 -107.5t5.5 -112t5.5 -104q1 -93 -28 -171t-77.5 -132t-111 -79t-128.5 -12q-3 0 -9.5 4t-10 11t-1.5 16.5t15 20.5zM72 158q11 -36 29 -35.5t40.5 26t47.5 69.5t50.5 96.5t49.5 107t45 100.5q0 12 -5.5 22.5t-24.5 6.5q-31 -6 -60.5 -30.5t-55.5 -59t-47.5 -76
t-36.5 -83t-23.5 -79.5t-8.5 -65zM161 641q-7 -6 -16 -8t-17 0.5t-13 8.5t-3 16l98 183q1 3 8 8t15 7.5t15.5 1t11.5 -10.5l122 -173q9 -11 5 -18.5t-13 -11.5t-20.5 -4t-17.5 5l-97 137z" />
    <glyph glyph-name="gdotaccent" unicode="&#x121;" horiz-adv-x="457" 
d="M85 -259q74 4 126 31.5t86 72.5t51 105t22 130q3 45 3.5 79.5t-1 63t-3.5 54.5t-4 54t-3.5 60.5t-1.5 74.5q-48 -141 -90 -227t-78.5 -130t-66 -53t-51.5 3.5t-36 41t-19 58.5q2 50 19 110.5t45 119t65 109t80 80.5t88.5 34t91.5 -31q1 1 2.5 -22t4 -62t5 -90.5
t5.5 -107.5t5.5 -112t5.5 -104q1 -93 -28 -171t-77.5 -132t-111 -79t-128.5 -12q-3 0 -9.5 4t-10 11t-1.5 16.5t15 20.5zM72 158q11 -36 29 -35.5t40.5 26t47.5 69.5t50.5 96.5t49.5 107t45 100.5q0 12 -5.5 22.5t-24.5 6.5q-31 -6 -60.5 -30.5t-55.5 -59t-47.5 -76
t-36.5 -83t-23.5 -79.5t-8.5 -65zM265 731q1 13 12.5 23.5t25.5 13.5t28 -5t20 -32q0 -6 -4 -14.5t-10.5 -16t-14 -11.5t-14.5 -1q-7 -5 -15.5 -2.5t-15.5 9t-10.5 16t-1.5 20.5z" />
    <glyph glyph-name="hbar" unicode="&#x127;" horiz-adv-x="515" 
d="M423 12q3 34 5 86t1.5 111t-3.5 118.5t-9.5 107.5t-17 79.5t-25.5 34.5q-32 10 -61.5 -5.5t-55.5 -49t-48 -80t-40.5 -98t-33 -103t-23.5 -94.5t-13.5 -73.5t-3.5 -39.5q-7 0 -17.5 -2.5t-20.5 -4t-17.5 1t-7.5 12.5l-17 823q0 9 8 11.5t18 1.5t19 -5t12 -8l5 -632
q6 17 15.5 55t24.5 85t37 96.5t53.5 89t75 62.5t100.5 18q18 -10 32.5 -25.5t26 -43t20 -69.5t14.5 -105t9.5 -151t4.5 -206q-3 -7 -12 -13.5t-19.5 -8.5t-20.5 3t-15 21zM-70.9453 606.503q-5.70312 -4.67383 -11.7637 2.33691q-6.05957 7.01074 -8.19922 18.6953
q-2.13867 11.6846 1.7832 23.8359q3.9209 12.1523 18.1797 16.8262l245.969 10.2822q7.12891 0 10.6943 -6.54395q3.56445 -6.54297 4.27734 -15.8906t-1.06934 -19.6299t-5.34766 -16.8252l-254.523 -13.0869v0z" />
    <glyph glyph-name="hcircumflex" unicode="&#x125;" horiz-adv-x="509" 
d="M423 12q3 34 5 86t1.5 111t-3.5 118.5t-9.5 107.5t-17 79.5t-25.5 34.5q-32 10 -61.5 -5.5t-55.5 -49t-48 -80t-40.5 -98t-33 -103t-23.5 -94.5t-13.5 -73.5t-3.5 -39.5q-7 0 -17.5 -2.5t-20.5 -4t-17.5 1t-7.5 12.5l-17 823q0 9 8 11.5t18 1.5t19 -5t12 -8l5 -632
q6 17 15.5 55t24.5 85t37 96.5t53.5 89t75 62.5t100.5 18q18 -10 32.5 -25.5t26 -43t20 -69.5t14.5 -105t9.5 -151t4.5 -206q-3 -7 -12 -13.5t-19.5 -8.5t-20.5 3t-15 21zM174 779q-7 -6 -16 -8t-17 0.5t-13 8.5t-3 16l98 183q1 3 8 8t15 7.5t15.5 1t11.5 -10.5l122 -173
q9 -11 5 -18.5t-13 -11.5t-20.5 -4t-17.5 5l-97 137z" />
    <glyph glyph-name="jcircumflex" unicode="&#x135;" horiz-adv-x="128" 
d="M-207 -229q-6 7 -4 19.5t8 22t15.5 12t19.5 -11.5q28 -38 60 -55.5t60.5 -9.5t50.5 45t30 109q6 70 6 152.5t-2 169.5t-3.5 175.5t1.5 169.5q3 7 11 11.5t17 4.5t17.5 -3.5t11.5 -12.5q-2 -91 -1 -172.5t2.5 -161.5t1 -162.5t-6.5 -176.5q1 -33 -10 -68t-31 -64
t-47.5 -48.5t-60.5 -22.5t-70 14.5t-76 63.5zM-24 641q-7 -6 -16 -8t-17 0.5t-13 8.5t-3 16l98 183q1 3 8 8t15 7.5t15.5 1t11.5 -10.5l122 -173q9 -11 5 -18.5t-13 -11.5t-20.5 -4t-17.5 5l-97 137z" />
    <glyph glyph-name="kcommaaccent" unicode="&#x137;" horiz-adv-x="488" 
d="M24 833q23 23 36.5 19t20.5 -27l2 -557l259 350q17 0 28.5 -5.5t11.5 -25.5l-264 -364l294 -146q3 -4 7.5 -13.5t4.5 -19t-7 -18t-26 -9.5l-302 158v-163q-7 -17 -15 -22t-16 -3.5t-15.5 7.5t-13.5 11zM187 -282q-23 -11 -35.5 -6.5t-21.5 21.5q4 17 9.5 41t8.5 49.5
t1.5 50t-10.5 43.5q0 16 1.5 25.5t6 14.5t14 7t24.5 2q10 -15 17.5 -34.5t9.5 -48t-3.5 -68.5t-21.5 -97z" />
    <glyph glyph-name="lacute" unicode="&#x13a;" horiz-adv-x="157" 
d="M36 834q6 4 12.5 8.5t13.5 6t12.5 -1.5t9.5 -13l6 -825q-5 -10 -13 -13.5t-16 -2t-14.5 6.5t-8.5 12zM49 888q-30 6 -33 23t11.5 38.5t40 46.5t51.5 48q18 0 25 -10t7 -23v-8q-2 -13 -13.5 -28.5t-27 -31t-32.5 -30t-29 -25.5z" />
    <glyph glyph-name="lcommaaccent" unicode="&#x13c;" horiz-adv-x="124" 
d="M36 834q6 4 12.5 8.5t13.5 6t12.5 -1.5t9.5 -13l6 -825q-5 -10 -13 -13.5t-16 -2t-14.5 6.5t-8.5 12zM81 -301q-23 -11 -35.5 -6.5t-21.5 21.5q4 17 9.5 41t8.5 49.5t1.5 50t-10.5 43.5q0 16 1.5 25.5t6 14.5t14 7t24.5 2q10 -15 17.5 -34.5t9.5 -48t-3.5 -68.5
t-21.5 -97z" />
    <glyph glyph-name="ldot" unicode="&#x140;" horiz-adv-x="213" 
d="M36 834q6 4 12.5 8.5t13.5 6t12.5 -1.5t9.5 -13l6 -825q-5 -10 -13 -13.5t-16 -2t-14.5 6.5t-8.5 12zM113 390q16 17 27 23t29 6q30 0 30 -29q0 -6 -4 -14.5t-10.5 -16t-14 -11.5t-14.5 -1q-7 -5 -15.5 -2.5t-15.5 9t-10.5 16t-1.5 20.5z" />
    <glyph glyph-name="lslash" unicode="&#x142;" horiz-adv-x="157" 
d="M-6 288q-8 -5 -16.5 3.5t-11.5 22t2.5 27.5t25.5 19l156 63q10 0 15 -7.5t6 -19t-1.5 -23.5t-7.5 -19zM36 834q6 4 12.5 8.5t13.5 6t12.5 -1.5t9.5 -13l6 -825q-5 -10 -13 -13.5t-16 -2t-14.5 6.5t-8.5 12z" />
    <glyph glyph-name="nacute" unicode="&#x144;" horiz-adv-x="472" 
d="M20 596q1 10 8 16t16 7.5t18 -2t15 -10.5l-3 -400q19 72 34.5 142.5t38.5 128t58 95t93 42.5q31 3 54 -18.5t39.5 -58.5t27.5 -86.5t17.5 -103t9.5 -107.5t4 -100t0.5 -81t-1.5 -51q-7 -17 -24.5 -22.5t-31.5 14.5q-1 19 -1 65.5t-1.5 106.5t-6 125.5t-15 121t-29 93
t-47.5 42.5q-25 4 -48.5 -27t-45 -82t-40 -115t-33 -126t-24.5 -114t-13 -80q-3 -8 -12 -13t-19.5 -5.5t-21 3.5t-15.5 15zM243 698q-30 6 -33 23t11.5 38.5t40 46.5t51.5 48q18 0 25 -10t7 -23v-8q-2 -13 -13.5 -28.5t-27 -31t-32.5 -30t-29 -25.5z" />
    <glyph glyph-name="ncaron" unicode="&#x148;" horiz-adv-x="469" 
d="M20 596q1 10 8 16t16 7.5t18 -2t15 -10.5l-3 -400q19 72 34.5 142.5t38.5 128t58 95t93 42.5q31 3 54 -18.5t39.5 -58.5t27.5 -86.5t17.5 -103t9.5 -107.5t4 -100t0.5 -81t-1.5 -51q-7 -17 -24.5 -22.5t-31.5 14.5q-1 19 -1 65.5t-1.5 106.5t-6 125.5t-15 121t-29 93
t-47.5 42.5q-25 4 -48.5 -27t-45 -82t-40 -115t-33 -126t-24.5 -114t-13 -80q-3 -8 -12 -13t-19.5 -5.5t-21 3.5t-15.5 15zM285 863q7 6 17 6.5t19.5 -3.5t15.5 -11t5 -17l-98 -183q-2 -3 -8.5 -8t-14.5 -7.5t-15.5 -1t-11.5 10.5l-122 173q-9 11 -4.5 20t14.5 14.5t22 6.5
t18 -3l89 -135z" />
    <glyph glyph-name="napostrophe" unicode="&#x149;" horiz-adv-x="469" 
d="M20 596q1 10 8 16t16 7.5t18 -2t15 -10.5l-3 -400q19 72 34.5 142.5t38.5 128t58 95t93 42.5q31 3 54 -18.5t39.5 -58.5t27.5 -86.5t17.5 -103t9.5 -107.5t4 -100t0.5 -81t-1.5 -51q-7 -17 -24.5 -22.5t-31.5 14.5q-1 19 -1 65.5t-1.5 106.5t-6 125.5t-15 121t-29 93
t-47.5 42.5q-25 4 -48.5 -27t-45 -82t-40 -115t-33 -126t-24.5 -114t-13 -80q-3 -8 -12 -13t-19.5 -5.5t-21 3.5t-15.5 15zM169 674q-23 -11 -35.5 -6.5t-21.5 21.5q4 17 9.5 41t8.5 49.5t1.5 50t-10.5 43.5q0 16 1.5 25.5t6 14.5t14 7t24.5 2q10 -15 17.5 -34.5t9.5 -48
t-3.5 -68.5t-21.5 -97z" />
    <glyph glyph-name="ncommaaccent" unicode="&#x146;" horiz-adv-x="472" 
d="M20 596q1 10 8 16t16 7.5t18 -2t15 -10.5l-3 -400q19 72 34.5 142.5t38.5 128t58 95t93 42.5q31 3 54 -18.5t39.5 -58.5t27.5 -86.5t17.5 -103t9.5 -107.5t4 -100t0.5 -81t-1.5 -51q-7 -17 -24.5 -22.5t-31.5 14.5q-1 19 -1 65.5t-1.5 106.5t-6 125.5t-15 121t-29 93
t-47.5 42.5q-25 4 -48.5 -27t-45 -82t-40 -115t-33 -126t-24.5 -114t-13 -80q-3 -8 -12 -13t-19.5 -5.5t-21 3.5t-15.5 15zM149 -282q-23 -11 -35.5 -6.5t-21.5 21.5q4 17 9.5 41t8.5 49.5t1.5 50t-10.5 43.5q0 16 1.5 25.5t6 14.5t14 7t24.5 2q10 -15 17.5 -34.5t9.5 -48
t-3.5 -68.5t-21.5 -97z" />
    <glyph glyph-name="ntilde" unicode="&#xf1;" horiz-adv-x="475" 
d="M20 596q1 10 8 16t16 7.5t18 -2t15 -10.5l-3 -400q19 72 34.5 142.5t38.5 128t58 95t93 42.5q31 3 54 -18.5t39.5 -58.5t27.5 -86.5t17.5 -103t9.5 -107.5t4 -100t0.5 -81t-1.5 -51q-7 -17 -24.5 -22.5t-31.5 14.5q-1 19 -1 65.5t-1.5 106.5t-6 125.5t-15 121t-29 93
t-47.5 42.5q-25 4 -48.5 -27t-45 -82t-40 -115t-33 -126t-24.5 -114t-13 -80q-3 -8 -12 -13t-19.5 -5.5t-21 3.5t-15.5 15zM395 794q16 5 29.5 5.5t19.5 -19.5q-5 -30 -23 -61t-43.5 -47.5t-57.5 -11.5t-66 47q-17 25 -39 36t-42 7.5t-33 -23.5t-12 -56q-11 -4 -18 -2.5
t-11 6t-6 12t-5 15.5q0 33 11.5 55t29.5 33.5t40.5 14t44 -3t39.5 -18.5t27 -32q20 -31 37.5 -39t31 -3t23.5 19.5t16.5 29t8 26t-1.5 10.5z" />
    <glyph glyph-name="oacute" unicode="&#xf3;" horiz-adv-x="400" 
d="M145 4q-40 5 -65.5 32t-40.5 66t-19.5 85.5t-2.5 91.5q3 69 25.5 132t56 109.5t74 72t79.5 19.5q41 -6 66.5 -39t39.5 -81t17 -104.5t-1 -108.5q-5 -59 -26 -110t-52.5 -88t-71 -57.5t-79.5 -19.5zM242 555q-33 4 -61.5 -20.5t-51 -65t-37.5 -92t-20 -101.5
q-4 -36 -3 -74t9.5 -69t27 -50.5t49.5 -19.5q25 -1 52.5 17t51.5 48.5t42.5 69.5t24.5 80q7 43 3.5 88.5t-15 84.5t-30 67.5t-42.5 36.5zM141 668q-30 6 -33 23t11.5 38.5t40 46.5t51.5 48q18 0 25 -10t7 -23v-8q-2 -13 -13.5 -28.5t-27 -31t-32.5 -30t-29 -25.5z" />
    <glyph glyph-name="obreve" unicode="&#x14f;" horiz-adv-x="394" 
d="M145 4q-40 5 -65.5 32t-40.5 66t-19.5 85.5t-2.5 91.5q3 69 25.5 132t56 109.5t74 72t79.5 19.5q41 -6 66.5 -39t39.5 -81t17 -104.5t-1 -108.5q-5 -59 -26 -110t-52.5 -88t-71 -57.5t-79.5 -19.5zM242 555q-33 4 -61.5 -20.5t-51 -65t-37.5 -92t-20 -101.5
q-4 -36 -3 -74t9.5 -69t27 -50.5t49.5 -19.5q25 -1 52.5 17t51.5 48.5t42.5 69.5t24.5 80q7 43 3.5 88.5t-15 84.5t-30 67.5t-42.5 36.5zM135 765q4 -3 10.5 -12t15.5 -18t21.5 -14.5t28.5 -1.5t35 21t42 54q23 16 35 14.5t15 -13t0 -28t-10 -29.5q-34 -44 -62.5 -64.5
t-53 -25t-44 3.5t-35 21.5t-27.5 28.5l-20 25q-16 10 -11.5 24t17.5 23t27 9t16 -18z" />
    <glyph glyph-name="ocircumflex" unicode="&#xf4;" horiz-adv-x="400" 
d="M145 4q-40 5 -65.5 32t-40.5 66t-19.5 85.5t-2.5 91.5q3 69 25.5 132t56 109.5t74 72t79.5 19.5q41 -6 66.5 -39t39.5 -81t17 -104.5t-1 -108.5q-5 -59 -26 -110t-52.5 -88t-71 -57.5t-79.5 -19.5zM242 555q-33 4 -61.5 -20.5t-51 -65t-37.5 -92t-20 -101.5
q-4 -36 -3 -74t9.5 -69t27 -50.5t49.5 -19.5q25 -1 52.5 17t51.5 48.5t42.5 69.5t24.5 80q7 43 3.5 88.5t-15 84.5t-30 67.5t-42.5 36.5zM132 641q-7 -6 -16 -8t-17 0.5t-13 8.5t-3 16l98 183q1 3 8 8t15 7.5t15.5 1t11.5 -10.5l122 -173q9 -11 5 -18.5t-13 -11.5t-20.5 -4
t-17.5 5l-97 137z" />
    <glyph glyph-name="odieresis" unicode="&#xf6;" horiz-adv-x="397" 
d="M145 4q-40 5 -65.5 32t-40.5 66t-19.5 85.5t-2.5 91.5q3 69 25.5 132t56 109.5t74 72t79.5 19.5q41 -6 66.5 -39t39.5 -81t17 -104.5t-1 -108.5q-5 -59 -26 -110t-52.5 -88t-71 -57.5t-79.5 -19.5zM242 555q-33 4 -61.5 -20.5t-51 -65t-37.5 -92t-20 -101.5
q-4 -36 -3 -74t9.5 -69t27 -50.5t49.5 -19.5q25 -1 52.5 17t51.5 48.5t42.5 69.5t24.5 80q7 43 3.5 88.5t-15 84.5t-30 67.5t-42.5 36.5zM89 705q-5 16 8 27t30.5 13.5t32.5 -6.5t15 -34q0 -6 -4 -14.5t-10.5 -16t-14 -11.5t-14.5 -1q-7 -5 -15.5 -2.5t-15.5 9t-10.5 16
t-1.5 20.5zM227 708q3 20 18 31t32 11t31 -11t14 -34q0 -6 -4 -14.5t-10.5 -16t-14 -11.5t-14.5 -1q-7 -5 -17 -2t-18.5 10t-13.5 17t-3 21z" />
    <glyph glyph-name="ohungarumlaut" unicode="&#x151;" horiz-adv-x="397" 
d="M145 4q-40 5 -65.5 32t-40.5 66t-19.5 85.5t-2.5 91.5q3 69 25.5 132t56 109.5t74 72t79.5 19.5q41 -6 66.5 -39t39.5 -81t17 -104.5t-1 -108.5q-5 -59 -26 -110t-52.5 -88t-71 -57.5t-79.5 -19.5zM242 555q-33 4 -61.5 -20.5t-51 -65t-37.5 -92t-20 -101.5
q-4 -36 -3 -74t9.5 -69t27 -50.5t49.5 -19.5q25 -1 52.5 17t51.5 48.5t42.5 69.5t24.5 80q7 43 3.5 88.5t-15 84.5t-30 67.5t-42.5 36.5zM137 687q-30 6 -33 23t11.5 38.5t40 46.5t51.5 48q18 0 25 -10t7 -23v-8q-2 -13 -13.5 -28.5t-27 -31t-32.5 -30t-29 -25.5zM246 663
q-30 6 -33 23t11.5 38.5t40 46.5t51.5 48q18 0 25 -10t7 -23v-8q-2 -13 -13.5 -28.5t-27 -31t-32.5 -30t-29 -25.5z" />
    <glyph glyph-name="ograve" unicode="&#xf2;" horiz-adv-x="383" 
d="M145 4q-40 5 -65.5 32t-40.5 66t-19.5 85.5t-2.5 91.5q3 69 25.5 132t56 109.5t74 72t79.5 19.5q41 -6 66.5 -39t39.5 -81t17 -104.5t-1 -108.5q-5 -59 -26 -110t-52.5 -88t-71 -57.5t-79.5 -19.5zM242 555q-33 4 -61.5 -20.5t-51 -65t-37.5 -92t-20 -101.5
q-4 -36 -3 -74t9.5 -69t27 -50.5t49.5 -19.5q25 -1 52.5 17t51.5 48.5t42.5 69.5t24.5 80q7 43 3.5 88.5t-15 84.5t-30 67.5t-42.5 36.5zM227 641q-11 12 -25.5 27.5t-28.5 32.5t-24.5 34t-11.5 31q-12 14 -4.5 28t32.5 16q23 -25 45.5 -52t35 -50.5t10.5 -41.5t-29 -25z
" />
    <glyph glyph-name="omacron" unicode="&#x14d;" horiz-adv-x="397" 
d="M145 4q-40 5 -65.5 32t-40.5 66t-19.5 85.5t-2.5 91.5q3 69 25.5 132t56 109.5t74 72t79.5 19.5q41 -6 66.5 -39t39.5 -81t17 -104.5t-1 -108.5q-5 -59 -26 -110t-52.5 -88t-71 -57.5t-79.5 -19.5zM242 555q-33 4 -61.5 -20.5t-51 -65t-37.5 -92t-20 -101.5
q-4 -36 -3 -74t9.5 -69t27 -50.5t49.5 -19.5q25 -1 52.5 17t51.5 48.5t42.5 69.5t24.5 80q7 43 3.5 88.5t-15 84.5t-30 67.5t-42.5 36.5zM-2 636q-8 -5 -16.5 2.5t-11.5 20t2.5 25.5t25.5 18l345 11q10 0 15 -7t6 -17t-1.5 -21t-7.5 -18l-357 -14v0z" />
    <glyph glyph-name="oslash" unicode="&#xf8;" horiz-adv-x="391" 
d="M145 4q-40 5 -65.5 32t-40.5 66t-19.5 85.5t-2.5 91.5q3 69 25.5 132t56 109.5t74 72t79.5 19.5q41 -6 66.5 -39t39.5 -81t17 -104.5t-1 -108.5q-5 -59 -26 -110t-52.5 -88t-71 -57.5t-79.5 -19.5zM242 555q-33 4 -61.5 -20.5t-51 -65t-37.5 -92t-20 -101.5
q-4 -36 -3 -74t9.5 -69t27 -50.5t49.5 -19.5q25 -1 52.5 17t51.5 48.5t42.5 69.5t24.5 80q7 43 3.5 88.5t-15 84.5t-30 67.5t-42.5 36.5zM307.851 626.964q17.5488 10.7783 34.6094 10.0078q17.0615 -0.769531 18.0361 -20.0156l-251.528 -642.813
q-9.74902 -3.84863 -19.9854 -5.00391q-10.2363 -1.1543 -19.0107 1.15527t-14.624 6.92871t-5.84961 12.3174l258.353 637.424v0z" />
    <glyph glyph-name="oslashacute" unicode="&#x1ff;" horiz-adv-x="400" 
d="M145 4q-40 5 -65.5 32t-40.5 66t-19.5 85.5t-2.5 91.5q3 69 25.5 132t56 109.5t74 72t79.5 19.5q41 -6 66.5 -39t39.5 -81t17 -104.5t-1 -108.5q-5 -59 -26 -110t-52.5 -88t-71 -57.5t-79.5 -19.5zM242 555q-33 4 -61.5 -20.5t-51 -65t-37.5 -92t-20 -101.5
q-4 -36 -3 -74t9.5 -69t27 -50.5t49.5 -19.5q25 -1 52.5 17t51.5 48.5t42.5 69.5t24.5 80q7 43 3.5 88.5t-15 84.5t-30 67.5t-42.5 36.5zM312.223 581.232q19.4668 9.63574 38.3926 8.94727q18.9258 -0.6875 20.0068 -17.8936l-279.022 -574.675
q-10.8145 -3.44043 -22.1699 -4.47266q-11.3555 -1.0332 -21.0889 1.03223q-9.7334 2.06445 -16.2227 6.19434q-6.48828 4.12891 -6.48828 11.0117l286.593 569.855v0zM176 618q-30 6 -33 23t11.5 38.5t40 46.5t51.5 48q18 0 25 -10t7 -23v-8q-2 -13 -13.5 -28.5t-27 -31
t-32.5 -30t-29 -25.5z" />
    <glyph glyph-name="otilde" unicode="&#xf5;" horiz-adv-x="388" 
d="M145 4q-40 5 -65.5 32t-40.5 66t-19.5 85.5t-2.5 91.5q3 69 25.5 132t56 109.5t74 72t79.5 19.5q41 -6 66.5 -39t39.5 -81t17 -104.5t-1 -108.5q-5 -59 -26 -110t-52.5 -88t-71 -57.5t-79.5 -19.5zM242 555q-33 4 -61.5 -20.5t-51 -65t-37.5 -92t-20 -101.5
q-4 -36 -3 -74t9.5 -69t27 -50.5t49.5 -19.5q25 -1 52.5 17t51.5 48.5t42.5 69.5t24.5 80q7 43 3.5 88.5t-15 84.5t-30 67.5t-42.5 36.5zM361 781q16 5 29.5 5.5t19.5 -19.5q-5 -30 -23 -61t-43.5 -47.5t-57.5 -11.5t-66 47q-17 25 -39 36t-42 7.5t-33 -23.5t-12 -56
q-11 -4 -18 -2.5t-11 6t-6 12t-5 15.5q0 33 11.5 55t29.5 33.5t40.5 14t44 -3t39.5 -18.5t27 -32q20 -31 37.5 -39t31 -3t23.5 19.5t16.5 29t8 26t-1.5 10.5z" />
    <glyph glyph-name="racute" unicode="&#x155;" horiz-adv-x="414" 
d="M31 19q-3 138 -5 234t-3 159t-1.5 98.5t-1 52.5t-0.5 20.5v4.5q1 9 9 15t17.5 7.5t18.5 -2.5t13 -13l3 -230q15 69 48.5 115t75.5 72.5t87.5 34.5t84.5 1q13 -3 19.5 -11t7 -17.5t-5 -18t-14.5 -12.5q-45 3 -84.5 -7.5t-72 -31t-57 -48.5t-38.5 -59q-21 -45 -28.5 -94.5
t-9 -98.5t0 -93t0.5 -77q-1 -11 -9.5 -16.5t-19 -6t-21 5t-14.5 16.5zM215 668q-30 6 -33 23t11.5 38.5t40 46.5t51.5 48q18 0 25 -10t7 -23v-8q-2 -13 -13.5 -28.5t-27 -31t-32.5 -30t-29 -25.5z" />
    <glyph glyph-name="rcaron" unicode="&#x159;" horiz-adv-x="411" 
d="M31 19q-3 138 -5 234t-3 159t-1.5 98.5t-1 52.5t-0.5 20.5v4.5q1 9 9 15t17.5 7.5t18.5 -2.5t13 -13l3 -230q15 69 48.5 115t75.5 72.5t87.5 34.5t84.5 1q13 -3 19.5 -11t7 -17.5t-5 -18t-14.5 -12.5q-45 3 -84.5 -7.5t-72 -31t-57 -48.5t-38.5 -59q-21 -45 -28.5 -94.5
t-9 -98.5t0 -93t0.5 -77q-1 -11 -9.5 -16.5t-19 -6t-21 5t-14.5 16.5zM290 856q7 6 17 6.5t19.5 -3.5t15.5 -11t5 -17l-98 -183q-2 -3 -8.5 -8t-14.5 -7.5t-15.5 -1t-11.5 10.5l-122 173q-9 11 -4.5 20t14.5 14.5t22 6.5t18 -3l89 -135z" />
    <glyph glyph-name="rcommaaccent" unicode="&#x157;" horiz-adv-x="414" 
d="M31 19q-3 138 -5 234t-3 159t-1.5 98.5t-1 52.5t-0.5 20.5v4.5q1 9 9 15t17.5 7.5t18.5 -2.5t13 -13l3 -230q15 69 48.5 115t75.5 72.5t87.5 34.5t84.5 1q13 -3 19.5 -11t7 -17.5t-5 -18t-14.5 -12.5q-45 3 -84.5 -7.5t-72 -31t-57 -48.5t-38.5 -59q-21 -45 -28.5 -94.5
t-9 -98.5t0 -93t0.5 -77q-1 -11 -9.5 -16.5t-19 -6t-21 5t-14.5 16.5zM183 -262q-23 -11 -35.5 -6.5t-21.5 21.5q4 17 9.5 41t8.5 49.5t1.5 50t-10.5 43.5q0 16 1.5 25.5t6 14.5t14 7t24.5 2q10 -15 17.5 -34.5t9.5 -48t-3.5 -68.5t-21.5 -97z" />
    <glyph glyph-name="sacute" unicode="&#x15b;" 
d="M46 72q19 -15 46.5 -16t58 7.5t62 25t58 36.5t46 42.5t26.5 43t-1 37.5t-36 27q-51 -12 -102 -19t-91.5 0t-65.5 33t-23 80q3 52 28.5 97.5t65 77.5t88 49t98.5 14q10 -1 18.5 -1.5t15.5 -3.5t10.5 -9t2.5 -18q-1 -15 -11 -24t-27 -7q-59 12 -106 -5t-78 -47.5t-44 -68.5
t-4 -69q19 -36 49.5 -45.5t65 -6.5t70.5 10.5t65 5t48 -22t21 -71.5q-1 -33 -22 -63.5t-53.5 -57t-72.5 -48t-79.5 -35.5t-74 -19t-55.5 1q-23 20 -24 39.5t27 30.5zM198 668q-30 6 -33 23t11.5 38.5t40 46.5t51.5 48q18 0 25 -10t7 -23v-8q-2 -13 -13.5 -28.5t-27 -31
t-32.5 -30t-29 -25.5z" />
    <glyph glyph-name="scedilla" unicode="&#x15f;" 
d="M46 72q19 -15 46.5 -16t58 7.5t62 25t58 36.5t46 42.5t26.5 43t-1 37.5t-36 27q-51 -12 -102 -19t-91.5 0t-65.5 33t-23 80q3 52 28.5 97.5t65 77.5t88 49t98.5 14q10 -1 18.5 -1.5t15.5 -3.5t10.5 -9t2.5 -18q-1 -15 -11 -24t-27 -7q-59 12 -106 -5t-78 -47.5t-44 -68.5
t-4 -69q19 -36 49.5 -45.5t65 -6.5t70.5 10.5t65 5t48 -22t21 -71.5q-1 -33 -22 -63.5t-53.5 -57t-72.5 -48t-79.5 -35.5t-74 -19t-55.5 1q-23 20 -24 39.5t27 30.5zM139 -175q0 -2 20.5 -4t45.5 0.5t46.5 11.5t23.5 27q1 7 1.5 15.5t-5 17.5t-19 19.5t-40.5 22.5
q-24 0 -41 3.5t-27.5 13t-15 26t-4.5 42.5q4 24 11.5 33.5t15.5 9t15.5 -8t12 -16.5t5.5 -17.5t-4 -10.5q3 -16 21.5 -21.5t42.5 -12t48.5 -20t40.5 -44.5q19 -39 6.5 -67.5t-42 -47t-67 -27t-68.5 -5.5q-12 0 -17 6.5t-6.5 15.5t-0.5 19.5t1 18.5z" />
    <glyph glyph-name="scircumflex" unicode="&#x15d;" 
d="M46 72q19 -15 46.5 -16t58 7.5t62 25t58 36.5t46 42.5t26.5 43t-1 37.5t-36 27q-51 -12 -102 -19t-91.5 0t-65.5 33t-23 80q3 52 28.5 97.5t65 77.5t88 49t98.5 14q10 -1 18.5 -1.5t15.5 -3.5t10.5 -9t2.5 -18q-1 -15 -11 -24t-27 -7q-59 12 -106 -5t-78 -47.5t-44 -68.5
t-4 -69q19 -36 49.5 -45.5t65 -6.5t70.5 10.5t65 5t48 -22t21 -71.5q-1 -33 -22 -63.5t-53.5 -57t-72.5 -48t-79.5 -35.5t-74 -19t-55.5 1q-23 20 -24 39.5t27 30.5zM143 653q-7 -6 -16 -8t-17 0.5t-13 8.5t-3 16l98 183q1 3 8 8t15 7.5t15.5 1t11.5 -10.5l122 -173
q9 -11 5 -18.5t-13 -11.5t-20.5 -4t-17.5 5l-97 137z" />
    <glyph glyph-name="scommaaccent" unicode="&#x219;" 
d="M46 72q19 -15 46.5 -16t58 7.5t62 25t58 36.5t46 42.5t26.5 43t-1 37.5t-36 27q-51 -12 -102 -19t-91.5 0t-65.5 33t-23 80q3 52 28.5 97.5t65 77.5t88 49t98.5 14q10 -1 18.5 -1.5t15.5 -3.5t10.5 -9t2.5 -18q-1 -15 -11 -24t-27 -7q-59 12 -106 -5t-78 -47.5t-44 -68.5
t-4 -69q19 -36 49.5 -45.5t65 -6.5t70.5 10.5t65 5t48 -22t21 -71.5q-1 -33 -22 -63.5t-53.5 -57t-72.5 -48t-79.5 -35.5t-74 -19t-55.5 1q-23 20 -24 39.5t27 30.5zM172 -289q-23 -11 -35.5 -6.5t-21.5 21.5q4 17 9.5 41t8.5 49.5t1.5 50t-10.5 43.5q0 16 1.5 25.5t6 14.5
t14 7t24.5 2q10 -15 17.5 -34.5t9.5 -48t-3.5 -68.5t-21.5 -97z" />
    <glyph glyph-name="tcommaaccent" unicode="&#x163;" horiz-adv-x="244" 
d="M75 475l-92 -31q-11 3 -18.5 11t-10.5 17t-1.5 17t8.5 12l114 43l-2 283q3 13 13 19t20.5 5.5t19.5 -7t12 -16.5q-2 -31 -3 -65.5t-1.5 -69t0.5 -67t4 -59.5l155 63q14 4 22 -2.5t10.5 -17t-1.5 -20.5t-14 -14l-172 -78q0 -10 1 -47.5t2 -88.5t2 -109t1.5 -109t1 -88.5
t0.5 -47.5q-2 -33 -19 -33t-37 16zM149 -330q-23 -11 -35.5 -6.5t-21.5 21.5q4 17 9.5 41t8.5 49.5t1.5 50t-10.5 43.5q0 16 1.5 25.5t6 14.5t14 7t24.5 2q10 -15 17.5 -34.5t9.5 -48t-3.5 -68.5t-21.5 -97z" />
    <glyph glyph-name="uacute" unicode="&#xfa;" horiz-adv-x="414" 
d="M317 590q1 6 6.5 13.5t14 10.5t19 -2.5t21.5 -24.5q-4 -77 -9.5 -153.5t-5 -151t10 -147.5t34.5 -142q1 -7 -5 -12.5t-16 -8t-20 -1.5t-16 9l-35 167q-4 -13 -22.5 -38t-43 -50.5t-50.5 -45t-45 -20.5q-47 -3 -74 33t-39.5 94.5t-14.5 130.5t0 140t5 123t0 81
q3 8 10.5 12t16.5 4t17.5 -4t12.5 -12q2 -34 1 -85t-2 -108.5t0.5 -115.5t7.5 -105.5t18.5 -79t35.5 -35.5q17 0 34 11t34 28.5t32 39t26 42t18 37.5t8 26q1 12 3 38.5t3.5 60t3 71.5t3 71.5t2 60t0.5 38.5zM187 682q-30 6 -33 23t11.5 38.5t40 46.5t51.5 48q18 0 25 -10
t7 -23v-8q-2 -13 -13.5 -28.5t-27 -31t-32.5 -30t-29 -25.5z" />
    <glyph glyph-name="ubreve" unicode="&#x16d;" horiz-adv-x="411" 
d="M317 590q1 6 6.5 13.5t14 10.5t19 -2.5t21.5 -24.5q-4 -77 -9.5 -153.5t-5 -151t10 -147.5t34.5 -142q1 -7 -5 -12.5t-16 -8t-20 -1.5t-16 9l-35 167q-4 -13 -22.5 -38t-43 -50.5t-50.5 -45t-45 -20.5q-47 -3 -74 33t-39.5 94.5t-14.5 130.5t0 140t5 123t0 81
q3 8 10.5 12t16.5 4t17.5 -4t12.5 -12q2 -34 1 -85t-2 -108.5t0.5 -115.5t7.5 -105.5t18.5 -79t35.5 -35.5q17 0 34 11t34 28.5t32 39t26 42t18 37.5t8 26q1 12 3 38.5t3.5 60t3 71.5t3 71.5t2 60t0.5 38.5zM126 745q4 -3 10.5 -12t15.5 -18t21.5 -14.5t28.5 -1.5t35 21
t42 54q23 16 35 14.5t15 -13t0 -28t-10 -29.5q-34 -44 -62.5 -64.5t-53 -25t-44 3.5t-35 21.5t-27.5 28.5l-20 25q-16 10 -11.5 24t17.5 23t27 9t16 -18z" />
    <glyph glyph-name="ucircumflex" unicode="&#xfb;" 
d="M317 590q1 6 6.5 13.5t14 10.5t19 -2.5t21.5 -24.5q-4 -77 -9.5 -153.5t-5 -151t10 -147.5t34.5 -142q1 -7 -5 -12.5t-16 -8t-20 -1.5t-16 9l-35 167q-4 -13 -22.5 -38t-43 -50.5t-50.5 -45t-45 -20.5q-47 -3 -74 33t-39.5 94.5t-14.5 130.5t0 140t5 123t0 81
q3 8 10.5 12t16.5 4t17.5 -4t12.5 -12q2 -34 1 -85t-2 -108.5t0.5 -115.5t7.5 -105.5t18.5 -79t35.5 -35.5q17 0 34 11t34 28.5t32 39t26 42t18 37.5t8 26q1 12 3 38.5t3.5 60t3 71.5t3 71.5t2 60t0.5 38.5zM122 661q-7 -6 -16 -8t-17 0.5t-13 8.5t-3 16l98 183q1 3 8 8
t15 7.5t15.5 1t11.5 -10.5l122 -173q9 -11 5 -18.5t-13 -11.5t-20.5 -4t-17.5 5l-97 137z" />
    <glyph glyph-name="udieresis" unicode="&#xfc;" horiz-adv-x="406" 
d="M317 590q1 6 6.5 13.5t14 10.5t19 -2.5t21.5 -24.5q-4 -77 -9.5 -153.5t-5 -151t10 -147.5t34.5 -142q1 -7 -5 -12.5t-16 -8t-20 -1.5t-16 9l-35 167q-4 -13 -22.5 -38t-43 -50.5t-50.5 -45t-45 -20.5q-47 -3 -74 33t-39.5 94.5t-14.5 130.5t0 140t5 123t0 81
q3 8 10.5 12t16.5 4t17.5 -4t12.5 -12q2 -34 1 -85t-2 -108.5t0.5 -115.5t7.5 -105.5t18.5 -79t35.5 -35.5q17 0 34 11t34 28.5t32 39t26 42t18 37.5t8 26q1 12 3 38.5t3.5 60t3 71.5t3 71.5t2 60t0.5 38.5zM84 679q-5 16 8 27t30.5 13.5t32.5 -6.5t15 -34q0 -6 -4 -14.5
t-10.5 -16t-14 -11.5t-14.5 -1q-7 -5 -15.5 -2.5t-15.5 9t-10.5 16t-1.5 20.5zM222 682q3 20 18 31t32 11t31 -11t14 -34q0 -6 -4 -14.5t-10.5 -16t-14 -11.5t-14.5 -1q-7 -5 -17 -2t-18.5 10t-13.5 17t-3 21z" />
    <glyph glyph-name="uhungarumlaut" unicode="&#x171;" horiz-adv-x="414" 
d="M317 590q1 6 6.5 13.5t14 10.5t19 -2.5t21.5 -24.5q-4 -77 -9.5 -153.5t-5 -151t10 -147.5t34.5 -142q1 -7 -5 -12.5t-16 -8t-20 -1.5t-16 9l-35 167q-4 -13 -22.5 -38t-43 -50.5t-50.5 -45t-45 -20.5q-47 -3 -74 33t-39.5 94.5t-14.5 130.5t0 140t5 123t0 81
q3 8 10.5 12t16.5 4t17.5 -4t12.5 -12q2 -34 1 -85t-2 -108.5t0.5 -115.5t7.5 -105.5t18.5 -79t35.5 -35.5q17 0 34 11t34 28.5t32 39t26 42t18 37.5t8 26q1 12 3 38.5t3.5 60t3 71.5t3 71.5t2 60t0.5 38.5zM124 717q-30 6 -33 23t11.5 38.5t40 46.5t51.5 48q18 0 25 -10
t7 -23v-8q-2 -13 -13.5 -28.5t-27 -31t-32.5 -30t-29 -25.5zM233 693q-30 6 -33 23t11.5 38.5t40 46.5t51.5 48q18 0 25 -10t7 -23v-8q-2 -13 -13.5 -28.5t-27 -31t-32.5 -30t-29 -25.5z" />
    <glyph glyph-name="ugrave" unicode="&#xf9;" horiz-adv-x="411" 
d="M317 590q1 6 6.5 13.5t14 10.5t19 -2.5t21.5 -24.5q-4 -77 -9.5 -153.5t-5 -151t10 -147.5t34.5 -142q1 -7 -5 -12.5t-16 -8t-20 -1.5t-16 9l-35 167q-4 -13 -22.5 -38t-43 -50.5t-50.5 -45t-45 -20.5q-47 -3 -74 33t-39.5 94.5t-14.5 130.5t0 140t5 123t0 81
q3 8 10.5 12t16.5 4t17.5 -4t12.5 -12q2 -34 1 -85t-2 -108.5t0.5 -115.5t7.5 -105.5t18.5 -79t35.5 -35.5q17 0 34 11t34 28.5t32 39t26 42t18 37.5t8 26q1 12 3 38.5t3.5 60t3 71.5t3 71.5t2 60t0.5 38.5zM239 641q-11 12 -25.5 27.5t-28.5 32.5t-24.5 34t-11.5 31
q-12 14 -4.5 28t32.5 16q23 -25 45.5 -52t35 -50.5t10.5 -41.5t-29 -25z" />
    <glyph glyph-name="umacron" unicode="&#x16b;" horiz-adv-x="414" 
d="M317 590q1 6 6.5 13.5t14 10.5t19 -2.5t21.5 -24.5q-4 -77 -9.5 -153.5t-5 -151t10 -147.5t34.5 -142q1 -7 -5 -12.5t-16 -8t-20 -1.5t-16 9l-35 167q-4 -13 -22.5 -38t-43 -50.5t-50.5 -45t-45 -20.5q-47 -3 -74 33t-39.5 94.5t-14.5 130.5t0 140t5 123t0 81
q3 8 10.5 12t16.5 4t17.5 -4t12.5 -12q2 -34 1 -85t-2 -108.5t0.5 -115.5t7.5 -105.5t18.5 -79t35.5 -35.5q17 0 34 11t34 28.5t32 39t26 42t18 37.5t8 26q1 12 3 38.5t3.5 60t3 71.5t3 71.5t2 60t0.5 38.5zM58 676q-8 -5 -16.5 2.5t-11.5 20t2.5 25.5t25.5 18l345 11
q10 0 15 -7t6 -17t-1.5 -21t-7.5 -18l-357 -14v0z" />
    <glyph glyph-name="uogonek" unicode="&#x173;" horiz-adv-x="420" 
d="M317 590q1 6 6.5 13.5t14 10.5t19 -2.5t21.5 -24.5q-4 -77 -9.5 -153.5t-5 -151t10 -147.5t34.5 -142q1 -7 -5 -12.5t-16 -8t-20 -1.5t-16 9l-35 167q-4 -13 -22.5 -38t-43 -50.5t-50.5 -45t-45 -20.5q-47 -3 -74 33t-39.5 94.5t-14.5 130.5t0 140t5 123t0 81
q3 8 10.5 12t16.5 4t17.5 -4t12.5 -12q2 -34 1 -85t-2 -108.5t0.5 -115.5t7.5 -105.5t18.5 -79t35.5 -35.5q17 0 34 11t34 28.5t32 39t26 42t18 37.5t8 26q1 12 3 38.5t3.5 60t3 71.5t3 71.5t2 60t0.5 38.5zM483 -164q22 -16 15.5 -36t-32 -36.5t-65 -25t-83.5 -0.5
q-42 12 -64 48.5t-21 82t26 91t77 74.5q18 1 22.5 -7.5t1.5 -20t-9.5 -21.5t-10.5 -13q-23 -29 -35.5 -58.5t-13 -54t11.5 -41.5t38 -21q18 0 35.5 6t35 13.5t35 13.5t36.5 6z" />
    <glyph glyph-name="uring" unicode="&#x16f;" horiz-adv-x="411" 
d="M317 590q1 6 6.5 13.5t14 10.5t19 -2.5t21.5 -24.5q-4 -77 -9.5 -153.5t-5 -151t10 -147.5t34.5 -142q1 -7 -5 -12.5t-16 -8t-20 -1.5t-16 9l-35 167q-4 -13 -22.5 -38t-43 -50.5t-50.5 -45t-45 -20.5q-47 -3 -74 33t-39.5 94.5t-14.5 130.5t0 140t5 123t0 81
q3 8 10.5 12t16.5 4t17.5 -4t12.5 -12q2 -34 1 -85t-2 -108.5t0.5 -115.5t7.5 -105.5t18.5 -79t35.5 -35.5q17 0 34 11t34 28.5t32 39t26 42t18 37.5t8 26q1 12 3 38.5t3.5 60t3 71.5t3 71.5t2 60t0.5 38.5zM69 722q0 35 19 58.5t47 35t61 11.5t61.5 -11t48 -32.5
t21.5 -53.5q6 -25 -9.5 -45t-43 -32t-61.5 -15.5t-65 4t-53.5 27t-25.5 53.5zM126 724q11 -20 34 -31t46.5 -11.5t42.5 10.5t21 35q2 19 -8 32t-26.5 19.5t-36 6.5t-36 -6.5t-27.5 -20t-10 -34.5z" />
    <glyph glyph-name="utilde" unicode="&#x169;" horiz-adv-x="414" 
d="M317 590q1 6 6.5 13.5t14 10.5t19 -2.5t21.5 -24.5q-4 -77 -9.5 -153.5t-5 -151t10 -147.5t34.5 -142q1 -7 -5 -12.5t-16 -8t-20 -1.5t-16 9l-35 167q-4 -13 -22.5 -38t-43 -50.5t-50.5 -45t-45 -20.5q-47 -3 -74 33t-39.5 94.5t-14.5 130.5t0 140t5 123t0 81
q3 8 10.5 12t16.5 4t17.5 -4t12.5 -12q2 -34 1 -85t-2 -108.5t0.5 -115.5t7.5 -105.5t18.5 -79t35.5 -35.5q17 0 34 11t34 28.5t32 39t26 42t18 37.5t8 26q1 12 3 38.5t3.5 60t3 71.5t3 71.5t2 60t0.5 38.5zM338 803q16 5 29.5 5.5t19.5 -19.5q-5 -30 -23 -61t-43.5 -47.5
t-57.5 -11.5t-66 47q-17 25 -39 36t-42 7.5t-33 -23.5t-12 -56q-11 -4 -18 -2.5t-11 6t-6 12t-5 15.5q0 33 11.5 55t29.5 33.5t40.5 14t44 -3t39.5 -18.5t27 -32q20 -31 37.5 -39t31 -3t23.5 19.5t16.5 29t8 26t-1.5 10.5z" />
    <glyph glyph-name="wacute" unicode="&#x1e83;" horiz-adv-x="587" 
d="M93 8q-3 17 -9.5 61.5t-15 102.5t-18 123t-18.5 123t-16 102.5t-10 61.5q3 18 11 26.5t17 8.5t18 -6t14 -16l61 -454q3 11 12 43t20.5 74.5t25 90.5t25.5 90.5t21 74.5t12 43q7 9 17 15.5t20.5 8t20.5 -4t17 -19.5l142 -462l58 497q4 10 11.5 17t16 6.5t17 -11
t15.5 -35.5q-1 -6 -4.5 -31.5t-8.5 -62.5t-11 -83t-12 -94t-12 -94t-10.5 -83t-7.5 -62.5t-4 -31.5q-7 -16 -20.5 -23t-27 -6.5t-24 7.5t-13.5 19l-141 462q-18 -84 -36.5 -153.5t-35 -127.5t-31 -105t-24.5 -86q-6 -11 -15 -15.5t-18 -4.5t-17 4t-12 10zM312 668
q-30 6 -33 23t11.5 38.5t40 46.5t51.5 48q18 0 25 -10t7 -23v-8q-2 -13 -13.5 -28.5t-27 -31t-32.5 -30t-29 -25.5z" />
    <glyph glyph-name="wcircumflex" unicode="&#x175;" horiz-adv-x="587" 
d="M93 8q-3 17 -9.5 61.5t-15 102.5t-18 123t-18.5 123t-16 102.5t-10 61.5q3 18 11 26.5t17 8.5t18 -6t14 -16l61 -454q3 11 12 43t20.5 74.5t25 90.5t25.5 90.5t21 74.5t12 43q7 9 17 15.5t20.5 8t20.5 -4t17 -19.5l142 -462l58 497q4 10 11.5 17t16 6.5t17 -11
t15.5 -35.5q-1 -6 -4.5 -31.5t-8.5 -62.5t-11 -83t-12 -94t-12 -94t-10.5 -83t-7.5 -62.5t-4 -31.5q-7 -16 -20.5 -23t-27 -6.5t-24 7.5t-13.5 19l-141 462q-18 -84 -36.5 -153.5t-35 -127.5t-31 -105t-24.5 -86q-6 -11 -15 -15.5t-18 -4.5t-17 4t-12 10zM211 664
q-7 -6 -16 -8t-17 0.5t-13 8.5t-3 16l98 183q1 3 8 8t15 7.5t15.5 1t11.5 -10.5l122 -173q9 -11 5 -18.5t-13 -11.5t-20.5 -4t-17.5 5l-97 137z" />
    <glyph glyph-name="wdieresis" unicode="&#x1e85;" horiz-adv-x="595" 
d="M93 8q-3 17 -9.5 61.5t-15 102.5t-18 123t-18.5 123t-16 102.5t-10 61.5q3 18 11 26.5t17 8.5t18 -6t14 -16l61 -454q3 11 12 43t20.5 74.5t25 90.5t25.5 90.5t21 74.5t12 43q7 9 17 15.5t20.5 8t20.5 -4t17 -19.5l142 -462l58 497q4 10 11.5 17t16 6.5t17 -11
t15.5 -35.5q-1 -6 -4.5 -31.5t-8.5 -62.5t-11 -83t-12 -94t-12 -94t-10.5 -83t-7.5 -62.5t-4 -31.5q-7 -16 -20.5 -23t-27 -6.5t-24 7.5t-13.5 19l-141 462q-18 -84 -36.5 -153.5t-35 -127.5t-31 -105t-24.5 -86q-6 -11 -15 -15.5t-18 -4.5t-17 4t-12 10zM186 679
q-5 16 8 27t30.5 13.5t32.5 -6.5t15 -34q0 -6 -4 -14.5t-10.5 -16t-14 -11.5t-14.5 -1q-7 -5 -15.5 -2.5t-15.5 9t-10.5 16t-1.5 20.5zM324 682q3 20 18 31t32 11t31 -11t14 -34q0 -6 -4 -14.5t-10.5 -16t-14 -11.5t-14.5 -1q-7 -5 -17 -2t-18.5 10t-13.5 17t-3 21z" />
    <glyph glyph-name="wgrave" unicode="&#x1e81;" horiz-adv-x="590" 
d="M93 8q-3 17 -9.5 61.5t-15 102.5t-18 123t-18.5 123t-16 102.5t-10 61.5q3 18 11 26.5t17 8.5t18 -6t14 -16l61 -454q3 11 12 43t20.5 74.5t25 90.5t25.5 90.5t21 74.5t12 43q7 9 17 15.5t20.5 8t20.5 -4t17 -19.5l142 -462l58 497q4 10 11.5 17t16 6.5t17 -11
t15.5 -35.5q-1 -6 -4.5 -31.5t-8.5 -62.5t-11 -83t-12 -94t-12 -94t-10.5 -83t-7.5 -62.5t-4 -31.5q-7 -16 -20.5 -23t-27 -6.5t-24 7.5t-13.5 19l-141 462q-18 -84 -36.5 -153.5t-35 -127.5t-31 -105t-24.5 -86q-6 -11 -15 -15.5t-18 -4.5t-17 4t-12 10zM341 641
q-11 12 -25.5 27.5t-28.5 32.5t-24.5 34t-11.5 31q-12 14 -4.5 28t32.5 16q23 -25 45.5 -52t35 -50.5t10.5 -41.5t-29 -25z" />
    <glyph glyph-name="yacute" unicode="&#xfd;" horiz-adv-x="413" 
d="M249 -1l-221 503q-8 12 -4 24.5t14 19.5t23.5 5.5t24.5 -16.5l184 -440l87 497q6 3 14.5 5t17 1t15.5 -6t9 -16q-5 -40 -15 -102t-22 -127.5t-23.5 -125t-17.5 -94.5q-4 -21 -10 -56.5t-13.5 -77.5t-16 -87.5t-16 -87.5t-15 -76.5t-12.5 -55.5q-2 -12 -12 -18t-22 -5
t-22.5 8t-11.5 20zM196 668q-30 6 -33 23t11.5 38.5t40 46.5t51.5 48q18 0 25 -10t7 -23v-8q-2 -13 -13.5 -28.5t-27 -31t-32.5 -30t-29 -25.5z" />
    <glyph glyph-name="ycircumflex" unicode="&#x177;" horiz-adv-x="413" 
d="M249 -1l-221 503q-8 12 -4 24.5t14 19.5t23.5 5.5t24.5 -16.5l184 -440l87 497q6 3 14.5 5t17 1t15.5 -6t9 -16q-5 -40 -15 -102t-22 -127.5t-23.5 -125t-17.5 -94.5q-4 -21 -10 -56.5t-13.5 -77.5t-16 -87.5t-16 -87.5t-15 -76.5t-12.5 -55.5q-2 -12 -12 -18t-22 -5
t-22.5 8t-11.5 20zM120 641q-7 -6 -16 -8t-17 0.5t-13 8.5t-3 16l98 183q1 3 8 8t15 7.5t15.5 1t11.5 -10.5l122 -173q9 -11 5 -18.5t-13 -11.5t-20.5 -4t-17.5 5l-97 137z" />
    <glyph glyph-name="ydieresis" unicode="&#xff;" horiz-adv-x="413" 
d="M249 -1l-221 503q-8 12 -4 24.5t14 19.5t23.5 5.5t24.5 -16.5l184 -440l87 497q6 3 14.5 5t17 1t15.5 -6t9 -16q-5 -40 -15 -102t-22 -127.5t-23.5 -125t-17.5 -94.5q-4 -21 -10 -56.5t-13.5 -77.5t-16 -87.5t-16 -87.5t-15 -76.5t-12.5 -55.5q-2 -12 -12 -18t-22 -5
t-22.5 8t-11.5 20zM70 679q-5 16 8 27t30.5 13.5t32.5 -6.5t15 -34q0 -6 -4 -14.5t-10.5 -16t-14 -11.5t-14.5 -1q-7 -5 -15.5 -2.5t-15.5 9t-10.5 16t-1.5 20.5zM208 682q3 20 18 31t32 11t31 -11t14 -34q0 -6 -4 -14.5t-10.5 -16t-14 -11.5t-14.5 -1q-7 -5 -17 -2
t-18.5 10t-13.5 17t-3 21z" />
    <glyph glyph-name="ygrave" unicode="&#x1ef3;" horiz-adv-x="413" 
d="M249 -1l-221 503q-8 12 -4 24.5t14 19.5t23.5 5.5t24.5 -16.5l184 -440l87 497q6 3 14.5 5t17 1t15.5 -6t9 -16q-5 -40 -15 -102t-22 -127.5t-23.5 -125t-17.5 -94.5q-4 -21 -10 -56.5t-13.5 -77.5t-16 -87.5t-16 -87.5t-15 -76.5t-12.5 -55.5q-2 -12 -12 -18t-22 -5
t-22.5 8t-11.5 20zM225 641q-11 12 -25.5 27.5t-28.5 32.5t-24.5 34t-11.5 31q-12 14 -4.5 28t32.5 16q23 -25 45.5 -52t35 -50.5t10.5 -41.5t-29 -25z" />
    <glyph glyph-name="zacute" unicode="&#x17a;" horiz-adv-x="475" 
d="M23 15q-2 9 9.5 32t32 56t48 73t57.5 82.5t59.5 84.5t54.5 79t43 66.5t24 46.5l-286 2q-4 -2 -14.5 3.5t-18.5 15t-10 20.5t11 19q37 -1 86.5 -2t102 0t103.5 4.5t90 10.5q18 -1 25.5 -9.5t3.5 -28.5l-329 -497l315 6q12 0 17 -5.5t4 -15t-8 -21.5t-17 -24zM237 677
q-30 6 -33 23t11.5 38.5t40 46.5t51.5 48q18 0 25 -10t7 -23v-8q-2 -13 -13.5 -28.5t-27 -31t-32.5 -30t-29 -25.5z" />
    <glyph glyph-name="zdotaccent" unicode="&#x17c;" horiz-adv-x="472" 
d="M23 15q-2 9 9.5 32t32 56t48 73t57.5 82.5t59.5 84.5t54.5 79t43 66.5t24 46.5l-286 2q-4 -2 -14.5 3.5t-18.5 15t-10 20.5t11 19q37 -1 86.5 -2t102 0t103.5 4.5t90 10.5q18 -1 25.5 -9.5t3.5 -28.5l-329 -497l315 6q12 0 17 -5.5t4 -15t-8 -21.5t-17 -24zM230 701
q1 13 12.5 23.5t25.5 13.5t28 -5t20 -32q0 -6 -4 -14.5t-10.5 -16t-14 -11.5t-14.5 -1q-7 -5 -15.5 -2.5t-15.5 9t-10.5 16t-1.5 20.5z" />
    <glyph glyph-name="dagger" unicode="&#x2020;" horiz-adv-x="512" 
d="M92 475q-8 -5 -16.5 3.5t-11.5 22t2.5 27.5t25.5 19l130 4l-3 272q6 4 14 8.5t16.5 6t15.5 -1.5t11 -13l3 -270l158 5q10 0 15 -7.5t6 -19t-1.5 -23.5t-7.5 -19l-169 -7l6 -491q-29 -17 -43 -13t-14 18l-6 484l-131 -5v0z" />
    <glyph glyph-name="daggerdbl" unicode="&#x2021;" horiz-adv-x="512" 
d="M90 523q-8 -5 -16.5 3.5t-11.5 22t2.5 27.5t25.5 19l137 4l4 240q6 4 14 8.5t16.5 6t15.5 -1.5t11 -13l-4 -238l151 5q10 0 15 -7.5t6 -19t-1.5 -23.5t-7.5 -19l-165 -7l-2 -104l160 5q10 0 15 -7.5t6 -19t-1.5 -23.5t-7.5 -19l-173 -7l-6 -341q-29 -17 -43 -13t-14 18
l6 334l-127 -5q-8 -5 -16.5 3.5t-11.5 22t2.5 27.5t25.5 19l128 4l2 104l-135 -5v0z" />
    <glyph glyph-name="AE" unicode="&#xc6;" horiz-adv-x="863" 
d="M370 20q0 57 1 115t3 118q-30 0 -69.5 -4.5t-76.5 -13t-64.5 -21t-33.5 -28.5q-4 -14 -13 -43.5t-18 -60.5q-11 -36 -23 -77q-20 -14 -33.5 -5.5t-33.5 33.5q10 21 31 70t58 141t91 234.5t130 350.5q20 27 34 24.5t23.5 -20t17 -43.5t14.5 -45l400 96q9 -2 14.5 -10.5
t5 -19t-7 -20.5t-19.5 -14l-379 -103q0 -65 3.5 -129t8.5 -130l278 97l6 6t14.5 10t18 3t18.5 -15q0 -20 -24 -36.5t-59.5 -30.5t-77 -26.5t-77 -25.5t-59.5 -26.5t-24 -28.5l-7 -263q15 -9 43.5 -5.5t63.5 13.5t74 24.5t75 27.5t66.5 23t49.5 11q9 -1 16 -6.5t10 -12.5
t0.5 -14.5t-13.5 -12.5q-39 -17 -94 -38t-113.5 -40.5t-113.5 -34t-93 -17.5q-14 2 -22.5 6.5t-19.5 16.5zM187 295q8 1 30.5 3.5t50.5 5.5t57 5.5t50 3.5v36t-3 61t-9 112t-17 189z" />
    <glyph glyph-name="AEacute" unicode="&#x1fc;" horiz-adv-x="863" 
d="M370 20q0 57 1 115t3 118q-30 0 -69.5 -4.5t-76.5 -13t-64.5 -21t-33.5 -28.5q-4 -14 -13 -43.5t-18 -60.5q-11 -36 -23 -77q-20 -14 -33.5 -5.5t-33.5 33.5q10 21 31 70t58 141t91 234.5t130 350.5q20 27 34 24.5t23.5 -20t17 -43.5t14.5 -45l400 96q9 -2 14.5 -10.5
t5 -19t-7 -20.5t-19.5 -14l-379 -103q0 -65 3.5 -129t8.5 -130l278 97l6 6t14.5 10t18 3t18.5 -15q0 -20 -24 -36.5t-59.5 -30.5t-77 -26.5t-77 -25.5t-59.5 -26.5t-24 -28.5l-7 -263q15 -9 43.5 -5.5t63.5 13.5t74 24.5t75 27.5t66.5 23t49.5 11q9 -1 16 -6.5t10 -12.5
t0.5 -14.5t-13.5 -12.5q-39 -17 -94 -38t-113.5 -40.5t-113.5 -34t-93 -17.5q-14 2 -22.5 6.5t-19.5 16.5zM187 295q8 1 30.5 3.5t50.5 5.5t57 5.5t50 3.5v36t-3 61t-9 112t-17 189zM421 906q-30 6 -33 23t11.5 38.5t40 46.5t51.5 48q18 0 25 -10t7 -23v-8
q-2 -13 -13.5 -28.5t-27 -31t-32.5 -30t-29 -25.5z" />
    <glyph glyph-name="Dcroat" unicode="&#x110;" horiz-adv-x="631" 
d="M179 37q-1 10 25 37t66 66t87.5 89.5t89.5 109t71.5 123t33.5 131.5q0 31 -17 55.5t-43.5 44t-60.5 33.5t-67.5 23.5t-64.5 14t-52 4.5q-5 0 -14.5 -0.5t-21.5 -3t-24.5 -6t-22.5 -9.5l46 -608q5 -11 -0.5 -24t-16 -22t-22.5 -9.5t-19 13.5l-49 623q-3 -2 -11.5 -6
t-17.5 -8.5t-17 -9t-11 -5.5q-1 0 -3.5 -0.5t-3.5 -0.5q-6 0 -13.5 3t-7.5 13q0 17 7.5 27.5t19 19.5t25 17.5t25 22.5t19 35t7.5 54q22 0 27.5 -8t6.5 -18.5t3 -21t16 -15.5q31 3 76 2t94 -10t97 -25.5t86 -44.5t60 -67.5t19 -92.5q-8 -82 -42 -158.5t-86.5 -148.5
t-121.5 -140.5t-147 -135.5q-1 0 -3.5 -0.5t-3.5 -0.5q-10 0 -16.5 14t-6.5 24zM36.2959 458.195q-5.85449 -4.08105 -12.0742 2.04102q-6.21973 6.12305 -8.41504 16.3271t1.8291 20.8164t18.6602 14.6943l252.453 8.97949q7.31836 0 10.9766 -5.71387
q3.65918 -5.71484 4.39062 -13.8779t-1.09766 -17.1436q-1.8291 -8.97949 -5.48828 -14.6943l-261.234 -11.4287v0z" />
    <glyph glyph-name="Lcaron" unicode="&#x13d;" horiz-adv-x="611" 
d="M54 43q-3 214 -7 356.5t-7 231t-5 131t-2 55.5q0 15 8.5 24t18.5 8.5t19 -11t10 -33.5l32 -733l434 92q67 0 29 -57l-502 -107q-28 0 -28 43zM222 815q9 10 19.5 12.5t19 -0.5t14 -9.5t5.5 -14.5l-1 -202q-1 -7 -9 -11.5t-17.5 -4.5t-18.5 5.5t-12 17.5v207z" />
    <glyph glyph-name="iacute" unicode="&#xed;" horiz-adv-x="151" 
d="M40 630q8 4 18.5 6.5t20 2.5t16.5 -4.5t8 -14.5v-598q1 -15 -8 -23t-19.5 -8t-19.5 7.5t-9 23.5zM59 685q-30 6 -33 23t11.5 38.5t40 46.5t51.5 48q18 0 25 -10t7 -23v-8q-2 -13 -13.5 -28.5t-27 -31t-32.5 -30t-29 -25.5z" />
    <glyph glyph-name="ibreve" unicode="&#x12d;" horiz-adv-x="151" 
d="M40 630q8 4 18.5 6.5t20 2.5t16.5 -4.5t8 -14.5v-598q1 -15 -8 -23t-19.5 -8t-19.5 7.5t-9 23.5zM9 831q4 -3 10.5 -12t15.5 -18t21.5 -14.5t28.5 -1.5t35 21t42 54q23 16 35 14.5t15 -13t0 -28t-10 -29.5q-34 -44 -62.5 -64.5t-53 -25t-44 3.5t-35 21.5t-27.5 28.5
l-20 25q-16 10 -11.5 24t17.5 23t27 9t16 -18z" />
    <glyph glyph-name="icircumflex" unicode="&#xee;" horiz-adv-x="151" 
d="M40 630q8 4 18.5 6.5t20 2.5t16.5 -4.5t8 -14.5v-598q1 -15 -8 -23t-19.5 -8t-19.5 7.5t-9 23.5zM-19 641q-7 -6 -16 -8t-17 0.5t-13 8.5t-3 16l98 183q1 3 8 8t15 7.5t15.5 1t11.5 -10.5l122 -173q9 -11 5 -18.5t-13 -11.5t-20.5 -4t-17.5 5l-97 137z" />
    <glyph glyph-name="idieresis" unicode="&#xef;" horiz-adv-x="151" 
d="M40 630q8 4 18.5 6.5t20 2.5t16.5 -4.5t8 -14.5v-598q1 -15 -8 -23t-19.5 -8t-19.5 7.5t-9 23.5zM-25 742q-5 16 8 27t30.5 13.5t32.5 -6.5t15 -34q0 -6 -4 -14.5t-10.5 -16t-14 -11.5t-14.5 -1q-7 -5 -15.5 -2.5t-15.5 9t-10.5 16t-1.5 20.5zM113 745q3 20 18 31t32 11
t31 -11t14 -34q0 -6 -4 -14.5t-10.5 -16t-14 -11.5t-14.5 -1q-7 -5 -17 -2t-18.5 10t-13.5 17t-3 21z" />
    <glyph glyph-name="igrave" unicode="&#xec;" horiz-adv-x="151" 
d="M40 630q8 4 18.5 6.5t20 2.5t16.5 -4.5t8 -14.5v-598q1 -15 -8 -23t-19.5 -8t-19.5 7.5t-9 23.5zM108 689q-11 12 -25.5 27.5t-28.5 32.5t-24.5 34t-11.5 31q-12 14 -4.5 28t32.5 16q23 -25 45.5 -52t35 -50.5t10.5 -41.5t-29 -25z" />
    <glyph glyph-name="imacron" unicode="&#x12b;" horiz-adv-x="151" 
d="M40 630q8 4 18.5 6.5t20 2.5t16.5 -4.5t8 -14.5v-598q1 -15 -8 -23t-19.5 -8t-19.5 7.5t-9 23.5zM-72 716q-8 -5 -16.5 2.5t-11.5 20t2.5 25.5t25.5 18l345 11q10 0 15 -7t6 -17t-1.5 -21t-7.5 -18l-357 -14v0z" />
    <glyph glyph-name="iogonek" unicode="&#x12f;" horiz-adv-x="127" 
d="M34 614q6 3 14 5t15.5 2t14.5 -3t11 -11q0 -65 1.5 -140.5t4 -153t4.5 -152.5t4 -139q1 -15 -8 -23t-19.5 -8t-19.5 7.5t-9 23.5zM22 818q0 13 9 17.5t20 4.5q22 0 27.5 -14.5t5.5 -33.5q-6 -12 -16 -17t-20.5 -2t-18 14t-7.5 31zM210 -149q22 -16 15.5 -36t-32 -36.5
t-65 -25t-83.5 -0.5q-42 12 -64 48.5t-21 82t26 91t77 74.5q18 1 22.5 -7.5t1.5 -20t-9.5 -21.5t-10.5 -13q-23 -29 -35.5 -58.5t-13 -54t11.5 -41.5t38 -21q18 0 35.5 6t35 13.5t35 13.5t36.5 6z" />
    <glyph glyph-name="itilde" unicode="&#x129;" horiz-adv-x="151" 
d="M40 630q8 4 18.5 6.5t20 2.5t16.5 -4.5t8 -14.5v-598q1 -15 -8 -23t-19.5 -8t-19.5 7.5t-9 23.5zM217 829q16 5 29.5 5.5t19.5 -19.5q-5 -30 -23 -61t-43.5 -47.5t-57.5 -11.5t-66 47q-17 25 -39 36t-42 7.5t-33 -23.5t-12 -56q-11 -4 -18 -2.5t-11 6t-6 12t-5 15.5
q0 33 11.5 55t29.5 33.5t40.5 14t44 -3t39.5 -18.5t27 -32q20 -31 37.5 -39t31 -3t23.5 19.5t16.5 29t8 26t-1.5 10.5z" />
    <glyph glyph-name="dotlessj" unicode="&#x237;" horiz-adv-x="109" 
d="M-212 -229q-6 7 -4 19.5t8 22t15.5 12t19.5 -11.5q28 -38 60 -55.5t60.5 -9.5t50.5 45t30 109q6 70 6 152.5t-2 169.5t-3.5 175.5t1.5 169.5q3 7 11 11.5t17 4.5t17.5 -3.5t11.5 -12.5q-2 -91 -1 -172.5t2.5 -161.5t1 -162.5t-6.5 -176.5q1 -33 -10 -68t-31 -64
t-47.5 -48.5t-60.5 -22.5t-70 14.5t-76 63.5z" />
    <glyph glyph-name="lcaron" unicode="&#x13e;" horiz-adv-x="204" 
d="M29 838q6 4 12.5 8.5t13.5 6t12.5 -1.5t9.5 -13l6 -825q-5 -10 -13 -13.5t-16 -2t-14.5 6.5t-8.5 12zM122 709q9 10 19.5 12.5t19 -0.5t14 -9.5t5.5 -14.5l-1 -202q-1 -7 -9 -11.5t-17.5 -4.5t-18.5 5.5t-12 17.5v207z" />
    <glyph glyph-name="oe" unicode="&#x153;" horiz-adv-x="641" 
d="M145 4q-40 5 -65 32t-39.5 66t-19.5 85.5t-4 91.5q1 52 14.5 102.5t34.5 93t48.5 74.5t56.5 47t58 9t53 -38q27 24 67.5 29.5t79.5 -5t70 -36.5t40 -64q6 -9 -7 -23.5t-37.5 -31.5t-56.5 -35.5t-62.5 -35t-57 -30.5t-39.5 -22q3 -61 11.5 -102.5t22.5 -69t33.5 -44.5
t44.5 -30q44 -3 75.5 13t52.5 42t33.5 57t19 59t9 47.5t4.5 21.5q11 6 25 0.5t16 -29.5q1 -39 -17 -89t-49.5 -92t-75 -67.5t-92.5 -17.5q-42 1 -69 19.5t-44 47.5v-1q-32 -38 -62.5 -57t-71.5 -17zM257 126q-14 33 -25 76.5t-14.5 95t3.5 110.5t29 122q-33 20 -63 3
t-54 -56t-40.5 -93t-20.5 -108q-3 -36 -2 -74t9.5 -69t26.5 -50.5t49 -19.5q24 -1 50.5 16.5t51.5 46.5zM351 538q-11 -2 -25.5 -8.5t-26.5 -23.5t-19 -47.5t-4 -78.5l210 111q-16 22 -32.5 33t-33.5 15t-34 3t-35 -4z" />
    <glyph glyph-name="tbar" unicode="&#x167;" horiz-adv-x="227" 
d="M-58 601q-8 -5 -16.5 2.5t-11.5 20t2.5 25.5t25.5 18l325 112q10 0 15 -7t6 -17t-1.5 -21t-7.5 -18zM63 475l-92 -31q-11 3 -18.5 11t-10.5 17t-1.5 17t8.5 12l114 43l-2 283q3 13 13 19t20.5 5.5t19.5 -7t12 -16.5q-2 -31 -3 -65.5t-1.5 -69t0.5 -67t4 -59.5l155 63
q14 4 22 -2.5t10.5 -17t-1.5 -20.5t-14 -14l-172 -78q0 -10 1 -47.5t2 -88.5t2 -109t1.5 -109t1 -88.5t0.5 -47.5q-2 -33 -19 -33t-37 16z" />
    <glyph glyph-name="tcaron" unicode="&#x165;" horiz-adv-x="236" 
d="M72 475l-92 -31q-11 3 -18.5 11t-10.5 17t-1.5 17t8.5 12l114 43l-2 283q3 13 13 19t20.5 5.5t19.5 -7t12 -16.5q-2 -31 -3 -65.5t-1.5 -69t0.5 -67t4 -59.5l155 63q14 4 22 -2.5t10.5 -17t-1.5 -20.5t-14 -14l-172 -78q0 -10 1 -47.5t2 -88.5t2 -109t1.5 -109t1 -88.5
t0.5 -47.5q-2 -33 -19 -33t-37 16zM164 877q9 10 19.5 12.5t19 -0.5t14 -9.5t5.5 -14.5l-1 -202q-1 -7 -9 -11.5t-17.5 -4.5t-18.5 5.5t-12 17.5v207z" />
    <glyph glyph-name="Eth" unicode="&#xd0;" horiz-adv-x="631" 
d="M179 37q-1 10 25 37t66 66t87.5 89.5t89.5 109t71.5 123t33.5 131.5q0 31 -17 55.5t-43.5 44t-60.5 33.5t-67.5 23.5t-64.5 14t-52 4.5q-5 0 -14.5 -0.5t-21.5 -3t-24.5 -6t-22.5 -9.5l46 -608q5 -11 -0.5 -24t-16 -22t-22.5 -9.5t-19 13.5l-49 623q-3 -2 -11.5 -6
t-17.5 -8.5t-17 -9t-11 -5.5q-1 0 -3.5 -0.5t-3.5 -0.5q-6 0 -13.5 3t-7.5 13q0 17 7.5 27.5t19 19.5t25 17.5t25 22.5t19 35t7.5 54q22 0 27.5 -8t6.5 -18.5t3 -21t16 -15.5q31 3 76 2t94 -10t97 -25.5t86 -44.5t60 -67.5t19 -92.5q-8 -82 -42 -158.5t-86.5 -148.5
t-121.5 -140.5t-147 -135.5q-1 0 -3.5 -0.5t-3.5 -0.5q-10 0 -16.5 14t-6.5 24zM38 409q-8 -5 -16.5 3.5t-11.5 22t2.5 27.5t25.5 19l345 11q10 0 15 -7.5t6 -19t-1.5 -23.5t-7.5 -19z" />
    <glyph glyph-name="dollar" unicode="$" horiz-adv-x="607" 
d="M233 52q-52 -11 -97.5 -16.5t-77.5 -3.5q-10 0 -17 7t-3 23q1 4 17 8.5t42.5 9.5t61.5 11.5t73 14.5l-5 197q-42 7 -81 19.5t-68.5 31.5t-47 47t-17.5 67t16.5 74t44.5 65.5t64.5 56.5t77.5 46l-3 144q0 9 7 11.5t16 1.5t17.5 -4.5t11.5 -5.5q1 -30 1.5 -61.5t1.5 -63.5
q42 16 82.5 24.5t75.5 8.5q10 0 21 0.5t19.5 -1.5t14 -8.5t5.5 -19.5q0 -32 -21 -46t-51 -14l-43 14q-22 0 -47.5 -6.5t-53.5 -17.5q2 -76 4 -154.5t4 -158.5q54 -6 108.5 -11.5t98.5 -16t72 -30t28 -53.5q0 -29 -25.5 -55t-68 -48.5t-96.5 -41.5t-109 -33q0 -20 0.5 -39.5
t1.5 -38.5q6 -10 1 -19.5t-14.5 -15t-20.5 -4t-18 12.5zM71 469q0 -25 12 -43t33 -30.5t49 -20.5t60 -14l-7 281q-29 -16 -56 -36t-47 -42.5t-32 -46.5t-12 -48zM526 236q0 16 -21 25t-55.5 14.5t-79 9.5t-90.5 10q1 -46 2 -90l2 -88q39 9 77.5 21t71 26.5t57 32.5t36.5 39z
" />
    </font>
</defs>
</svg>
